<?xml version="1.0" encoding="utf-8"?>
<!-- Generator: Adobe Illustrator 18.0.0, SVG Export Plug-In . SVG Version: 6.00 Build 0)  -->
<!DOCTYPE svg PUBLIC "-//W3C//DTD SVG 1.1//EN" "http://www.w3.org/Graphics/SVG/1.1/DTD/svg11.dtd">
<svg version="1.1" id="Camada_1" xmlns="http://www.w3.org/2000/svg" xmlns:xlink="http://www.w3.org/1999/xlink" x="0px" y="0px"
	 viewBox="0 0 1000 1000" enable-background="new 0 0 1000 1000" xml:space="preserve">
<circle fill="#2B2741" cx="500.5" cy="500.5" r="500"/>
<g id="XMLID_2_">
	<path id="XMLID_68_" fill="none" d="M547.6,634.9c66.8-79.5,100.5-182,45.8-264.4c-99.7-17.2-202,4.2-246.8,88.8
		C381.7,556.2,451.8,636.8,547.6,634.9z"/>
	
		<linearGradient id="XMLID_4_" gradientUnits="userSpaceOnUse" x1="319.6676" y1="198.7761" x2="793.7883" y2="198.7761" gradientTransform="matrix(0.3256 0.9455 -0.9455 0.3256 757.7729 -145.1609)">
		<stop  offset="0" style="stop-color:#5DA660"/>
		<stop  offset="1" style="stop-color:#75B179"/>
	</linearGradient>
	<path id="XMLID_67_" fill="url(#XMLID_4_)" d="M739.1,425.6l-2.2,94.4l20.6-23.5c16.2-18.5,26.6-37,31.7-54.8
		c-1.8,5.5-4.1,11-6.9,16.5C769.5,446.4,755,435.5,739.1,425.6z"/>
	
		<linearGradient id="XMLID_5_" gradientUnits="userSpaceOnUse" x1="319.6676" y1="343.4592" x2="793.7883" y2="343.4592" gradientTransform="matrix(0.3256 0.9455 -0.9455 0.3256 757.7729 -145.1609)">
		<stop  offset="0" style="stop-color:#5DA660"/>
		<stop  offset="1" style="stop-color:#75B179"/>
	</linearGradient>
	<path id="XMLID_66_" fill="url(#XMLID_5_)" d="M547.6,634.9c12.5-0.2,25.4-1.9,38.8-5.1c52.1-69.7,88.3-153,112.6-226.1
		c-32.9-15.4-69.1-26.9-105.6-33.2C648.1,453,614.4,555.4,547.6,634.9z"/>
	
		<linearGradient id="XMLID_6_" gradientUnits="userSpaceOnUse" x1="234.0043" y1="387.3388" x2="578.4459" y2="387.3388" gradientTransform="matrix(0.3256 0.9455 -0.9455 0.3256 757.7729 -145.1609)">
		<stop  offset="0.1133" style="stop-color:#2E84C7"/>
		<stop  offset="0.4729" style="stop-color:#3693D3"/>
		<stop  offset="0.9015" style="stop-color:#4FA4DE"/>
	</linearGradient>
	<path id="XMLID_65_" fill="url(#XMLID_6_)" d="M346.7,459.4c44.8-84.6,147-106,246.8-88.8c-21.2-32-55.7-60.9-106.6-84.3
		l213.6,42.4c6.9,1.4,13.4,3.1,19.6,5c0.4-1.3,0.9-2.6,1.3-3.9c-6-1.9-12.5-3.6-19.1-5l-266.1-54.5
		c-45.8,30.9-80.7,74.4-107.4,123.4C332.9,415.9,338.9,438,346.7,459.4z"/>
	
		<linearGradient id="XMLID_7_" gradientUnits="userSpaceOnUse" x1="234.0043" y1="158.7424" x2="578.4459" y2="158.7424" gradientTransform="matrix(0.3256 0.9455 -0.9455 0.3256 757.7729 -145.1609)">
		<stop  offset="0.1133" style="stop-color:#2E84C7"/>
		<stop  offset="0.4729" style="stop-color:#3693D3"/>
		<stop  offset="0.9015" style="stop-color:#4FA4DE"/>
	</linearGradient>
	<path id="XMLID_64_" fill="url(#XMLID_7_)" d="M741.2,337.5l-0.1,4.4c42.6,21,60,58.1,48.1,99.7C803.5,398.3,786,359.2,741.2,337.5
		z"/>
	
		<linearGradient id="XMLID_8_" gradientUnits="userSpaceOnUse" x1="319.6675" y1="294.1015" x2="793.7882" y2="294.1015" gradientTransform="matrix(0.3256 0.9455 -0.9455 0.3256 757.7729 -145.1609)">
		<stop  offset="0" style="stop-color:#5DA660"/>
		<stop  offset="1" style="stop-color:#75B179"/>
	</linearGradient>
	<path id="XMLID_63_" fill="url(#XMLID_8_)" d="M700.4,328.6l-213.6-42.4c51,23.4,85.4,52.4,106.6,84.3
		c36.5,6.3,72.7,17.8,105.6,33.2c8.3-24.9,15.2-48.6,21-70.2C713.8,331.7,707.3,330,700.4,328.6z"/>
	
		<linearGradient id="XMLID_9_" gradientUnits="userSpaceOnUse" x1="234.0043" y1="294.1015" x2="578.4459" y2="294.1015" gradientTransform="matrix(0.3256 0.9455 -0.9455 0.3256 757.7729 -145.1609)">
		<stop  offset="0.1133" style="stop-color:#2E84C7"/>
		<stop  offset="0.4729" style="stop-color:#3693D3"/>
		<stop  offset="0.9015" style="stop-color:#4FA4DE"/>
	</linearGradient>
	<path id="XMLID_62_" fill="url(#XMLID_9_)" d="M700.4,328.6l-199.6-40.4l-14-2c5.1,2.3,9.1,5.2,13.9,7.6
		c43,22.1,73.7,47.9,92.7,76.7c36.5,6.3,72.7,17.8,105.6,33.2c8.3-24.9,15.2-48.6,21-70.2C713.8,331.7,707.3,330,700.4,328.6z"/>
	
		<linearGradient id="XMLID_10_" gradientUnits="userSpaceOnUse" x1="319.6676" y1="174.4609" x2="793.7883" y2="174.4609" gradientTransform="matrix(0.3256 0.9455 -0.9455 0.3256 757.7729 -145.1609)">
		<stop  offset="0" style="stop-color:#5DA660"/>
		<stop  offset="1" style="stop-color:#75B179"/>
	</linearGradient>
	<path id="XMLID_61_" fill="url(#XMLID_10_)" d="M741.1,341.9l-2,83.6c15.8,9.9,30.4,20.9,43.2,32.6c2.8-5.6,5.1-11.1,6.9-16.5
		C801.1,400.1,783.7,362.9,741.1,341.9z"/>
	
		<linearGradient id="XMLID_11_" gradientUnits="userSpaceOnUse" x1="233.0311" y1="173.9382" x2="578.9885" y2="173.9382" gradientTransform="matrix(0.3256 0.9455 -0.9455 0.3256 757.7729 -145.1609)">
		<stop  offset="0.1133" style="stop-color:#2E84C7"/>
		<stop  offset="0.4729" style="stop-color:#3693D3"/>
		<stop  offset="0.9015" style="stop-color:#4FA4DE"/>
	</linearGradient>
	<path id="XMLID_60_" fill="url(#XMLID_11_)" d="M741.1,341.9l-2,83.6c15.8,9.9,30.9,21.3,43.7,33c2.1-4.2,3.7-8.6,5.1-12.9
		c0.4-1.3,0.8-2.8,1.3-4.1c6.8-23.6,5.1-46.5-6.3-65.2C774.2,362.3,759.5,351,741.1,341.9z"/>
	
		<linearGradient id="XMLID_12_" gradientUnits="userSpaceOnUse" x1="233.6681" y1="553.2156" x2="793.7883" y2="553.2156" gradientTransform="matrix(0.3256 0.9455 -0.9455 0.3256 757.7729 -145.1609)">
		<stop  offset="0.2847" style="stop-color:#CF606A"/>
		<stop  offset="0.3829" style="stop-color:#D26F6D"/>
		<stop  offset="0.5778" style="stop-color:#DB9574"/>
		<stop  offset="0.8481" style="stop-color:#EBC976"/>
		<stop  offset="1" style="stop-color:#F5E471"/>
	</linearGradient>
	<path id="XMLID_59_" fill="url(#XMLID_12_)" d="M380.8,752.5c59.4-19.1,120.9-62.9,166.9-117.6c-95.8,1.9-165.9-78.8-201-175.6
		c-18.3,34.6-27.1,79.8-22.1,137.3l-36.1-108.4c-0.5,1.5-1,3-1.5,4.5l75.3,221.6c8.1,23.9,19.4,42.7,32.8,56.1c0.1,0,0.1,0,0.2,0
		C390.1,765.2,385.2,759.3,380.8,752.5z"/>
	
		<linearGradient id="XMLID_13_" gradientUnits="userSpaceOnUse" x1="319.6676" y1="531.5366" x2="793.7452" y2="531.5366" gradientTransform="matrix(0.3256 0.9455 -0.9455 0.3256 757.7729 -145.1609)">
		<stop  offset="0" style="stop-color:#5DA660"/>
		<stop  offset="1" style="stop-color:#75B179"/>
	</linearGradient>
	<path id="XMLID_58_" fill="url(#XMLID_13_)" d="M380.8,752.5c4.5,6.8,9.3,12.7,14.5,17.9c79.9-22.2,142.5-75.5,191.2-140.5
		c-13.4,3.2-26.3,4.9-38.8,5.1C501.7,689.6,440.1,733.4,380.8,752.5z"/>
	
		<linearGradient id="XMLID_14_" gradientUnits="userSpaceOnUse" x1="233.6681" y1="531.5366" x2="793.7883" y2="531.5366" gradientTransform="matrix(0.3256 0.9455 -0.9455 0.3256 757.7729 -145.1609)">
		<stop  offset="0.2847" style="stop-color:#CF606A"/>
		<stop  offset="0.3829" style="stop-color:#D26F6D"/>
		<stop  offset="0.5778" style="stop-color:#DB9574"/>
		<stop  offset="0.8481" style="stop-color:#EBC976"/>
		<stop  offset="1" style="stop-color:#F5E471"/>
	</linearGradient>
	<path id="XMLID_57_" fill="url(#XMLID_14_)" d="M380.8,752.5c4.5,6.8,9.3,12.7,14.5,17.9c79.9-22.2,142.5-75.5,191.2-140.5
		c-13.4,3.2-26.3,4.9-38.8,5.1c-1.2,1.4-3,2.5-4.2,3.8c-18.8,21.5-40.7,41.1-63,58.2c-30.3,23.3-61.5,41-93.6,52.3
		C384.8,749.9,382.8,751.9,380.8,752.5z"/>
	
		<linearGradient id="XMLID_15_" gradientUnits="userSpaceOnUse" x1="234.0043" y1="616.1157" x2="578.4459" y2="616.1157" gradientTransform="matrix(0.3256 0.9455 -0.9455 0.3256 757.7729 -145.1609)">
		<stop  offset="0.1133" style="stop-color:#2E84C7"/>
		<stop  offset="0.4729" style="stop-color:#3693D3"/>
		<stop  offset="0.9015" style="stop-color:#4FA4DE"/>
	</linearGradient>
	<path id="XMLID_56_" fill="url(#XMLID_15_)" d="M288.5,488.2l36.1,108.4c-5-57.5,3.7-102.7,22.1-137.3c-7.7-21.4-13.8-43.5-18-65.7
		C312.4,423.6,299.2,455.6,288.5,488.2z"/>
	
		<linearGradient id="XMLID_16_" gradientUnits="userSpaceOnUse" x1="233.6681" y1="616.654" x2="793.7883" y2="616.654" gradientTransform="matrix(0.3256 0.9455 -0.9455 0.3256 757.7729 -145.1609)">
		<stop  offset="0.2847" style="stop-color:#CF606A"/>
		<stop  offset="0.3829" style="stop-color:#D26F6D"/>
		<stop  offset="0.5778" style="stop-color:#DB9574"/>
		<stop  offset="0.8481" style="stop-color:#EBC976"/>
		<stop  offset="1" style="stop-color:#F5E471"/>
	</linearGradient>
	<path id="XMLID_55_" fill="url(#XMLID_16_)" d="M288.5,488.2l-0.4,1.2l32.1,97.8l4.4,9.4c-0.3-3.9,1.7-7.7,1.5-11.5
		c-2.7-48.4,3.7-86.9,18.1-118.1c1.1-2.4,1.2-5.4,2.4-7.7c-7.7-21.4-13.8-43.5-18-65.7C312.4,423.6,299.2,455.6,288.5,488.2z"/>
	
		<linearGradient id="XMLID_17_" gradientUnits="userSpaceOnUse" x1="319.6676" y1="372.7949" x2="793.7883" y2="372.7949" gradientTransform="matrix(0.3256 0.9455 -0.9455 0.3256 757.7729 -145.1609)">
		<stop  offset="0" style="stop-color:#5DA660"/>
		<stop  offset="1" style="stop-color:#75B179"/>
	</linearGradient>
	<path id="XMLID_54_" fill="url(#XMLID_17_)" d="M699.1,403.8c-13.5,40.5-32.5,83.5-54,126.2c-17.3,34.4-35.4,68.8-58.7,99.9
		c29.2-7,60.4-21.4,93.3-44.7L536.3,748.9c-11,12.5-22.3,22.4-33.8,29.8c11.5-7.4,22.9-17.3,33.9-29.9l200.5-228.9l4.2-60.6l-2-33.8
		C726.5,417.6,713.1,410.3,699.1,403.8z"/>
	<path id="XMLID_53_" opacity="0.36" fill="#FFFFFF" d="M699.1,403.8c-24.4,73.1-60.5,156.4-112.6,226.1c29.2-7,60.4-21.4,93.3-44.7
		L536.3,748.9c-11,12.5-22.3,22.4-33.8,29.8c11.5-7.4,22.9-17.3,33.9-29.9l200.5-228.9l2.2-94.4
		C726.5,417.6,713.1,410.3,699.1,403.8z"/>
	
		<linearGradient id="XMLID_18_" gradientUnits="userSpaceOnUse" x1="226.227" y1="182.1937" x2="583.8669" y2="182.1937" gradientTransform="matrix(0.3256 0.9455 -0.9455 0.3256 757.7729 -145.1609)">
		<stop  offset="0.1133" style="stop-color:#2E84C7"/>
		<stop  offset="0.4729" style="stop-color:#3693D3"/>
		<stop  offset="0.9015" style="stop-color:#4FA4DE"/>
	</linearGradient>
	<path id="XMLID_52_" fill="url(#XMLID_18_)" d="M742,342.4l-0.8-4.8c-6.2-3-12.9-5.6-20.1-7.9c-0.3,1.3-0.7,2.6-1,4
		C727.6,336,735.5,339.2,742,342.4z"/>
	
		<linearGradient id="XMLID_19_" gradientUnits="userSpaceOnUse" x1="319.6676" y1="204.2892" x2="793.7883" y2="204.2892" gradientTransform="matrix(0.3256 0.9455 -0.9455 0.3256 757.7729 -145.1609)">
		<stop  offset="0" style="stop-color:#5DA660"/>
		<stop  offset="1" style="stop-color:#75B179"/>
	</linearGradient>
	<path id="XMLID_51_" fill="url(#XMLID_19_)" d="M720,333.6c-5.7,21.6-12.7,45.3-21,70.2c14,6.6,27.5,13.9,40.1,21.8l2-83.6
		C734.7,338.8,727.6,336,720,333.6z"/>
	
		<linearGradient id="XMLID_20_" gradientUnits="userSpaceOnUse" x1="234.0043" y1="204.2892" x2="578.4459" y2="204.2892" gradientTransform="matrix(0.3256 0.9455 -0.9455 0.3256 757.7729 -145.1609)">
		<stop  offset="0.1133" style="stop-color:#2E84C7"/>
		<stop  offset="0.4729" style="stop-color:#3693D3"/>
		<stop  offset="0.9015" style="stop-color:#4FA4DE"/>
	</linearGradient>
	<path id="XMLID_50_" fill="url(#XMLID_20_)" d="M720,333.6c-2.5,9.5-8.6,19.1-11.6,29.3c-3.8,13.1-4.7,26.9-9.4,40.8
		c6.2,2.9,12.3,5.9,18.2,9.1c7.5,4,14.8,8.2,21.9,12.7l4-56.1l-2.1-27.5c-3.5-1.7-6.2-4.4-10.1-5.9
		C727.8,334.8,723.5,334.7,720,333.6z"/>
	<path id="XMLID_49_" opacity="0.36" fill="#FFFFFF" d="M721.1,329.6c-5.7,21.6-13.7,49.3-22,74.1c14,6.6,27.5,13.9,40.1,21.8
		l2.3-87.9C735,334.5,728.7,332,721.1,329.6z"/>
	
		<linearGradient id="XMLID_21_" gradientUnits="userSpaceOnUse" x1="233.6681" y1="605.024" x2="793.7883" y2="605.024" gradientTransform="matrix(0.3256 0.9455 -0.9455 0.3256 757.7729 -145.1609)">
		<stop  offset="0.2847" style="stop-color:#CF606A"/>
		<stop  offset="0.3829" style="stop-color:#D26F6D"/>
		<stop  offset="0.5778" style="stop-color:#DB9574"/>
		<stop  offset="0.8481" style="stop-color:#EBC976"/>
		<stop  offset="1" style="stop-color:#F5E471"/>
	</linearGradient>
	<path id="XMLID_48_" fill="url(#XMLID_21_)" d="M395.3,770.4c-0.1,0-0.1,0-0.2,0c23.2,23.3,52.8,30.4,83.1,20.2
		C447.9,800.8,418.4,793.7,395.3,770.4z"/>
	<path id="XMLID_47_" opacity="0.36" fill="#FFFFFF" d="M395.3,770.4c-0.1,0-0.1,0-0.2,0c23.2,23.3,52.8,30.4,83.1,20.2
		C447.9,800.8,418.4,793.7,395.3,770.4z"/>
	
		<linearGradient id="XMLID_22_" gradientUnits="userSpaceOnUse" x1="319.6676" y1="476.1898" x2="793.7883" y2="476.1898" gradientTransform="matrix(0.3256 0.9455 -0.9455 0.3256 757.7729 -145.1609)">
		<stop  offset="0" style="stop-color:#5DA660"/>
		<stop  offset="1" style="stop-color:#75B179"/>
	</linearGradient>
	<path id="XMLID_46_" fill="url(#XMLID_22_)" d="M395.3,770.4c23.2,23.3,52.7,30.4,82.9,20.2c0.3-0.1,0.6-0.2,0.9-0.3
		c1.5-0.5,2.9-1.1,4.4-1.7c0.5-0.2,0.9-0.4,1.4-0.6c1-0.4,2.1-0.9,3.1-1.4c0.9-0.4,1.7-0.8,2.6-1.2c0.9-0.4,1.7-0.9,2.6-1.3
		c0.8-0.4,1.7-0.9,2.5-1.4c0.4-0.2,0.7-0.4,1.1-0.6c1.7-1,3.4-2,5.1-3.1c0.2-0.1,0.3-0.2,0.5-0.3c11.5-7.4,22.8-17.3,33.8-29.8
		l143.5-163.8c-33,23.3-64.1,37.7-93.3,44.7C537.8,694.9,475.2,748.2,395.3,770.4z"/>
	
		<linearGradient id="XMLID_23_" gradientUnits="userSpaceOnUse" x1="233.6681" y1="476.1898" x2="793.7883" y2="476.1898" gradientTransform="matrix(0.3256 0.9455 -0.9455 0.3256 757.7729 -145.1609)">
		<stop  offset="0.2847" style="stop-color:#CF606A"/>
		<stop  offset="0.3829" style="stop-color:#D26F6D"/>
		<stop  offset="0.5778" style="stop-color:#DB9574"/>
		<stop  offset="0.8481" style="stop-color:#EBC976"/>
		<stop  offset="1" style="stop-color:#F5E471"/>
	</linearGradient>
	<path id="XMLID_45_" fill="url(#XMLID_23_)" d="M395.3,770.4c23.2,23.3,52.7,30.4,82.9,20.2c0.3-0.1,0.6-0.2,0.9-0.3
		c1.5-0.5,2.9-1.1,4.4-1.7c0.5-0.2,0.9-0.4,1.4-0.6c1-0.4,2.1-0.9,3.1-1.4c0.9-0.4,1.7-0.8,2.6-1.2c0.9-0.4,1.7-0.9,2.6-1.3
		c0.8-0.4,1.7-0.9,2.5-1.4c0.4-0.2,0.7-0.4,1.1-0.6c1.7-1,3.4-2,5.1-3.1c0.2-0.1,0.3-0.2,0.5-0.3c11.5-7.4,22.8-17.3,33.8-29.8
		l143.5-163.8c-33,23.3-64.1,37.7-93.3,44.7c-28.3,37.8-62.5,69.2-100.8,95.2C457.9,743.9,428.8,761.1,395.3,770.4z"/>
	<path id="XMLID_44_" opacity="0.36" fill="#FFFFFF" d="M395.3,770.4c23.2,23.3,52.7,30.4,82.9,20.2c0.3-0.1,0.6-0.2,0.9-0.3
		c1.5-0.5,2.9-1.1,4.4-1.7c0.5-0.2,0.9-0.4,1.4-0.6c1-0.4,2.1-0.9,3.1-1.4c0.9-0.4,1.7-0.8,2.6-1.2c0.9-0.4,1.7-0.9,2.6-1.3
		c0.8-0.4,1.7-0.9,2.5-1.4c0.4-0.2,0.7-0.4,1.1-0.6c1.7-1,3.4-2,5.1-3.1c0.2-0.1,0.3-0.2,0.5-0.3c11.5-7.4,22.8-17.3,33.8-29.8
		l143.5-163.8c-33,23.3-64.1,37.7-93.3,44.7C537.8,694.9,475.2,748.2,395.3,770.4z"/>
	
		<linearGradient id="XMLID_24_" gradientUnits="userSpaceOnUse" x1="234.0043" y1="510.287" x2="578.4459" y2="510.287" gradientTransform="matrix(0.3256 0.9455 -0.9455 0.3256 757.7729 -145.1609)">
		<stop  offset="0.1133" style="stop-color:#2E84C7"/>
		<stop  offset="0.4729" style="stop-color:#3693D3"/>
		<stop  offset="0.9015" style="stop-color:#4FA4DE"/>
	</linearGradient>
	<path id="XMLID_43_" fill="url(#XMLID_24_)" d="M327.8,254.1c-9,41.9-8.4,90.9,0.8,139.5c26.7-49,61.6-92.5,107.4-123.4l-62.6-12.8
		C356.9,254,341.6,253,327.8,254.1z"/>
	<path id="XMLID_42_" opacity="0.36" fill="#FFFFFF" d="M327.8,254.1c-9,41.9-8.4,90.9,0.8,139.5c26.7-49,61.6-92.5,107.4-123.4
		l-62.6-12.8C356.9,254,341.6,253,327.8,254.1z"/>
	
		<linearGradient id="XMLID_25_" gradientUnits="userSpaceOnUse" x1="234.0086" y1="593.2244" x2="578.4502" y2="593.2244" gradientTransform="matrix(0.3256 0.9455 -0.9455 0.3256 757.7729 -145.1609)">
		<stop  offset="0.1133" style="stop-color:#2E84C7"/>
		<stop  offset="0.4729" style="stop-color:#3693D3"/>
		<stop  offset="0.9015" style="stop-color:#4FA4DE"/>
	</linearGradient>
	<path id="XMLID_41_" fill="url(#XMLID_25_)" d="M255.8,390.1l32.7,98.1c10.7-32.6,23.9-64.6,40.2-94.6
		c-9.2-48.6-9.9-97.6-0.8-139.5C262.1,259.5,230.3,313.6,255.8,390.1z"/>
	
		<linearGradient id="XMLID_26_" gradientUnits="userSpaceOnUse" x1="233.5456" y1="594.6635" x2="804.063" y2="594.6635" gradientTransform="matrix(0.3256 0.9455 -0.9455 0.3256 757.7729 -145.1609)">
		<stop  offset="0.2847" style="stop-color:#CF606A"/>
		<stop  offset="0.3829" style="stop-color:#D26F6D"/>
		<stop  offset="0.5778" style="stop-color:#DB9574"/>
		<stop  offset="0.8481" style="stop-color:#EBC976"/>
		<stop  offset="1" style="stop-color:#F5E471"/>
	</linearGradient>
	<path id="XMLID_40_" fill="url(#XMLID_26_)" d="M252.3,389.2L287,492.7c10.7-32.6,25.4-69.2,41.7-99.1
		c-9.2-48.6-9.9-97.6-0.8-139.5C262.1,259.5,226.8,312.7,252.3,389.2z"/>
	<path id="XMLID_39_" opacity="0.36" fill="#FFFFFF" d="M252.3,389.2L287,492.7c10.7-32.6,25.4-69.2,41.7-99.1
		c-9.2-48.6-9.9-97.6-0.8-139.5C262.1,259.5,226.8,312.7,252.3,389.2z"/>
</g>
</svg>
