<?xml version="1.0" encoding="UTF-8" standalone="no"?>
<svg
   xmlns:dc="http://purl.org/dc/elements/1.1/"
   xmlns:cc="http://creativecommons.org/ns#"
   xmlns:rdf="http://www.w3.org/1999/02/22-rdf-syntax-ns#"
   xmlns:svg="http://www.w3.org/2000/svg"
   xmlns="http://www.w3.org/2000/svg"
   viewBox="0 0 595.27557 841.88977"
   id="svg117"
   height="841.88977"
   width="595.27557"
   version="1.1">
  <metadata
     id="metadata121">
    <rdf:RDF>
      <cc:Work
         rdf:about="">
        <dc:format>image/svg+xml</dc:format>
        <dc:type
           rdf:resource="http://purl.org/dc/dcmitype/StillImage" />
      </cc:Work>
    </rdf:RDF>
  </metadata>
  <path
     id="path2"
     style="fill:#0930cb;fill-rule:evenodd"
     d="m 542.8996,254.5177 c 2.3609,30.5368 2.4545,61.2703 -0.1123,91.7975 -2.3476,27.9238 -6.9239,55.6795 -14.0199,82.7954 -9.2097,35.193 -22.8892,69.2198 -41.0896,100.736 -18.0587,31.2712 -41.1307,60.1084 -67.2083,85.066 -34.6269,33.1396 -76.7673,61.6929 -121.695,78.7654 l -1.1945,0.4542 -1.198,-0.4448 c -22.0195,-8.1751 -43.0628,-19.3723 -62.7383,-32.1514 -5.478,-3.5578 -10.8635,-7.2604 -16.1595,-11.0832 -12.9852,-9.3725 -25.6104,-19.5386 -37.3912,-30.3905 -9.7501,-8.981 -19.01,-18.5343 -27.8087,-28.4468 C 131.3271,568.0049 113.5219,542.1555 98.9186,514.152 79.4364,476.7919 66.5056,435.4072 58.9558,394.0313 50.5925,348.1985 48.5563,300.8928 52.5611,254.4874 c 0.2909,-1.834 0.9907,-2.4491 2.6544,-3.0288 13.0399,-2.8851 25.9948,-6.2751 38.8287,-9.9672 14.0621,-4.0453 28.025,-8.4787 41.8527,-13.2642 16.4747,-5.701 32.8274,-11.9128 48.8426,-18.8039 13.4958,-5.807 26.739,-12.3539 39.7352,-19.2004 13.3801,-7.0487 26.576,-14.48 39.5887,-22.1845 10.7186,-6.3465 21.3707,-12.8713 31.7877,-19.7037 1.1934,-0.7826 2.5648,-0.7537 3.7092,-0.008 37.106,24.175 75.8619,45.9162 116.5427,63.5117 9.0085,3.8962 18.1403,7.5138 27.3467,10.9153 31.4566,11.6227 64.1971,21.0303 96.838,28.7153 1.821,0.4926 2.4061,1.3464 2.6119,3.0489 z" />
  <path
     id="path4"
     style="fill:#ffffff;fill-rule:evenodd"
     d="m 55.9502,254.7799 c 38.704,-8.5631 88.9577,-24.5145 130.1338,-42.2319 39.316,-16.9172 86.0255,-44.6352 111.6278,-61.3659 40.0121,25.9002 78.4335,47.0795 117.0408,63.7782 42.05,18.1873 89.9107,31.6156 124.7556,39.8196 4.9181,63.6137 -0.5355,121.8975 -14.0315,173.4696 -9.6574,36.9031 -23.6942,70.3712 -40.7446,99.896 -17.5533,30.3962 -40.3946,59.2158 -66.6145,84.3097 -35.9314,34.388 -78.0874,61.9067 -120.5515,78.0432 -19.2056,-7.1302 -40.0703,-17.5266 -62.0697,-31.8152 -18.9935,-12.3361 -37.9151,-27.1363 -53.0989,-41.1228 -9.6539,-8.8925 -18.9416,-18.4833 -27.5692,-28.203 C 134.1505,566.0614 116.5819,540.667 101.9347,512.5791 65.785,443.2567 47.7255,350.0793 55.9502,254.7799 Z" />
  <defs
     id="defs37">
    <linearGradient
       id="grad1">
      <stop
         id="stop6"
         stop-opacity="1.0000"
         stop-color="#051eb2"
         offset="0.0000%" />
      <stop
         id="stop8"
         stop-opacity="1.0000"
         stop-color="#ffffff"
         offset="12.0000%" />
      <stop
         id="stop10"
         stop-opacity="1.0000"
         stop-color="#d6d6d6"
         offset="0.0000%" />
      <stop
         id="stop12"
         stop-opacity="1.0000"
         stop-color="#ffffff"
         offset="83887360.0000%" />
      <stop
         id="stop14"
         stop-opacity="1.0000"
         stop-color="#ffffff"
         offset="0.0000%" />
      <stop
         id="stop16"
         stop-opacity="1.0000"
         stop-color="#ffffff"
         offset="5.0000%" />
      <stop
         id="stop18"
         stop-opacity="1.0000"
         stop-color="#000000"
         offset="0.0000%" />
      <stop
         id="stop20"
         stop-opacity="1.0000"
         stop-color="#ffffff"
         offset="3405774848.0000%" />
      <stop
         id="stop22"
         stop-opacity="1.0000"
         stop-color="#000000"
         offset="0.0000%" />
      <stop
         id="stop24"
         stop-opacity="1.0000"
         stop-color="#ffffff"
         offset="167385.0000%" />
      <stop
         id="stop26"
         stop-opacity="1.0000"
         stop-color="#ffffff"
         offset="0.0000%" />
      <stop
         id="stop28"
         stop-opacity="1.0000"
         stop-color="#000000"
         offset="1050368.0000%" />
      <stop
         id="stop30"
         stop-opacity="1.0000"
         stop-color="#ffffff"
         offset="805306368.0000%" />
      <stop
         id="stop32"
         stop-opacity="1.0000"
         stop-color="#ffffff"
         offset="0.0000%" />
      <stop
         id="stop34"
         stop-opacity="1.0000"
         stop-color="#ffffff"
         offset="201392183.0000%" />
    </linearGradient>
  </defs>
  <path
     id="path39"
     style="fill:url(#grad1)"
     d="m 73.1146,257.9564 c 87.5367,-20.8618 154.33,-48.8766 224.2043,-94.0441 87.9313,54.604 139.3997,73.0258 224.5209,94.1859 7.4027,59.5335 4.5026,120.4506 -9.6338,177.3734 -4.1408,16.6737 -9.4524,33.4477 -15.7215,49.343 -0.3671,0.9308 -0.7384,1.8595 -1.1129,2.7861 -29.0667,12.5737 -68.8096,21.4866 -105.5044,19.194 -25.1053,-1.5684 -51.3748,-5.6841 -77.7926,-9.8323 l 3.852,35.1868 c 12.225,3.3868 24.7167,6.5154 37.4874,8.9589 22.549,4.314 47.3927,7.2975 70.6703,7.9137 14.085,0.3728 27.2823,-0.1304 40.0912,-1.4051 -5.8229,9.0264 -12.0569,17.8322 -18.6905,26.428 -10.7277,13.9002 -22.0833,27.6777 -35.2965,40.0923 -33.1747,33.522 -72.4592,59.6744 -112.6224,76.3614 -16.9331,-7.2689 -37.6912,-17.3474 -58.2557,-31.581 -20.8037,-14.3995 -40.8775,-30.9779 -58.9195,-49.1219 -11.0659,-11.1288 -21.1317,-22.9411 -30.5906,-35.3293 -11.7287,-15.3613 -22.2446,-31.6131 -31.4711,-48.5584 36.2999,-2.5599 63.6871,1.3899 84.8778,6.6133 29.5993,7.2961 49.9478,19.0896 72.2885,27.1947 l 3.1312,-28.182 c -22.8858,-7.6187 -51.406,-17.7704 -92.4358,-17.9116 -20.6558,-0.0709 -36.8133,0.9873 -63.4848,5.7501 -1.4283,0.2551 -1.6293,-0.58 -0.2735,-1.1197 16.77,-6.6784 36.3801,-10.7189 62.0169,-12.5289 17.3747,-1.2265 42.539,1.656 65.5541,7.4932 9.7251,2.4664 19.6333,5.3365 29.7323,8.3347 l 2.9588,-26.6293 c -0.8708,-0.5612 -1.3898,-1.4573 -1.6648,-2.4706 -6.8805,-0.8941 -13.7724,-1.7187 -20.6887,-2.4784 -14.6262,-1.6064 -29.8513,-2.7513 -43.7975,-1.9457 -22.3744,1.2929 -43.628,4.777 -65.9506,12.2077 -12.3511,4.1114 -24.7734,9.5462 -37.347,16.0115 C 102.8401,495.7617 94.284,474.3451 87.7099,452.3292 78.8162,422.5462 73.4159,391.72 70.7933,360.5913 67.9127,326.4009 68.6466,291.7324 73.1146,257.9564 Z m 397.3771,279.5114 c -0.6503,1.0837 -1.3063,2.1648 -1.9679,3.2423 -1.4924,-0.5859 -3.0798,-1.268 -4.1893,-1.8312 -2.622,-1.3314 -1.2685,-1.4511 0.7849,-1.4794 1.5957,-0.0221 3.5139,0.004 5.3723,0.0683 z m -153.1611,7.5067 c 18.2469,6.3286 38.1969,12.3826 56.6711,13.54 5.1171,0.3203 11.2833,0.4042 16.1544,-0.1205 2.8573,-0.3078 3.5359,3.0376 -0.3444,4.1667 -13.7974,4.015 -41.2668,7.1319 -64.3723,6.8913 l -2.933,-3.356 h -2.8635 z" />
  <path
     id="path41"
     style="fill:#ffffff;fill-rule:evenodd"
     d="m 281.4996,486.0286 h 4.0955 v -9.9377 h -4.6457 v 10.0007 c 0.1772,-0.0414 0.3608,-0.063 0.5502,-0.063 z m 15.0851,-35.018 h 1.1962 v 3.986 l 11.4903,8.3792 h -24.1767 l 11.4902,-8.4316 z m -12.2318,13.2411 h 25.6598 c 0.773,0 1.4052,0.6322 1.4052,1.4052 v 0 c 0,0.773 -0.6322,1.4051 -1.4052,1.4051 h -25.6598 c -0.7732,0 -1.4051,-0.6321 -1.4051,-1.4051 v 0 c 0,-0.773 0.6319,-1.4052 1.4051,-1.4052 z m 22.6611,10.9225 v 0.0663 h 7.3944 v 11.1249 c 0.7149,0.424 1.2005,1.205 1.2005,2.0874 0,1.3334 -1.0965,2.4239 -2.4245,2.4239 h -0.8436 c -0.01,1.1778 -0.4019,2.7978 -2.0126,3.1567 l 8.0439,73.48 h 3.4906 l 5.1256,5.8646 6.1801,-0.1302 10.2107,15.9171 12.6805,4.5409 1.8124,8.6998 c -14.9859,-0.3819 -29.3907,-5.3983 -43.4276,-10.2884 -6.0675,-2.1141 -12.1711,-4.1249 -18.3223,-5.9825 -11.4916,-3.4702 -23.637,-6.031 -35.7656,-6.8122 l 3.8106,-1.5129 1.5821,-3.0727 2.7465,-7.2235 3.528,0.6755 3.9529,0.0314 8.2425,-74.1838 c -1.5709,-0.3484 -1.9323,-1.9355 -2.0123,-3.1598 h -0.7072 c -1.3215,0 -2.4239,-1.097 -2.4239,-2.4239 0,-0.8124 0.4053,-1.5352 1.0233,-1.9757 v -11.2366 h 7.4166 v -0.0663 -7.4166 h 19.4984 z m -27.7022,72.0125 h 35.837 l 2.2252,20.3267 h -40.3208 z m 34.6051,-11.2536 h -33.3547 l 1.8731,-16.8576 h 29.6362 z m -3.0464,-27.8277 h -27.2163 l 1.5554,-13.9989 h 24.1285 z m -2.0313,-32.0145 v 9.9377 h 4.3452 c 0.127,0 0.2517,0.01 0.3736,0.0289 v -9.9666 z m -0.8504,9.9377 v -9.9377 h -4.6772 v 9.9377 z m -5.5276,0 v -9.9377 h -4.6771 v 9.9377 z m -5.5275,0 v -9.9377 h -4.8189 v 9.9377 z m -5.6693,0 v -9.9377 h -4.8189 v 9.9377 z" />
  <path
     id="path43"
     style="fill:#ffffff;fill-rule:evenodd"
     d="m 203.9973,611.6851 c 5.0683,-18.8204 25.2521,-29.992 43.3655,-30.9158 16.0475,-0.8184 32.7725,2.1665 48.3086,6.8578 6.1449,1.8556 12.2119,3.8552 18.2602,5.9624 15.4582,5.3853 30.8095,10.7005 47.1254,10.3865 10.245,-0.1973 26.263,-3.0391 32.0848,-5.3518 -5.7418,10.5267 -23.9547,21.2229 -44.4994,21.5319 -17.8863,0.269 -29.8244,-3.8401 -44.9878,-10.5661 -7.124,-3.1601 -14.845,-7.1901 -22.8452,-10.9658 -12.0796,-5.7014 -25.6247,-10.5361 -36.8102,-9.5831 -2.5259,0.2151 -11.4505,2.4015 -17.3962,5.2282 -9.3271,4.4339 -18.1777,11.031 -22.6057,17.4158 z" />
  <g
     id="Layer1000">
    <path
       id="path45"
       style="fill:#ffffff;fill-rule:evenodd"
       d="m 214.0138,463.5193 72.0844,6.6177 v 1.298 l -72.0844,6.5534 z" />
    <path
       id="path47"
       style="fill:#ffffff;fill-rule:evenodd"
       d="m 380.9392,463.2358 -72.5079,6.6566 v 1.2206 l 72.5079,6.592 z" />
  </g>
  <path
     id="path50"
     style="fill:#ffffff;fill-rule:evenodd"
     d="m 161.3874,469.6217 c 5.3365,-2.4307 10.6453,-4.6789 15.7213,-7.2578 3.7973,-1.929 7.304,-4.396 10.6506,-6.5778 4.3033,-2.8055 8.3455,-5.4216 12.4061,-8.7611 8.1031,-6.6642 16.4534,-14.6316 24.9128,-22.8248 3.7755,-3.657 8.3319,-7.3052 12.1924,-10.7694 4.6596,-4.1814 7.6782,-8.339 13.2438,-11.4494 0.5272,-0.2948 1.2424,0.0958 1.3124,0.6996 0.5896,5.0805 -8.5229,15.7345 -14.3904,23.0184 -4.0141,4.9831 -10.2234,9.2055 -13.4379,14.5939 -0.7123,1.1943 -0.199,2.3295 0.131,2.054 11.9696,-5.7189 20.3765,-10.8916 26.7724,-15.821 5.2517,-4.0473 9.3509,-8.2848 12.763,-11.9083 6.5145,-6.9189 10.5321,-12.7324 15.3062,-18.633 2.846,-3.5178 6.2215,-8.3804 9.1743,-10.4185 0.7356,-0.5074 2.3071,-1.4885 3.2825,-0.938 1.9231,1.0849 1.5818,4.1412 2.7292,5.4009 0.8516,0.9346 2.8069,1.146 3.7565,1.6319 0.9496,0.4858 1.2478,1.421 0.8748,2.3201 -1.6427,3.9572 -3.4552,6.2136 -6.1336,9.7725 -1.6056,2.1331 -3.8747,6.0412 -5.4545,7.9801 -3.721,4.5672 -7.4318,9.686 -10.7393,12.6581 -0.4632,0.4161 1.3246,0.576 1.8777,0.2835 5.9349,-2.0549 11.1353,-6.8111 16.9727,-10.2079 2.283,-1.3286 4.7052,-3.2289 7.3837,-3.7624 1.3754,-0.2738 -1.3059,9.0476 0.2775,9.6545 1.5375,0.5893 4.1193,-0.2985 5.9394,-1.4683 2.1623,-1.3901 3.9946,-3.1635 6.0991,-4.0119 3.5101,-1.4148 7.0798,-0.239 8.4557,3.2973 1.6081,4.1331 -0.5715,7.9925 -2.3403,12.3987 -1.5607,3.8874 -3.7953,7.1039 -6.0996,8.2732 -0.9907,0.5026 0.3527,1.408 1.7745,0.576 6.4446,-2.6085 11.4117,-5.3592 16.009,-8.197 10.8904,-6.7226 17.7488,-13.9699 28.8011,-21.1246 1.078,-0.6979 2.0602,0.273 1.8451,1.1239 -1.5191,6.0103 -4.0249,12.5034 -7.3279,17.7322 -2.9953,4.7412 -7.2601,9.2826 -6.3927,13.0592 0.3668,1.5976 1.1495,1.7566 4.2911,0.4586 2.3213,-0.9589 10.4108,-5.758 13.5355,-4.3007 0.8679,0.4045 1.6038,1.6177 1.483,3.2244 -0.1768,2.3502 -0.9538,3.8206 -1.7229,6.9897 -1.1522,4.7494 2.2955,5.0216 4.4391,5.3923 12.0988,2.094 24.2926,2.6482 36.5267,2.651 9.8215,0.002 19.6735,-0.3093 29.5336,-0.8745 4.1723,-0.239 8.3483,-0.7733 12.5226,-1.0026 2.4352,-0.1338 4.2151,-0.5233 6.421,-0.9346 2.206,-0.4113 4.8405,-0.8464 7.2876,-1.0706 2.1722,-0.199 1.1795,-1.9157 0.2302,-2.0415 -3.3381,-0.4428 -9.7237,-3.8977 -16.8321,-7.21 -5.8899,-2.7445 -12.337,-5.5689 -18.1576,-8.1368 -7.5453,-3.3285 -17.1057,-10.0313 -24.0838,-15.4349 -1.3308,-1.0307 -2.9298,-2.1201 -4.2244,-3.2729 -3.4659,-3.0855 -6.874,-6.6972 -10.2855,-10.1671 -5.8791,-5.9802 -11.7732,-11.8252 -18.0139,-15.8762 -3.0955,-2.0095 -7.0158,-4.5924 -10.1801,-4.5185 -3.4515,0.0805 -6.3482,2.6833 -8.2015,3.403 -1.851,0.7192 -3.5385,0.4768 -5.0224,-0.7738 -4.7472,-4.0003 -6.4556,-6.2711 -12.4821,-9.997 -2.8777,-1.7793 -5.5791,-3.1943 -8.2533,-4.6593 -3.0311,-1.6602 -6.0438,-3.5611 -9.0958,-5.7756 -6.7079,-4.8676 -13.769,-10.2033 -21.5385,-7.433 -6.3091,2.2496 -10.7232,6.1132 -14.3178,10.2169 -4.3382,4.9522 -7.5501,10.1914 -12.3106,12.5195 -2.7184,1.3295 -4.5227,0.2231 -6.5222,-0.585 -2.6142,-1.0562 -5.0015,-2.5691 -7.5884,-2.9265 -1.7688,-0.2447 -3.9195,0.1156 -6.0145,1.6857 -9.9494,7.4552 -17.7787,15.9446 -26.2307,24.8998 -8.0532,8.5332 -15.6637,16.7228 -22.5445,25.0617 -2.8367,3.4376 -5.7558,6.9684 -8.8155,10.256 -2.8862,3.1017 -6.211,5.2884 -9.7279,8.068 -5.8612,4.633 -12.265,9.6622 -18.0887,14.1083 -0.9879,0.754 -1.9633,0.9627 -2.9143,1.5931 -1.2223,0.8104 -2.4103,2.0458 -3.547,3.111 -1.6886,1.5823 1.2469,1.5684 2.097,0.9553 z" />
  <g
     id="Layer1001">
    <path
       id="path52"
       style="fill:#ffffff;fill-rule:evenodd"
       d="m 287.9634,658.728 h -7.7043 v -0.8402 l 5.9426,-11.2858 v -4.2316 h -3.956 v 3.9954 h -1.7365 v -4.1312 c 0,-0.3676 0.127,-0.6735 0.3812,-0.9059 0.2583,-0.2362 0.5888,-0.3521 0.9953,-0.3521 h 4.676 c 0.4065,0 0.7367,0.1159 0.9952,0.3521 0.2543,0.2324 0.381,0.5383 0.381,0.9059 v 3.7673 c 0,0.4529 -0.1522,0.9717 -0.4572,1.5525 l -5.1375,9.7798 h 5.6202 z" />
    <path
       id="path54"
       style="fill:#ffffff;fill-rule:evenodd"
       d="m 298.5857,657.4697 c 0,0.3716 -0.1312,0.6738 -0.3937,0.906 -0.2668,0.2361 -0.6013,0.3523 -1.0083,0.3523 h -5.15 c -0.4025,0 -0.7328,-0.1162 -0.991,-0.3523 -0.2585,-0.2322 -0.3855,-0.5344 -0.3855,-0.906 v -15.2351 c 0,-0.3676 0.127,-0.6735 0.3855,-0.9059 0.2582,-0.2362 0.5885,-0.3521 0.991,-0.3521 h 5.15 c 0.407,0 0.7415,0.1159 1.0083,0.3521 0.2625,0.2324 0.3937,0.5383 0.3937,0.9059 z m -1.7237,-0.1355 v -14.9638 h -4.4811 v 14.9638 z" />
    <path
       id="path56"
       style="fill:#ffffff;fill-rule:evenodd"
       d="m 303.6217,658.728 h -1.7365 V 646.42 h -0.7582 v -0.0542 l 1.0927,-5.3892 h 1.402 z" />
    <path
       id="path58"
       style="fill:#ffffff;fill-rule:evenodd"
       d="m 314.4688,657.4697 c 0,0.3716 -0.1267,0.6738 -0.3767,0.906 -0.2543,0.2361 -0.5845,0.3523 -0.9871,0.3523 h -4.8534 c -0.4026,0 -0.7413,-0.1162 -1.0041,-0.3523 -0.267,-0.2322 -0.398,-0.5344 -0.398,-0.906 v -3.926 h 1.7238 v 3.7905 h 4.1717 v -6.5701 h -4.6037 c -0.4065,0 -0.7328,-0.1163 -0.987,-0.3484 -0.254,-0.2364 -0.3768,-0.5383 -0.3768,-0.9099 v -7.2712 c 0,-0.3676 0.1228,-0.6735 0.3768,-0.9059 0.2542,-0.2362 0.5805,-0.3521 0.987,-0.3521 h 4.9637 c 0.4026,0 0.7328,0.1159 0.9871,0.3521 0.25,0.2324 0.3767,0.5383 0.3767,0.9059 z m -1.7238,-8.0762 v -7.0231 h -4.2437 v 7.0231 z" />
    <path
       id="path60"
       style="fill:#ffffff;fill-rule:evenodd"
       d="m 278.8339,637.2227 h 36.6259 v 0.9572 h -36.6259 z" />
    <path
       id="path62"
       style="fill:#ffffff;fill-rule:evenodd"
       d="m 279.1174,662.1676 h 36.7676 v 0.9572 h -36.7676 z" />
  </g>
  <path
     id="path65"
     style="fill:#1b1918;fill-opacity:0;fill-rule:evenodd"
     d="m 117.2736,283.9068 -0.5759,57.8276 h 363.5422 l 0.5758,-57.8276 z" />
  <g
     id="Layer1002">
    <path
       id="path67"
       style="fill:#ffffff;fill-rule:evenodd"
       d="m 126.2849,306.356 c 0.011,-0.1304 0.0893,-0.2086 0.2117,-0.2477 0.1228,-0.0394 0.2121,0.0261 0.2566,0.1695 l 5.3529,15.3371 c 0.2007,0.639 0.4572,1.1347 0.7583,1.4868 0.301,0.3651 0.6468,0.5477 1.0482,0.5477 h 2.2751 c 0.3566,-0.0131 0.6466,-0.1304 0.881,-0.3521 0.2452,-0.2217 0.4349,-0.4955 0.5797,-0.8084 0.1449,-0.3133 0.2565,-0.6001 0.3456,-0.874 l 5.2191,-14.7112 c 0.0335,-0.0783 0.0669,-0.1174 0.1003,-0.1434 0.0335,-0.0131 0.0669,-0.0131 0.1004,-0.0131 0.1338,0 0.212,0.0522 0.2341,0.1434 0.0335,0.0913 0.0448,0.2087 0.0335,0.326 v 27.8575 c -0.0111,0.4825 0.0224,0.9261 0.1003,1.3303 0.0893,0.4173 0.29,0.7566 0.6245,1.0174 0.3348,0.2477 0.87,0.3781 1.6172,0.3911 h 5.2188 c 0.4128,0.0131 0.7918,-0.026 1.1486,-0.1173 0.3459,-0.0913 0.6356,-0.339 0.8586,-0.7305 0.2118,-0.3912 0.3238,-1.0171 0.3348,-1.891 v -49.2982 c 0.0111,-0.4827 -0.0224,-0.926 -0.1003,-1.3433 -0.0783,-0.4042 -0.2903,-0.7435 -0.6248,-1.0043 -0.3345,-0.2478 -0.8697,-0.3782 -1.6169,-0.3912 h -5.6205 c -0.5238,0.013 -0.9587,0.1434 -1.2934,0.3912 -0.3345,0.2477 -0.6021,0.5349 -0.7918,0.8609 -0.2009,0.3259 -0.3458,0.6128 -0.4572,0.8606 l -7.2261,16.7459 c -0.0448,0.1434 -0.1006,0.2999 -0.1788,0.4955 -0.0669,0.1956 -0.1559,0.3651 -0.2452,0.5216 -0.1004,0.1434 -0.2007,0.2219 -0.3121,0.235 -0.1117,-0.0131 -0.2121,-0.0916 -0.3124,-0.235 -0.1004,-0.1565 -0.1894,-0.339 -0.2676,-0.5477 -0.0782,-0.1956 -0.1562,-0.3781 -0.2231,-0.5476 l -7.2261,-16.9024 c -0.0445,-0.1174 -0.1564,-0.326 -0.3458,-0.6259 -0.1786,-0.2999 -0.4462,-0.5741 -0.7807,-0.8348 -0.3458,-0.2608 -0.7693,-0.4043 -1.2823,-0.4173 h -5.9551 c -0.7472,0.013 -1.2824,0.1434 -1.6169,0.3912 -0.3347,0.2608 -0.5465,0.6001 -0.6244,1.0043 -0.0783,0.4173 -0.1117,0.8606 -0.1004,1.3433 v 49.2982 c 0.0111,0.8739 0.1225,1.4998 0.3456,1.891 0.212,0.3915 0.502,0.6392 0.8586,0.7305 0.3458,0.0913 0.7251,0.1304 1.1375,0.1173 h 5.2189 c 0.4127,0.0131 0.792,-0.026 1.1375,-0.1173 0.3569,-0.0913 0.6469,-0.339 0.87,-0.7305 0.2117,-0.3912 0.3234,-1.0171 0.3345,-1.891 z" />
    <path
       id="path69"
       style="fill:#ffffff;fill-rule:evenodd"
       d="m 174.4773,283.0371 c -0.3121,-0.013 -0.6132,0.0261 -0.9032,0.1174 -0.2789,0.0912 -0.5354,0.2868 -0.7582,0.5998 -0.2342,0.3132 -0.4128,0.8087 -0.5465,1.4737 l -10.3043,50.2373 c -0.0558,0.248 -0.0893,0.561 -0.1114,0.9261 -0.0113,0.3651 0.0669,0.678 0.2455,0.9652 0.1673,0.2868 0.5017,0.4433 1.0035,0.4563 h 6.4905 c 0.4793,-0.013 0.8583,-0.1173 1.1259,-0.339 0.2679,-0.2086 0.4575,-0.4566 0.58,-0.7565 0.1116,-0.3 0.2006,-0.5868 0.2341,-0.8606 l 1.2713,-6.1821 c 0.0783,-0.3521 0.2342,-0.639 0.4683,-0.8476 0.2455,-0.2086 0.5355,-0.326 0.87,-0.326 h 9.1666 c 0.279,-0.026 0.5355,0.0392 0.7697,0.1695 0.2452,0.1435 0.4348,0.4695 0.5686,1.0041 l 1.3382,5.9473 c 0.0559,0.3 0.1452,0.6129 0.2676,0.9519 0.1228,0.339 0.3234,0.6262 0.6021,0.8609 0.2786,0.2347 0.6803,0.3651 1.2044,0.3781 h 6.5571 c 0.6135,-0.013 1.0148,-0.1695 1.2045,-0.4694 0.2007,-0.3002 0.29,-0.6261 0.2678,-0.9912 -0.0337,-0.3652 -0.0785,-0.6651 -0.134,-0.887 L 185.116,285.228 c -0.1559,-0.665 -0.3456,-1.1605 -0.5576,-1.4737 -0.2118,-0.313 -0.4572,-0.5086 -0.7359,-0.5998 -0.2786,-0.0913 -0.5799,-0.1304 -0.9144,-0.1174 z m 1.4723,34.9784 c -0.2345,-0.013 -0.3906,-0.0913 -0.4686,-0.235 -0.0669,-0.1434 -0.0893,-0.3129 -0.0669,-0.4955 0.0111,-0.1825 0.0335,-0.326 0.0669,-0.4433 l 2.6096,-13.8507 c 0.0669,-0.2738 0.1338,-0.4694 0.2117,-0.5998 0.0669,-0.1173 0.1562,-0.1825 0.2566,-0.1825 0.1003,0 0.1896,0.0652 0.2565,0.1825 0.078,0.1304 0.1449,0.326 0.2117,0.5998 l 2.9441,13.8507 c 0.0335,0.1173 0.0559,0.2608 0.0669,0.4433 0.0224,0.1826 0,0.3521 -0.0669,0.4955 -0.0779,0.1437 -0.2341,0.222 -0.4683,0.235 z" />
    <path
       id="path71"
       style="fill:#ffffff;fill-rule:evenodd"
       d="m 206.2845,283.0371 c -0.3458,0 -0.6358,0.0913 -0.881,0.2738 -0.2452,0.1826 -0.4014,0.4434 -0.4685,0.7827 -0.078,0.339 -0.0221,0.7432 0.1451,1.2126 l 7.9622,21.3628 c 0.1117,0.2999 0.2007,0.5476 0.2676,0.7563 0.0669,0.1958 0.0783,0.4305 0.0448,0.6783 -0.0334,0.2608 -0.1338,0.6128 -0.3124,1.0695 l -10.3039,25.9792 c -0.1562,0.4303 -0.2455,0.8479 -0.2455,1.2521 0,0.4042 0.0893,0.7305 0.29,0.9913 0.2007,0.2738 0.5128,0.4042 0.9592,0.4172 h 7.1592 c 0.5465,-0.013 0.9924,-0.1564 1.3159,-0.4303 0.3234,-0.2738 0.5689,-0.6 0.7361,-0.9652 0.1783,-0.352 0.3232,-0.678 0.4235,-0.9521 l 5.0185,-12.7548 c 0.0669,-0.1695 0.1224,-0.326 0.1783,-0.4827 0.0558,-0.1565 0.1227,-0.2478 0.2228,-0.2999 0.0672,0 0.1341,0 0.201,0 0.1003,0.0521 0.2006,0.1434 0.2899,0.2868 0.078,0.1307 0.1449,0.2481 0.1783,0.3393 l 5.4199,13.1463 c 0.2676,0.665 0.5241,1.1474 0.7806,1.4476 0.2452,0.2999 0.5128,0.4955 0.7807,0.5738 0.2786,0.0652 0.5797,0.1043 0.9142,0.0912 h 6.825 c 0.6689,-0.026 1.0817,-0.2738 1.2378,-0.7696 0.1673,-0.4824 0.1114,-1.0822 -0.1672,-1.8127 L 225.22,309.0163 c -0.1117,-0.2868 -0.2007,-0.5867 -0.279,-0.8997 -0.0669,-0.326 -0.0445,-0.6261 0.0783,-0.9 l 8.8988,-21.6754 c 0.3013,-0.7565 0.3348,-1.3563 0.123,-1.813 -0.212,-0.4433 -0.6582,-0.6781 -1.3275,-0.6911 h -7.0922 c -0.5687,0.013 -1.0035,0.1565 -1.3269,0.4303 -0.3235,0.2738 -0.5466,0.574 -0.6804,0.9 l -4.0147,9.703 c -0.0334,0.1304 -0.1003,0.2611 -0.1783,0.4045 -0.0893,0.1304 -0.1896,0.2086 -0.29,0.2217 -0.1559,-0.0131 -0.2786,-0.1043 -0.3458,-0.2739 -0.0669,-0.1698 -0.1338,-0.3393 -0.1893,-0.5088 l -3.2786,-8.9206 c -0.3124,-0.7693 -0.6916,-1.2912 -1.1265,-1.565 -0.4461,-0.2738 -0.8696,-0.4042 -1.2824,-0.3912 z" />
    <path
       id="path73"
       style="fill:#ffffff;fill-rule:evenodd"
       d="m 254.4097,283.0371 c -0.3121,-0.013 -0.6131,0.0261 -0.9031,0.1174 -0.2789,0.0912 -0.5355,0.2868 -0.7583,0.5998 -0.2341,0.3132 -0.4127,0.8087 -0.5465,1.4737 l -10.3042,50.2373 c -0.0558,0.248 -0.0893,0.561 -0.1114,0.9261 -0.0113,0.3651 0.0669,0.678 0.2455,0.9652 0.1672,0.2868 0.5017,0.4433 1.0034,0.4563 h 6.4905 c 0.4794,-0.013 0.8584,-0.1173 1.126,-0.339 0.2678,-0.2086 0.4575,-0.4566 0.5799,-0.7565 0.1117,-0.3 0.2007,-0.5868 0.2342,-0.8606 l 1.2713,-6.1821 c 0.0782,-0.3521 0.2341,-0.639 0.4683,-0.8476 0.2455,-0.2086 0.5355,-0.326 0.8699,-0.326 h 9.1667 c 0.279,-0.026 0.5355,0.0392 0.7696,0.1695 0.2452,0.1435 0.4349,0.4695 0.5687,1.0041 l 1.3382,5.9473 c 0.0558,0.3 0.1451,0.6129 0.2676,0.9519 0.1227,0.339 0.3234,0.6262 0.6021,0.8609 0.2786,0.2347 0.6803,0.3651 1.2044,0.3781 h 6.5571 c 0.6134,-0.013 1.0148,-0.1695 1.2044,-0.4694 0.2007,-0.3002 0.29,-0.6261 0.2679,-0.9912 -0.0337,-0.3652 -0.0785,-0.6651 -0.1341,-0.887 L 265.0484,285.228 c -0.1559,-0.665 -0.3455,-1.1605 -0.5575,-1.4737 -0.2118,-0.313 -0.4573,-0.5086 -0.7359,-0.5998 -0.2787,-0.0913 -0.58,-0.1304 -0.9145,-0.1174 z m 1.4723,34.9784 c -0.2344,-0.013 -0.3906,-0.0913 -0.4685,-0.235 -0.0669,-0.1434 -0.0893,-0.3129 -0.0669,-0.4955 0.011,-0.1825 0.0334,-0.326 0.0669,-0.4433 l 2.6096,-13.8507 c 0.0669,-0.2738 0.1338,-0.4694 0.2117,-0.5998 0.0669,-0.1173 0.1562,-0.1825 0.2565,-0.1825 0.1004,0 0.1897,0.0652 0.2566,0.1825 0.0779,0.1304 0.1448,0.326 0.2117,0.5998 l 2.9441,13.8507 c 0.0334,0.1173 0.0558,0.2608 0.0669,0.4433 0.0224,0.1826 0,0.3521 -0.0669,0.4955 -0.078,0.1437 -0.2342,0.222 -0.4683,0.235 z" />
    <path
       id="path75"
       style="fill:#ffffff;fill-rule:evenodd"
       d="m 283.6001,307.0602 c 0.0221,2.7649 0.3455,5.0343 0.981,6.821 0.6469,1.7736 1.4834,3.1561 2.5314,4.1473 1.0482,0.991 2.1858,1.6824 3.4347,2.0866 1.2379,0.3912 2.4647,0.5738 3.6913,0.5607 1.0372,-0.013 1.9516,-0.1173 2.7544,-0.3129 0.8031,-0.1826 1.4831,-0.4173 2.052,-0.665 0.5797,-0.2608 1.0372,-0.4828 1.3938,-0.6784 0.3569,-0.1825 0.6134,-0.2868 0.7586,-0.2999 0.223,0.0131 0.3455,0.0913 0.379,0.2478 0.0223,0.1564 0.0334,0.326 0.0223,0.5349 v 15.5718 c -0.011,0.4825 0.0224,0.9261 0.1004,1.3303 0.0779,0.4173 0.29,0.7566 0.6245,1.0174 0.3345,0.2477 0.8696,0.3781 1.6171,0.3911 h 5.2189 c 0.4124,0.0131 0.7914,-0.026 1.1375,-0.1173 0.3566,-0.0913 0.6466,-0.339 0.8697,-0.7305 0.212,-0.3912 0.3234,-1.0171 0.3345,-1.891 v -49.2982 c 0.0113,-0.4827 -0.0221,-0.926 -0.1003,-1.3433 -0.078,-0.4042 -0.29,-0.7435 -0.6245,-1.0043 -0.3345,-0.2478 -0.87,-0.3782 -1.6169,-0.3912 h -5.2189 c -0.7475,0.013 -1.2826,0.1434 -1.6171,0.3912 -0.3345,0.2608 -0.5466,0.6001 -0.6245,1.0043 -0.078,0.4173 -0.1114,0.8606 -0.1004,1.3433 v 17.6848 c 0.0111,0.6259 -0.0223,1.2912 -0.1114,1.9953 -0.0782,0.7175 -0.2454,1.3955 -0.5133,2.0475 -0.2676,0.6392 -0.669,1.1738 -1.2042,1.5783 -0.5465,0.4173 -1.2713,0.6259 -2.1855,0.639 -0.6358,0.013 -1.2713,-0.1174 -1.8961,-0.4043 -0.6131,-0.2868 -1.1262,-0.8348 -1.5389,-1.6171 -0.4124,-0.7827 -0.6355,-1.9043 -0.6469,-3.3781 v -18.5454 c 0.0114,-0.4827 -0.0221,-0.926 -0.1003,-1.3433 -0.078,-0.4042 -0.2897,-0.7435 -0.6242,-1.0043 -0.3345,-0.2478 -0.87,-0.3782 -1.6172,-0.3912 h -5.2191 c -0.7469,0.013 -1.2824,0.1434 -1.6169,0.3912 -0.3345,0.2608 -0.5462,0.6001 -0.6242,1.0043 -0.0782,0.4173 -0.1117,0.8606 -0.1003,1.3433 z" />
    <path
       id="path77"
       style="fill:#ffffff;fill-rule:evenodd"
       d="m 321.9565,335.0741 c 0.0111,0.8739 0.1225,1.4998 0.3455,1.891 0.2121,0.3915 0.5021,0.6392 0.8587,0.7305 0.3458,0.0913 0.7251,0.1304 1.1375,0.1173 h 5.2189 c 0.4127,0.0131 0.792,-0.026 1.1375,-0.1173 0.3569,-0.0913 0.6469,-0.339 0.87,-0.7305 0.2117,-0.3912 0.3234,-1.0171 0.3345,-1.891 v -19.4063 c 0.011,-0.3259 0.0892,-0.6128 0.2452,-0.8608 0.1672,-0.2478 0.3458,-0.3782 0.5578,-0.3912 h 3.2786 c 0.4127,-0.0131 0.9144,0.0391 1.5052,0.1825 0.5799,0.1435 1.1599,0.4697 1.7399,0.9652 0.5796,0.4955 1.0593,1.2651 1.4385,2.3216 0.3901,1.0432 0.5908,2.4778 0.6021,4.2775 v 12.9115 c -0.0113,0.4825 0.0221,0.9261 0.1004,1.3303 0.0782,0.4173 0.29,0.7566 0.6244,1.0174 0.3345,0.2477 0.87,0.3781 1.6169,0.3911 h 5.2192 c 0.7472,-0.013 1.2824,-0.1434 1.6171,-0.3911 0.3345,-0.2608 0.5463,-0.6001 0.6242,-1.0174 0.0783,-0.4042 0.1117,-0.8478 0.1004,-1.3303 v -16.6674 c -0.0111,-1.7345 -0.1894,-3.1431 -0.5239,-4.2256 -0.3345,-1.0826 -0.7475,-1.9301 -1.2602,-2.5563 -0.5131,-0.6129 -1.0372,-1.0953 -1.5724,-1.4346 -0.5355,-0.3521 -1.0038,-0.652 -1.4165,-0.9128 -0.4235,-0.2741 -0.7024,-0.587 -0.8473,-0.9652 0,-0.0391 -0.011,-0.0913 -0.0224,-0.1565 -0.011,-0.0651 -0.011,-0.1173 0.0224,-0.1564 0.1338,-0.2999 0.379,-0.561 0.7359,-0.7827 0.3569,-0.2347 0.7362,-0.5346 1.1486,-0.9127 0.4127,-0.3785 0.7585,-0.9391 1.0596,-1.6824 0.301,-0.7435 0.4569,-1.7869 0.4683,-3.1172 v -6.4166 c -0.0114,-0.3781 0.0221,-0.7954 0.0893,-1.239 0.0558,-0.4433 0.2007,-0.8345 0.4013,-1.1477 0.2118,-0.326 0.5463,-0.4955 0.9814,-0.5086 h 1.3382 c 0.1004,0.0131 0.2676,-0.026 0.5018,-0.0912 0.2341,-0.0652 0.4459,-0.2478 0.6468,-0.5216 0.2007,-0.2872 0.3124,-0.7305 0.3235,-1.3433 v -4.9301 c 0,-0.4955 -0.1004,-0.9127 -0.3011,-1.2517 -0.1899,-0.3394 -0.4461,-0.5871 -0.7585,-0.7566 -0.3121,-0.1695 -0.6466,-0.2608 -1.0148,-0.2608 h -4.4827 c -1.3493,0 -2.5538,0.3521 -3.6244,1.0304 -1.0593,0.6911 -1.9072,1.7215 -2.5203,3.0909 -0.6134,1.3694 -0.9368,3.0779 -0.9479,5.1123 v 5.7906 c -0.0111,1.5259 -0.1896,2.6997 -0.5462,3.5342 -0.3572,0.8348 -0.8031,1.4086 -1.3383,1.7218 -0.5354,0.3129 -1.093,0.4694 -1.6616,0.4564 h -3.2117 c -0.3013,0 -0.5244,-0.0652 -0.6582,-0.1826 -0.1338,-0.1173 -0.2117,-0.2477 -0.2452,-0.4172 -0.0334,-0.1698 -0.0445,-0.3393 -0.0334,-0.4958 v -16.9022 c 0.011,-0.4827 -0.0224,-0.926 -0.1004,-1.3433 -0.0779,-0.4042 -0.29,-0.7435 -0.6245,-1.0043 -0.3345,-0.2478 -0.8696,-0.3782 -1.6171,-0.3912 h -5.2189 c -0.7472,0.013 -1.2824,0.1434 -1.6169,0.3912 -0.3347,0.2608 -0.5465,0.6001 -0.6244,1.0043 -0.0783,0.4173 -0.1117,0.8606 -0.1004,1.3433 z" />
    <path
       id="path79"
       style="fill:#ffffff;fill-rule:evenodd"
       d="m 372.5651,283.0371 c -0.3121,-0.013 -0.6131,0.0261 -0.9031,0.1174 -0.2789,0.0912 -0.5354,0.2868 -0.7583,0.5998 -0.2341,0.3132 -0.4127,0.8087 -0.5465,1.4737 l -10.3042,50.2373 c -0.0558,0.248 -0.0893,0.561 -0.1114,0.9261 -0.0113,0.3651 0.0669,0.678 0.2455,0.9652 0.1672,0.2868 0.5017,0.4433 1.0035,0.4563 h 6.4904 c 0.4794,-0.013 0.8584,-0.1173 1.126,-0.339 0.2678,-0.2086 0.4575,-0.4566 0.5799,-0.7565 0.1117,-0.3 0.2007,-0.5868 0.2342,-0.8606 l 1.2713,-6.1821 c 0.0782,-0.3521 0.2342,-0.639 0.4683,-0.8476 0.2455,-0.2086 0.5355,-0.326 0.8699,-0.326 h 9.1667 c 0.279,-0.026 0.5355,0.0392 0.7696,0.1695 0.2452,0.1435 0.4349,0.4695 0.5687,1.0041 l 1.3382,5.9473 c 0.0558,0.3 0.1451,0.6129 0.2676,0.9519 0.1227,0.339 0.3234,0.6262 0.6021,0.8609 0.2786,0.2347 0.6803,0.3651 1.2044,0.3781 h 6.5571 c 0.6134,-0.013 1.0148,-0.1695 1.2044,-0.4694 0.2007,-0.3002 0.29,-0.6261 0.2679,-0.9912 -0.0337,-0.3652 -0.0785,-0.6651 -0.1341,-0.887 L 383.2038,285.228 c -0.1559,-0.665 -0.3455,-1.1605 -0.5575,-1.4737 -0.2118,-0.313 -0.4573,-0.5086 -0.7359,-0.5998 -0.2787,-0.0913 -0.58,-0.1304 -0.9145,-0.1174 z m 1.4723,34.9784 c -0.2344,-0.013 -0.3906,-0.0913 -0.4685,-0.235 -0.0669,-0.1434 -0.0893,-0.3129 -0.0669,-0.4955 0.011,-0.1825 0.0334,-0.326 0.0669,-0.4433 l 2.6096,-13.8507 c 0.0669,-0.2738 0.1338,-0.4694 0.2117,-0.5998 0.0669,-0.1173 0.1562,-0.1825 0.2565,-0.1825 0.1004,0 0.1897,0.0652 0.2566,0.1825 0.0779,0.1304 0.1448,0.326 0.2117,0.5998 l 2.9441,13.8507 c 0.0334,0.1173 0.0558,0.2608 0.0669,0.4433 0.0224,0.1826 0,0.3521 -0.0669,0.4955 -0.078,0.1437 -0.2342,0.222 -0.4683,0.235 z" />
    <path
       id="path81"
       style="fill:#ffffff;fill-rule:evenodd"
       d="m 409.8512,283.0371 c -0.7472,0.013 -1.2824,0.1434 -1.6169,0.3912 -0.3345,0.2608 -0.5352,0.6001 -0.6244,1.0043 -0.078,0.4173 -0.1114,0.8606 -0.1004,1.3433 l -0.0669,12.5201 c -0.011,4.1083 -0.0558,7.6686 -0.1003,10.6812 -0.0559,3.013 -0.1338,5.569 -0.2342,7.6558 -0.1114,2.0866 -0.2452,3.7951 -0.4124,5.1254 -0.1675,1.3172 -0.3796,2.3607 -0.6358,3.0909 -0.2566,0.7435 -0.5576,1.2651 -0.9034,1.591 -0.3456,0.3133 -0.7583,0.5089 -1.2155,0.5741 -0.4683,0.0652 -0.9924,0.0912 -1.5835,0.0782 h -0.6689 c -0.502,0 -0.87,0.0782 -1.1041,0.2347 -0.2234,0.1565 -0.3682,0.3651 -0.4241,0.6259 -0.0555,0.2608 -0.089,0.5479 -0.0779,0.8609 v 6.7294 c -0.0111,0.7175 0.1227,1.2651 0.3903,1.6436 0.2789,0.3781 0.7359,0.6258 1.4051,0.7562 0.669,0.1304 1.5835,0.1956 2.7544,0.1826 2.3086,-0.013 4.2265,-0.4564 5.743,-1.3303 1.5169,-0.8736 2.7324,-2.1127 3.6355,-3.7038 0.9034,-1.591 1.5726,-3.4823 2.0185,-5.6471 0.4349,-2.1649 0.7359,-4.5516 0.881,-7.1601 0.1562,-2.6084 0.2455,-5.347 0.2566,-8.2423 0.0224,-2.8953 0.0558,-5.8558 0.1114,-8.8945 l 0.2007,-9.1556 c 0.0113,-0.313 0.0782,-0.5347 0.2007,-0.6651 0.1227,-0.1303 0.2454,-0.2086 0.3906,-0.2477 0.1338,-0.0261 0.2228,-0.0391 0.2786,-0.0261 h 5.7541 c 0.3126,-0.013 0.5913,0.0522 0.8254,0.2087 0.2452,0.1434 0.3679,0.4694 0.379,0.9649 v 40.8472 c -0.0111,0.4825 0.0224,0.9261 0.1003,1.3303 0.0893,0.4173 0.2903,0.7566 0.6248,1.0174 0.3345,0.2477 0.8697,0.3781 1.6169,0.3911 h 5.2189 c 0.7472,-0.013 1.2823,-0.1434 1.6171,-0.3911 0.3345,-0.2608 0.5463,-0.6001 0.6245,-1.0174 0.0779,-0.4042 0.1114,-0.8478 0.1003,-1.3303 v -49.2982 c 0.0111,-0.4827 -0.0224,-0.926 -0.1003,-1.3433 -0.0782,-0.4042 -0.29,-0.7435 -0.6245,-1.0043 -0.3348,-0.2478 -0.8699,-0.3782 -1.6171,-0.3912 z" />
    <path
       id="path83"
       style="fill:#ffffff;fill-rule:evenodd"
       d="m 456.103,283.0371 c -0.3121,-0.013 -0.6131,0.0261 -0.9031,0.1174 -0.279,0.0912 -0.5355,0.2868 -0.7583,0.5998 -0.2341,0.3132 -0.4127,0.8087 -0.5465,1.4737 l -10.3042,50.2373 c -0.0559,0.248 -0.0893,0.561 -0.1114,0.9261 -0.0114,0.3651 0.0669,0.678 0.2454,0.9652 0.1673,0.2868 0.5018,0.4433 1.0035,0.4563 h 6.4905 c 0.4793,-0.013 0.8583,-0.1173 1.1259,-0.339 0.2679,-0.2086 0.4575,-0.4566 0.58,-0.7565 0.1117,-0.3 0.2007,-0.5868 0.2341,-0.8606 l 1.2714,-6.1821 c 0.0782,-0.3521 0.2341,-0.639 0.4683,-0.8476 0.2454,-0.2086 0.5354,-0.326 0.8699,-0.326 h 9.1667 c 0.2789,-0.026 0.5354,0.0392 0.7696,0.1695 0.2452,0.1435 0.4348,0.4695 0.5686,1.0041 l 1.3383,5.9473 c 0.0558,0.3 0.1451,0.6129 0.2675,0.9519 0.1228,0.339 0.3235,0.6262 0.6021,0.8609 0.2787,0.2347 0.6803,0.3651 1.2045,0.3781 h 6.5571 c 0.6134,-0.013 1.0148,-0.1695 1.2044,-0.4694 0.2007,-0.3002 0.29,-0.6261 0.2679,-0.9912 -0.0338,-0.3652 -0.0785,-0.6651 -0.1341,-0.887 L 466.7417,285.228 c -0.1559,-0.665 -0.3455,-1.1605 -0.5576,-1.4737 -0.2117,-0.313 -0.4572,-0.5086 -0.7358,-0.5998 -0.2787,-0.0913 -0.58,-0.1304 -0.9145,-0.1174 z m 1.4723,34.9784 c -0.2344,-0.013 -0.3906,-0.0913 -0.4686,-0.235 -0.0669,-0.1434 -0.0893,-0.3129 -0.0669,-0.4955 0.0111,-0.1825 0.0335,-0.326 0.0669,-0.4433 l 2.6096,-13.8507 c 0.0669,-0.2738 0.1338,-0.4694 0.2118,-0.5998 0.0669,-0.1173 0.1562,-0.1825 0.2565,-0.1825 0.1003,0 0.1896,0.0652 0.2565,0.1825 0.078,0.1304 0.1449,0.326 0.2118,0.5998 l 2.944,13.8507 c 0.0335,0.1173 0.0559,0.2608 0.0669,0.4433 0.0224,0.1826 0,0.3521 -0.0669,0.4955 -0.0779,0.1437 -0.2341,0.222 -0.4682,0.235 z" />
  </g>
  <g
     id="Layer1003">
    <path
       id="path86"
       style="fill:#ffffff;fill-rule:evenodd"
       d="m 223.1266,265.6518 v -10.0471 h -2.7414 v 10.0471 h -2.2708 v -11.8731 h 7.2827 v 11.8731 z" />
    <path
       id="path88"
       style="fill:#ffffff;fill-rule:evenodd"
       d="m 238.3075,259.6153 c 0,0.5113 -0.008,1.3067 -0.0232,1.8175 -0.0153,0.5107 -0.0632,0.9986 -0.1412,1.4591 -0.3509,2.0755 -1.4953,3.0101 -3.6879,3.0101 -2.457,0 -3.4999,-1.5168 -3.6725,-3.7439 -0.057,-0.7386 -0.0862,-1.7536 -0.0862,-2.4761 0,-0.5004 0.0108,-1.2875 0.0315,-1.7926 0.1023,-2.4844 0.9331,-4.3608 3.7896,-4.3608 2.8222,0 3.6553,1.8539 3.7587,4.3108 0.0207,0.4941 0.0312,1.2756 0.0312,1.7759 z m -2.3176,0.2332 c 0,-0.7225 -0.0108,-1.6539 -0.0314,-2.2259 -0.0352,-0.9716 -0.1197,-2.3932 -1.4565,-2.3932 -1.2971,0 -1.4187,1.3431 -1.4641,2.3014 -0.0258,0.5443 -0.0391,1.4397 -0.0391,2.1178 0,0.7002 0.0221,1.615 0.0391,2.1761 0.0397,1.3015 0.3084,2.3764 1.4485,2.3764 1.2776,0 1.4018,-1.2369 1.4565,-2.1929 0.0309,-0.5387 0.047,-1.4482 0.047,-2.1597 z" />
    <path
       id="path90"
       style="fill:#ffffff;fill-rule:evenodd"
       d="m 213.0627,261.1854 c -0.0156,0.5729 -0.0524,1.1404 -0.1479,1.7064 -0.3504,2.0753 -1.3536,2.8684 -3.5462,2.8684 -2.457,0 -3.3587,-1.3751 -3.5308,-3.602 -0.057,-0.7381 -0.0862,-1.7538 -0.0862,-2.4763 0,-0.5003 0.0108,-1.2878 0.0315,-1.7926 0.102,-2.4843 0.7914,-4.3606 3.6479,-4.3606 2.732,0 3.4679,1.5962 3.4639,4.0777 h -2.3068 c -0.0337,-0.9706 0.1568,-2.5186 -1.1727,-2.5186 -1.2971,0 -1.2773,1.4851 -1.3224,2.4429 -0.0255,0.5442 -0.0391,1.4397 -0.0391,2.118 0,0.7002 0.0224,1.6152 0.0391,2.1759 0.0394,1.3014 0.1667,2.2348 1.3068,2.2348 1.2776,0 1.2603,-1.0958 1.3147,-2.0511 0.0125,-0.2237 0.0235,-0.512 0.0312,-0.8229 z" />
    <path
       id="path92"
       style="fill:#ffffff;fill-rule:evenodd"
       d="m 259.255,255.6546 v 9.9972 h -2.2553 v -9.9972 h -2.4896 v -1.8759 h 7.2037 v 1.8759 z" />
    <path
       id="path94"
       style="fill:#ffffff;fill-rule:evenodd"
       d="m 271.4751,265.6518 v -5.8699 c 0,-0.3334 0.008,-0.6531 0.0236,-0.9588 0.0156,-0.3058 0.0391,-0.5698 0.0706,-0.792 l -2.7876,7.6207 h -2.4276 v -11.8731 h 2.2708 v 5.6531 c 0,0.2891 -0.005,0.6197 -0.0156,0.9922 -0.0105,0.3724 -0.0261,0.692 -0.047,0.9588 l 2.7564,-7.6041 h 2.427 v 11.8731 z" />
    <path
       id="path96"
       style="fill:#ffffff;fill-rule:evenodd"
       d="m 286.0894,262.2665 c 0,0.6562 -0.0966,1.2036 -0.2897,1.6427 -0.1933,0.439 -0.4566,0.7866 -0.7908,1.0421 -0.3342,0.2558 -0.7314,0.4368 -1.1903,0.5421 -0.4589,0.105 -0.9612,0.1584 -1.5035,0.1584 h -3.0827 v -11.8731 h 3.1612 c 0.4907,0 0.9394,0.0528 1.3468,0.1584 0.4073,0.1056 0.7594,0.275 1.0573,0.5085 0.2974,0.2335 0.5295,0.5393 0.6968,0.9174 0.1669,0.3777 0.2505,0.8447 0.2505,1.4007 0,0.6448 -0.1386,1.2033 -0.415,1.676 -0.2769,0.4723 -0.7129,0.7863 -1.3079,0.9421 1.3785,0.3002 2.0673,1.2618 2.0673,2.8847 z m -2.5996,-5.186 c 0,-0.3558 -0.0496,-0.6364 -0.1488,-0.842 -0.099,-0.2058 -0.2376,-0.3586 -0.4147,-0.4588 -0.1778,-0.0999 -0.3841,-0.1643 -0.6188,-0.1917 -0.2342,-0.0274 -0.4941,-0.0418 -0.7753,-0.0418 h -0.0604 v 3.1018 h 0.076 c 0.2613,0 0.5122,-0.0116 0.7517,-0.0333 0.2398,-0.022 0.4465,-0.0861 0.6185,-0.1917 0.1724,-0.1056 0.311,-0.2643 0.415,-0.4755 0.1046,-0.2112 0.1568,-0.5003 0.1568,-0.867 z m 0.282,5.0028 c 0,-0.6892 -0.1519,-1.1624 -0.4544,-1.4177 -0.3021,-0.2552 -0.7574,-0.3834 -1.3623,-0.3834 h -0.4833 v 3.6019 h 0.4833 c 0.2818,0 0.5355,-0.0283 0.7594,-0.0833 0.224,-0.0554 0.4153,-0.15 0.5718,-0.2835 0.1567,-0.1333 0.2766,-0.3168 0.3603,-0.5503 0.0836,-0.2335 0.1252,-0.528 0.1252,-0.8837 z" />
    <path
       id="path98"
       style="fill:#ffffff;fill-rule:evenodd"
       d="m 296.4169,265.6518 v -5.1112 h -3.0248 v 5.1112 h -2.2709 v -11.8731 h 2.2709 v 4.8693 h 3.0248 v -4.8693 h 2.2706 v 11.8731 z" />
    <path
       id="path100"
       style="fill:#ffffff;fill-rule:evenodd"
       d="m 312.3193,265.6518 v -11.8731 h 2.2705 v 11.8731 z m -1.0503,-3.6103 c 0,2.3779 -1.2971,3.6103 -3.4443,3.6103 h -3.8863 v -11.8731 h 2.2708 v 4.7524 h 1.6155 c 2.1186,0 3.4443,1.1254 3.4443,3.5104 z m -2.302,0.0166 c 0,-1.2239 -0.6052,-1.7093 -1.6435,-1.7093 h -1.1299 v 3.4853 h 1.0673 c 1.214,0 1.7061,-0.4492 1.7061,-1.776 z" />
    <path
       id="path102"
       style="fill:#ffffff;fill-rule:evenodd"
       d="m 250.8911,257.2475 c 0,-2.3779 -1.2974,-3.4686 -3.4444,-3.4686 h -3.8863 v 11.873 h 2.2708 v -5.0358 h 1.6155 c 2.1186,0 3.4444,-0.9837 3.4444,-3.3686 z m -2.302,-0.0167 c 0,1.2239 -0.6058,1.5676 -1.6436,1.5676 h -1.1298 v -3.2018 h 1.0672 c 1.2141,0 1.7062,0.3075 1.7062,1.6342 z" />
    <path
       id="path104"
       style="fill:#ffffff;fill-rule:evenodd"
       d="m 326.4216,250.5019 c -0.0433,1.0737 -0.9379,2.3262 -2.601,2.3262 -1.7008,0 -2.6479,-1.2556 -2.6014,-2.3262 h 0.9233 c 0.3004,0.8834 0.8668,1.1172 1.6781,1.1172 0.8112,0 1.4371,-0.2939 1.6778,-1.1172 z m -1.1605,15.1499 v -6.4368 c 0,-0.3335 0.008,-0.6531 0.0236,-0.9589 0.0156,-0.3057 0.0391,-0.5697 0.0705,-0.7919 l -3.071,8.1876 h -2.4276 v -11.8731 h 2.2708 v 6.0783 c 0,0.2883 -0.006,0.6203 -0.0156,0.9922 -0.01,0.3721 -0.026,0.692 -0.047,0.9588 l 3.0399,-8.0293 h 2.427 v 11.8731 z" />
    <path
       id="path106"
       style="fill:#ffffff;fill-rule:evenodd"
       d="m 348.5432,265.6518 -2.4437,-4.836 -0.6883,1.0173 v 3.8187 h -2.2082 v -11.8731 h 2.2082 v 4.7442 l 2.8814,-4.7442 h 2.4432 l -3.1799,4.9444 3.5399,6.9287 z" />
    <path
       id="path108"
       style="fill:#ffffff;fill-rule:evenodd"
       d="m 359.8359,265.6518 v -10.0471 h -2.3522 l 0.01,7.1582 c 0.001,0.8126 -0.1695,1.7341 -0.7988,2.3101 -0.3773,0.3453 -1.0119,0.5669 -1.6186,0.5669 -0.3642,0 -0.7336,-0.0169 -0.9708,-0.005 v -1.9261 c 0.8566,0.142 1.3257,-0.266 1.3289,-1.1246 l 0.0306,-8.8057 h 6.6421 v 11.8731 z" />
    <path
       id="path110"
       style="fill:#ffffff;fill-rule:evenodd"
       d="m 369.2849,253.7787 1.9278,6.0323 1.5818,-6.0323 h 2.3802 l -2.6776,8.5381 c -0.1879,0.6225 -0.3736,1.148 -0.5562,1.5757 -0.1196,0.2812 -0.2899,0.6096 -0.4974,0.9044 -0.3022,0.43 -0.7268,0.7693 -1.2603,0.856 -0.4717,0.0765 -1.1982,0.0274 -1.772,-0.001 v -1.9595 l 0.6466,0.005 c 0.3654,0.003 0.6381,-0.0643 0.8099,-0.2549 0.2415,-0.2685 0.3486,-0.8739 0.4223,-1.0616 l -3.4795,-8.6019 z" />
    <path
       id="path112"
       style="fill:#ffffff;fill-rule:evenodd"
       d="m 386.5391,261.9873 c 0,2.4541 -1.3623,3.6645 -3.7429,3.6645 h -3.3193 v -11.8731 h 6.3887 v 1.826 h -4.1335 v 2.8683 h 1.2365 c 2.3113,0 3.5705,1.1307 3.5705,3.5143 z m -2.302,-0.0167 c 0,-1.2287 -0.5043,-1.6633 -1.7144,-1.6633 h -0.7906 v 3.5101 h 0.7276 c 1.3476,0 1.7774,-0.5147 1.7774,-1.8468 z" />
  </g>
  <path
     id="path115"
     style="fill:#ffffff;fill-rule:evenodd"
     d="m 297.6015,190.2033 c 13.1777,0 23.8646,10.6869 23.8646,23.8646 0,13.1777 -10.6869,23.8646 -23.8646,23.8646 -13.1777,0 -23.8646,-10.6869 -23.8646,-23.8646 0,-13.1777 10.6869,-23.8646 23.8646,-23.8646 z m -0.3929,6.1594 c 0.1035,2.3922 -0.2083,4.9258 -0.4382,7.3055 -2.4678,1.2744 -5.0414,2.6917 -7.346,4.2567 l -6.6676,-2.933 c 0.0141,-2.5486 0.4793,-5.1993 1.8666,-7.255 1.5874,-1.5284 3.8534,-2.9596 6.0157,-3.3749 2.2651,-0.1077 4.5799,0.7747 6.5695,2.0007 z m 0.3929,-4.7421 c 3.9546,0 7.6689,1.0239 10.8964,2.8199 -0.2702,0.3963 -0.5397,0.7915 -0.8096,1.1829 -3.2428,-0.441 -6.7841,-0.5439 -10.0202,-0.3084 -1.8927,-1.1446 -4.0359,-1.9783 -6.1948,-2.0837 l 0.0612,-0.7804 c 1.9304,-0.5409 3.9643,-0.8303 6.067,-0.8303 z m 11.8746,3.3974 c 4.9136,3.0702 8.5541,7.9883 9.9485,13.7806 l -0.6591,0.341 c -1.3229,-1.9908 -3.2133,-3.5805 -5.2925,-4.8101 -1.5347,-3.1915 -3.1663,-5.7793 -4.8047,-8.1309 0.2692,-0.3909 0.5385,-0.7852 0.8078,-1.1806 z m 9.8102,24.8609 c -1.4851,5.5522 -5.0466,10.2561 -9.8,13.2307 -0.2936,-0.4833 -0.5904,-0.9663 -0.8912,-1.4473 1.9607,-2.304 3.8092,-5.3079 4.7625,-8.0757 1.8774,-1.1936 3.7338,-2.6195 5.0885,-4.3097 z m -10.7759,13.8079 c -3.2295,1.8011 -6.9492,2.8284 -10.9089,2.8284 -2.1438,0 -4.2165,-0.3016 -6.1801,-0.8632 l -0.106,-1.2353 c 2.5872,-0.1871 4.5077,-0.8283 6.3133,-1.9667 3.2052,0.4048 6.7198,0.0706 9.9377,-0.2942 0.3189,0.5085 0.633,1.0196 0.944,1.531 z m -26.6619,-3.6321 c -4.0484,-3.9889 -6.5882,-9.5028 -6.6892,-15.6098 0.563,-0.001 1.1294,-0.002 1.698,0 0.9952,3.0594 2.6164,5.9868 4.8642,8.678 -0.0793,2.2031 0.1817,4.3696 1.2286,6.342 z m -6.6798,-16.7436 c 0.2021,-6.0937 2.8338,-11.5739 6.9571,-15.501 l 0.9059,0.4099 c -1.0392,2.0744 -1.4063,4.5065 -1.4088,6.87 -2.3975,2.668 -3.5765,4.9856 -4.6959,8.2205 -0.5884,-0.002 -1.1755,-0.001 -1.7583,6e-4 z m 21.5493,10.9414 c -1.2518,-0.6908 -2.4971,-1.3949 -3.7347,-2.1104 -1.1778,-0.6809 -2.3729,-1.3762 -3.549,-2.0959 -2.1662,0.7614 -4.4138,1.6605 -6.5817,3.0999 -0.0822,2.2641 0.2199,4.502 1.4896,6.4472 2.1064,2.262 4.4427,3.412 6.5364,3.7153 2.6736,-0.1451 4.5646,-0.7775 6.355,-1.9499 0.1037,-2.3267 -0.186,-4.7903 -0.5156,-7.1062 z m -6.7428,-5.2041 c 1.1843,0.7259 2.3893,1.4264 3.5756,2.1121 1.1993,0.6933 2.4052,1.3762 3.6181,2.0466 3.0969,-1.5713 5.9885,-3.3724 9.0896,-5.4031 0.1287,-2.6017 0.1046,-5.3669 -0.0759,-7.9484 -2.9614,-1.9496 -5.9222,-3.6779 -8.8835,-5.1843 -2.4543,1.2668 -5.0219,2.6793 -7.3072,4.2387 -0.2645,3.3477 -0.3943,6.7895 -0.0167,10.1384 z m 28.2047,-8.7024 c -1.1514,-1.9913 -2.927,-3.581 -4.9042,-4.8104 -1.9962,1.1838 -4.066,2.6462 -5.9633,4.2236 0.1911,2.7202 0.2112,5.6387 0.0647,8.3691 1.6985,1.597 3.9642,3.2777 5.6477,4.3245 1.9429,-1.2623 3.8532,-2.7961 5.0669,-4.6063 0.7549,-2.3927 0.6631,-5.3498 0.0882,-7.5005 z" />
</svg>
