<?xml version="1.0" encoding="UTF-8" standalone="no"?>
<svg
   xmlns:dc="http://purl.org/dc/elements/1.1/"
   xmlns:cc="http://creativecommons.org/ns#"
   xmlns:rdf="http://www.w3.org/1999/02/22-rdf-syntax-ns#"
   xmlns:svg="http://www.w3.org/2000/svg"
   xmlns="http://www.w3.org/2000/svg"
   xmlns:xlink="http://www.w3.org/1999/xlink"
   viewBox="0 0 595.27557 841.88977"
   id="svg463"
   height="841.88977"
   width="595.27557"
   version="1.1">
  <metadata
     id="metadata469">
    <rdf:RDF>
      <cc:Work
         rdf:about="">
        <dc:format>image/svg+xml</dc:format>
        <dc:type
           rdf:resource="http://purl.org/dc/dcmitype/StillImage" />
      </cc:Work>
    </rdf:RDF>
  </metadata>
  <defs
     id="defs467" />
  <g
     id="Layer1000">
    <path
       id="path2"
       style="fill:#020101;fill-rule:evenodd"
       d="M 297.6219,196.0306 A 224.9141,224.9141 0 0 1 522.536,420.9447 224.9141,224.9141 0 1 1 297.6219,196.0306 Z" />
    <path
       id="path4"
       style="fill:#008fff;fill-rule:evenodd"
       d="M 297.6216,202.3323 A 218.6125,218.6124 0 0 1 516.2341,420.9447 218.6125,218.6124 0 1 1 297.6216,202.3323 Z" />
    <path
       id="path6"
       style="fill:#020101;fill-rule:evenodd"
       d="M 297.6219,266.208 A 154.7367,154.7367 0 0 1 452.3586,420.9447 154.7367,154.7367 0 1 1 297.6219,266.208 Z" />
    <path
       id="path8"
       style="fill:#00c1fb;fill-rule:evenodd"
       d="m 297.622,269.0724 c 83.8629,0 151.8725,68.0096 151.8725,151.8722 0,38.0003 -13.9641,72.7456 -37.0393,99.3835 -51.1284,-13.1106 -159.2947,-17.0975 -228.4644,1.3703 -23.7913,-26.8112 -38.241,-62.0984 -38.241,-100.7538 0,-83.8626 68.0097,-151.8722 151.8722,-151.8722 z" />
    <path
       id="path10"
       style="fill:#020101;fill-rule:evenodd"
       d="m 301.5442,219.644 c 0.5801,0.0699 1.1495,0.1736 1.7066,0.3091 0.6775,-1.1919 1.5709,-2.1806 2.979,-3.2118 1.6258,-1.1899 3.3339,-1.6995 4.6621,-3.3428 0.423,-0.5236 0.704,-0.9925 0.9206,-1.5238 0.3013,-0.7396 0.529,-1.5903 0.7152,-2.3872 0.4102,0.782 0.6136,1.4408 0.6998,2.2686 0.1065,1.0252 -0.1467,2.0013 -0.6159,2.9876 -0.7627,1.6029 -2.3774,3.0139 -3.7125,4.1588 -0.8398,0.7198 -1.3849,1.6203 -1.7808,2.602 0.2593,0.1498 0.5133,0.307 0.7622,0.472 0.9954,-0.7585 2.1243,-1.2998 3.6713,-1.7186 1.9449,-0.5262 3.722,-0.3879 5.5521,-1.4437 0.7447,-0.4299 1.2405,-0.8601 1.7275,-1.4591 0.4494,-0.5528 0.7015,-0.9174 1.1131,-1.7364 0.1131,0.7834 0.1443,1.6104 -0.039,2.3769 -0.2515,1.0521 -0.8547,1.9091 -1.6802,2.6919 -1.2879,1.222 -3.3021,1.9578 -4.9594,2.5465 -0.9009,0.3194 -1.6442,0.8438 -2.2958,1.4797 0.3907,0.458 0.7536,0.9401 1.0864,1.444 1.3202,-0.3211 2.6444,-0.3504 4.3476,-0.041 1.9819,0.3606 3.5272,1.2491 5.6337,1.0819 0.7269,-0.0579 1.2927,-0.1934 1.8727,-0.4351 0.6852,-0.2839 1.3554,-0.5626 2.0512,-1.0252 -0.3443,0.8 -0.5116,1.23 -0.9622,1.8223 -0.6868,0.9029 -1.6292,1.4451 -2.7541,1.8115 -1.6882,0.5496 -3.8231,0.3491 -5.5723,0.1684 -0.9966,-0.1034 -1.9341,0.0707 -2.8335,0.393 0.169,0.5499 0.3065,1.1137 0.4108,1.6891 1.2448,0.2283 2.4135,0.7049 3.7755,1.5823 1.6931,1.0916 2.7807,2.504 4.791,3.1554 1.4657,0.4743 2.9437,0.4085 4.2126,0.075 -0.4586,0.5572 -1.0366,1.0802 -1.7286,1.4572 -0.9496,0.5176 -1.9899,0.6436 -3.1239,0.5554 -1.7702,-0.1381 -3.6659,-1.1404 -5.2129,-1.977 -0.8147,-0.4409 -1.6737,-0.6431 -2.5528,-0.7078 -0.0664,0.6525 -0.175,1.293 -0.3236,1.918 1.203,0.7138 2.1852,1.6404 3.1972,3.1015 1.1469,1.6562 1.6112,3.3777 3.219,4.7489 0.4104,0.3497 0.7885,0.6081 1.1927,0.8146 0.7992,0.4088 1.5766,0.6846 2.4362,0.9272 -0.6651,0.3509 -0.9607,0.4686 -1.6479,0.5906 -1.1412,0.2031 -2.1509,-0.0392 -3.2391,-0.5937 -1.5651,-0.7963 -3.0772,-2.3168 -4.2799,-3.5871 -0.8038,-0.849 -1.5972,-1.466 -2.5215,-1.9363 -0.1745,0.295 -0.3589,0.5834 -0.5531,0.8647 0.7991,1.0215 1.3623,2.1752 1.7939,3.7764 0.5245,1.9449 0.3833,3.7226 1.4379,5.5538 0.7047,1.2231 1.8155,2.14 2.9062,2.8435 -0.7816,0.1122 -1.3184,0.14 -2.0844,-0.0344 -1.0409,-0.2375 -1.8796,-0.8072 -2.6607,-1.6341 -1.2062,-1.2764 -2.0518,-3.1778 -2.7573,-4.7755 -0.4459,-1.0117 -0.9529,-1.8252 -1.6094,-2.5473 -0.4541,0.3609 -0.9298,0.6957 -1.4251,1.0019 0.3226,1.2913 0.3635,2.5972 0.0834,4.2725 -0.3323,1.9871 -1.1999,3.545 -1.0028,5.6486 0.1455,1.5516 0.8077,2.6599 1.5622,3.8855 -0.9203,-0.4058 -1.5757,-0.6061 -2.2514,-1.2113 -0.6929,-0.6202 -1.1455,-1.4122 -1.4717,-2.3706 -0.5658,-1.6625 -0.544,-3.7432 -0.5208,-5.4896 0.0152,-1.1185 -0.1105,-2.0781 -0.4145,-3.0185 -0.4835,0.1258 -0.9761,0.2283 -1.4774,0.3048 -0.1905,1.3411 -0.6528,2.5797 -1.5674,4.044 -1.0676,1.7086 -2.4657,2.8156 -3.0881,4.8347 -0.4592,1.489 -0.2501,2.6198 -0.0527,4.1142 -0.6081,-0.4744 -1.0518,-0.9192 -1.4448,-1.5992 -0.5339,-0.9244 -0.6886,-1.9266 -0.6153,-3.0615 0.1132,-1.7527 0.9301,-3.6664 1.6198,-5.271 0.4569,-1.0616 0.7093,-2.0243 0.7792,-3.0454 -0.5446,-0.0791 -1.0793,-0.1882 -1.6029,-0.3251 -0.6709,1.0626 -1.5428,1.9666 -2.8527,2.9013 -1.6401,1.1701 -3.3553,1.6579 -4.7033,3.2849 -0.9939,1.1999 -1.2956,2.4195 -1.6258,3.8758 -0.3291,-0.605 -0.68,-1.5073 -0.7462,-2.378 -0.073,-0.9639 0.1676,-1.8722 0.6293,-2.8111 0.7754,-1.576 2.2623,-3.0314 3.5135,-4.2499 0.7731,-0.7522 1.3491,-1.4932 1.7925,-2.3339 -0.2332,-0.1441 -0.462,-0.2948 -0.6863,-0.4512 -1.0341,0.8041 -2.1981,1.3658 -3.8168,1.7906 -1.9486,0.511 -3.7251,0.3583 -5.5632,1.4003 -1.3557,0.7686 -2.1663,1.8304 -2.9288,3.0137 -0.0255,-0.7402 -0.0636,-1.3566 0.0865,-2.0847 0.2265,-1.0988 0.8149,-1.9693 1.6799,-2.7759 1.2844,-1.1976 3.1912,-2.0303 4.7936,-2.7249 1.0248,-0.4437 1.8478,-0.9513 2.5799,-1.6126 -0.3366,-0.4283 -0.6502,-0.8757 -0.9384,-1.3403 -1.3402,0.3377 -2.6793,0.375 -4.41,0.0636 -1.9827,-0.3572 -3.5297,-1.2437 -5.6356,-1.0727 -1.5534,0.126 -2.6118,0.7336 -3.926,1.4717 0.253,-0.7115 0.5672,-1.3511 1.0748,-1.9787 0.655,-0.8101 1.5149,-1.3116 2.5745,-1.6576 1.6693,-0.5454 3.7497,-0.4979 5.4956,-0.4529 1.148,0.0298 2.1311,-0.0914 3.0992,-0.4016 -0.124,-0.476 -0.2257,-0.961 -0.3022,-1.4545 -1.4866,-0.1736 -2.8111,-0.6496 -4.3976,-1.6682 -1.5838,-1.0172 -2.9389,-2.5499 -4.8208,-3.0065 -1.3139,-0.3185 -2.5931,-0.356 -3.938,-0.458 0.4231,-0.4769 0.9883,-0.9816 1.6746,-1.2772 0.967,-0.4162 2.0912,-0.4818 3.1256,-0.4019 1.7375,0.1341 3.4115,0.8745 4.9857,1.5748 1.1635,0.5179 2.2105,0.786 3.3505,0.8362 0.0779,-0.536 0.1845,-1.0633 0.3185,-1.5789 -1.1655,-0.7052 -2.1265,-1.6204 -3.1167,-3.0451 -1.0739,-1.5459 -1.739,-3.4811 -3.3029,-4.6228 -1.104,-0.8061 -2.4594,-1.5124 -3.5381,-1.9298 0.743,-0.3887 1.4697,-0.535 2.2946,-0.5416 0.8015,-0.006 1.6247,0.1546 2.3282,0.4316 0.9438,0.3713 1.6676,0.8705 2.4436,1.5121 1.0094,0.8347 1.8438,1.8616 2.7882,2.7647 0.5938,0.5675 1.1893,1.0189 1.8426,1.3798 0.1911,-0.3073 0.3933,-0.6072 0.6059,-0.8991 -1.0851,-1.1945 -1.965,-2.5399 -2.3205,-4.17 -0.3947,-1.8131 -0.2581,-3.5713 -1.2597,-5.216 -0.6809,-1.1183 -1.645,-2.0893 -2.596,-2.9882 0.8564,0.005 1.6344,0.1 2.4267,0.4174 1.1695,0.4686 2.1308,1.2497 2.881,2.3642 1.7404,2.5852 1.4654,4.7813 3.7707,6.6053 0.3712,-0.2873 0.7562,-0.5574 1.1543,-0.8089 -0.2893,-1.5359 -0.2827,-3.1018 0.041,-4.7758 0.3385,-1.751 0.7613,-2.8712 0.6284,-4.7136 -0.0472,-0.6565 -0.1117,-1.3927 -0.2652,-2.0907 -0.2043,-0.9284 -0.493,-1.686 -1.0599,-2.4611 1.1235,0.214 2.0756,1.0604 2.7416,1.9567 0.8956,1.2053 1.2958,2.6773 1.5112,4.2825 0.104,0.7743 0.0885,1.507 0.0547,2.2838 -0.0656,1.5084 0.0393,2.6146 0.3881,3.7512 0.4483,-0.1198 0.9046,-0.2197 1.3686,-0.2971 0.2272,-1.8406 0.6714,-3.6297 1.896,-5.1226 1.0079,-1.2288 1.9724,-1.9398 2.4487,-3.547 0.2653,-0.8968 0.432,-1.8968 0.491,-2.8538 0.0418,-0.6814 0.0398,-1.2256 0.0541,-1.9085 0.5208,0.6224 0.9301,1.3657 1.2354,2.1179 0.7213,1.7716 0.5806,3.5275 -8e-4,5.4395 -0.2767,0.9097 -0.6823,1.6301 -1.1083,2.4654 -0.602,1.1804 -0.8111,2.1866 -0.792,3.314 z" />
    <defs
       id="defs29">
      <linearGradient
         id="grad1">
        <stop
           id="stop12"
           stop-opacity="1.0000"
           stop-color="#3a1e01"
           offset="0.0000%" />
        <stop
           id="stop14"
           stop-opacity="1.0000"
           stop-color="#ffffff"
           offset="12.0000%" />
        <stop
           id="stop16"
           stop-opacity="1.0000"
           stop-color="#d6d6d6"
           offset="0.0000%" />
        <stop
           id="stop18"
           stop-opacity="1.0000"
           stop-color="#ffffff"
           offset="83887360.0000%" />
        <stop
           id="stop20"
           stop-opacity="1.0000"
           stop-color="#ffffff"
           offset="0.0000%" />
        <stop
           id="stop22"
           stop-opacity="1.0000"
           stop-color="#ffffff"
           offset="5.0000%" />
        <stop
           id="stop24"
           stop-opacity="1.0000"
           stop-color="#000000"
           offset="0.0000%" />
        <stop
           id="stop26"
           stop-opacity="1.0000"
           stop-color="#ffffff"
           offset="1056964608.0000%" />
      </linearGradient>
    </defs>
    <path
       id="path31"
       style="fill:url(#grad1)"
       d="m 301.1361,220.0322 c 0.8037,0.0767 1.588,0.22 2.3473,0.4242 0.9375,-1.8149 1.9174,-2.5751 3.0002,-3.3682 1.6101,-1.1782 3.3207,-1.6602 4.7425,-3.4198 0.6245,-0.7731 1.0152,-1.4531 1.3621,-2.8174 0.4726,1.3855 0.1647,2.5968 -0.3641,3.7082 -0.7201,1.5124 -2.3027,2.9008 -3.6048,4.017 -0.9112,0.7808 -1.5371,1.7607 -2.0329,3.1228 0.4572,0.2489 0.8986,0.5218 1.3236,0.8174 1.4056,-1.1758 2.5319,-1.5129 3.7541,-1.8438 1.9257,-0.5207 3.6954,-0.3557 5.6549,-1.4866 0.8604,-0.4969 1.4694,-0.991 2.2835,-2.1397 -0.0568,1.4629 -0.7797,2.4826 -1.6726,3.3296 -1.2156,1.1526 -3.1912,1.8793 -4.8078,2.4531 -1.0186,0.3612 -1.8799,0.9567 -2.7367,1.8701 0.5497,0.6101 1.0476,1.2681 1.4867,1.9664 1.9308,-0.55 3.1465,-0.3638 4.4549,-0.126 1.963,0.3572 3.4897,1.2666 5.7451,1.0873 0.9905,-0.0788 1.7527,-0.2635 2.9813,-0.951 -0.6797,1.2967 -1.7708,1.9066 -2.9409,2.2878 -1.5929,0.5187 -3.689,0.326 -5.3953,0.1495 -1.1166,-0.1157 -2.1884,0.0699 -3.4107,0.5672 0.2541,0.7502 0.4469,1.529 0.5738,2.3293 1.8332,0.2538 2.8429,0.867 3.9127,1.5565 1.6768,1.081 2.7392,2.5055 4.8915,3.2029 0.9453,0.3062 1.7204,0.4274 3.1182,0.2624 -1.124,0.9378 -2.3654,1.0839 -3.5922,0.9882 -1.6702,-0.1303 -3.5332,-1.1105 -5.0419,-1.9265 -0.9324,-0.5045 -1.9303,-0.7456 -3.1494,-0.778 -0.0647,0.8897 -0.2111,1.7564 -0.4314,2.5934 1.8301,0.9951 2.572,2.0039 3.3439,3.1187 1.1357,1.6402 1.572,3.3631 3.2935,4.8311 0.7559,0.6445 1.4259,1.053 2.7804,1.4356 -1.3975,0.4363 -2.4682,0.1521 -3.565,-0.4067 -1.494,-0.7602 -3.0265,-2.2992 -4.1628,-3.4994 -0.8198,-0.8656 -1.7126,-1.615 -3.0082,-2.201 -0.2798,0.5038 -0.5889,0.9893 -0.9254,1.4537 1.2451,1.4554 1.5894,2.6068 1.9271,3.8591 0.5182,1.9261 0.3512,3.696 1.4795,5.6561 0.4958,0.861 0.9896,1.4705 2.1377,2.2857 -1.4632,-0.0584 -2.4457,-0.7249 -3.2924,-1.6198 -1.1512,-1.2188 -2.0085,-3.1408 -2.6759,-4.6537 -0.4611,-1.0455 -1.022,-2.0126 -1.9681,-2.9592 -0.6153,0.5167 -1.2741,0.9833 -1.971,1.3921 0.5572,1.8904 0.3887,3.0981 0.1719,4.3971 -0.33,1.9669 -1.2179,3.5071 -1.0077,5.7588 0.0928,0.9894 0.2884,1.749 0.9931,2.9678 -1.3062,-0.6617 -1.9223,-1.6765 -2.3199,-2.8426 -0.5399,-1.5869 -0.5199,-3.6916 -0.4975,-5.3452 0.0154,-1.1532 -0.0945,-2.2755 -0.5723,-3.5447 -0.6964,0.2022 -1.4145,0.3529 -2.15,0.4474 -0.202,2.0025 -0.8253,3.0652 -1.5305,4.1946 -1.0575,1.6911 -2.4674,2.7742 -3.1348,4.9351 -0.2927,0.9495 -0.4027,1.7263 -0.2182,3.1218 -0.9536,-1.1111 -1.1343,-2.2846 -1.0553,-3.514 0.1083,-1.6728 0.9324,-3.6094 1.5858,-5.1287 0.4666,-1.0844 0.7991,-2.1889 0.8306,-3.5902 -0.7742,-0.0914 -1.5295,-0.2443 -2.2608,-0.454 -0.9126,1.6061 -1.855,2.3173 -2.8902,3.056 -1.6244,1.1578 -3.3413,1.6187 -4.7847,3.3599 -0.6338,0.7651 -1.0329,1.4408 -1.3963,2.8006 -0.4558,-1.3913 -0.1736,-2.5448 0.3697,-3.6504 0.7402,-1.5038 2.2429,-2.9778 3.4279,-4.1313 0.8028,-0.7817 1.5018,-1.6261 2.054,-2.8071 -0.4402,-0.2555 -0.8656,-0.5345 -1.2746,-0.8341 -1.4763,1.2537 -2.6367,1.592 -3.8988,1.9234 -1.9297,0.5059 -3.6982,0.3266 -5.666,1.4419 -0.8642,0.4901 -1.4772,0.9797 -2.3001,2.122 0.0682,-1.4626 0.7416,-2.4405 1.6424,-3.2809 1.2263,-1.1432 3.154,-1.9873 4.6716,-2.645 1.0561,-0.4574 2.0328,-1.016 2.993,-1.9686 -0.4919,-0.5921 -0.9373,-1.2246 -1.3297,-1.8917 -1.9718,0.5786 -3.2015,0.3924 -4.5266,0.1541 -1.9635,-0.3537 -3.4917,-1.2612 -5.7465,-1.0781 -0.9902,0.0805 -1.7524,0.2664 -2.9798,0.9558 0.6777,-1.2978 1.7006,-1.9011 2.8712,-2.2838 1.5938,-0.5207 3.698,-0.4743 5.351,-0.4319 1.177,0.0306 2.323,-0.0699 3.6315,-0.5574 -0.2014,-0.6929 -0.3524,-1.4073 -0.4475,-2.1391 -2.2416,-0.1877 -3.3541,-0.8565 -4.5411,-1.6187 -1.6786,-1.0782 -2.9518,-2.5774 -4.9517,-3.0626 -0.9776,-0.2372 -1.7756,-0.2925 -3.0635,-0.3898 1.0493,-0.8914 2.5625,-0.9963 3.791,-0.9012 1.6726,0.1292 3.3333,0.8668 4.8443,1.5391 1.1601,0.5158 2.3445,0.8776 3.9007,0.8807 0.0905,-0.7656 0.2421,-1.5129 0.4489,-2.2367 -1.774,-0.9779 -2.5072,-1.9725 -3.2697,-3.0698 -1.1383,-1.6384 -1.7407,-3.5109 -3.4026,-4.7245 -0.8127,-0.5932 -1.5288,-0.9496 -2.6814,-1.5325 1.069,-0.3085 2.3666,-0.1498 3.3556,0.2395 0.9181,0.3612 1.5723,0.8192 2.3271,1.4434 0.9561,0.7905 1.8724,1.8905 2.7652,2.744 0.6405,0.6122 1.3566,1.1782 2.299,1.6367 0.3056,-0.5233 0.6436,-1.0254 1.0111,-1.5038 -1.5187,-1.5974 -2.1634,-2.8391 -2.4654,-4.2241 -0.4245,-1.9495 -0.2417,-3.5896 -1.3127,-5.348 -0.5239,-0.8605 -1.0492,-1.4623 -1.9455,-2.3096 1.8922,0.3609 3.1056,1.3362 3.934,2.5665 1.7819,2.647 1.4204,4.9654 4.133,6.9095 0.515,-0.418 1.0598,-0.8009 1.6304,-1.1449 -0.4328,-2.0077 -0.2633,-3.6398 -0.0192,-4.9024 0.3787,-1.9596 0.782,-2.7879 0.635,-4.8262 -0.0722,-1.0051 -0.1942,-2.5519 -0.8269,-3.6845 2.1271,1.3998 2.6498,3.5994 2.9002,5.4601 0.3016,2.2442 -0.4377,3.5742 0.5986,6.5007 0.6568,-0.1956 1.3334,-0.3457 2.026,-0.4454 0.2068,-1.8787 0.613,-3.728 1.8409,-5.2249 1.0189,-1.2423 2.0163,-1.969 2.5284,-3.6974 0.2865,-0.9676 0.505,-2.26 0.5308,-3.4934 1.281,2.1956 0.9725,4.245 0.4259,6.0413 -0.7078,2.3262 -2.0681,3.0451 -1.8973,6.2928 z" />
    <g
       id="Layer1001">
      <path
         id="path33"
         style="fill:#020101;fill-rule:evenodd"
         d="m 158.9885,295.3815 c 0.0441,-0.0352 0.0824,-0.071 0.1045,-0.094 2.5158,-2.5876 5.1467,-5.0479 8.154,-7.0604 4.9196,-3.2926 10.8108,-4.2585 16.3752,-5.9244 2.0196,-0.6049 3.8915,-1.1025 5.7685,-2.1168 2.0644,-1.1151 3.9494,-2.7475 5.5847,-4.4163 0.2696,-0.275 0.7307,-0.7461 1.1478,-0.4591 0.4242,0.2918 0.1389,0.9973 0.004,1.3775 -1.4924,4.2063 -6.053,9.9465 -9.3362,12.977 -1.8089,1.67 -3.7552,3.0672 -5.9075,4.2611 -1.9919,1.1048 -4.0835,2.0283 -6.2171,2.8217 -2.4588,0.9137 -5.0162,1.5064 -7.5013,2.3365 -3.4441,1.15 -6.7247,2.7074 -9.8864,4.4847 -1.8155,1.0206 -3.5478,2.1352 -5.2513,3.3336 -1.3167,0.9269 -2.1488,0.3644 -1.4949,-1.2721 2.1932,-5.4847 3.691,-10.8769 5.2682,-16.5449 1.93,-6.937 4.1381,-16.3204 8.4127,-22.1426 2.38,-3.2413 5.6247,-6.0398 9.0927,-8.0549 3.6323,-2.1102 7.474,-2.9285 11.6634,-2.7919 0.3632,0.0117 0.9376,0.01 1.0639,0.444 0.1312,0.4514 -0.3847,0.745 -0.7035,0.9312 -4.8162,2.8102 -7.7109,6.2569 -10.4839,10.9817 -1.7548,2.9899 -3.3551,6.0573 -4.9125,9.1532 -1.5267,3.0348 -2.8844,6.1707 -4.7706,9.009 -0.9578,1.4422 -2.0122,2.8129 -3.0488,4.1984 -1.0839,1.4476 -2.1343,2.9044 -3.0661,4.4567 -0.0146,0.0243 -0.0372,0.065 -0.0598,0.1111 z m 14.0509,-15.665 c 1.3637,-1.8868 2.4871,-3.7701 3.6469,-5.7795 1.1495,-1.9916 2.1629,-4.1244 3.4605,-6.0195 2.8558,-4.1711 6.2286,-7.4156 10.4862,-10.1076 5.1339,-3.2459 10.8303,-4.2275 16.7395,-5.0324 2.6527,-0.3615 5.3438,-0.4454 8.0171,-0.5216 0.4471,-0.0129 1.1208,0.049 1.1962,0.6138 0.0418,0.3125 -0.1814,0.6468 -0.4369,0.8112 -4.0155,2.5849 -7.812,5.5097 -11.4598,8.5877 -3.982,3.3611 -7.7943,6.9857 -11.9954,10.0738 -5.8388,4.2917 -12.465,5.4375 -18.7993,8.5662 -0.7043,0.348 -1.4843,-0.3217 -0.855,-1.1921 z m -58.9656,130.3959 c 0.0401,-0.1037 0.051,-0.2765 0.051,-0.336 -0.32,-5.3269 0.4325,-10.085 2.4633,-15.0131 1.7224,-4.1794 3.9618,-7.7929 6.6881,-11.3794 3.2602,-4.2894 7.032,-8.158 10.2585,-12.45 1.9243,-2.5596 3.5338,-5.1232 4.654,-8.1486 0.1424,-0.3844 0.4145,-1.3869 0.9819,-1.2626 0.4615,0.1008 0.4151,0.7063 0.4051,1.0615 -0.0751,2.712 -0.819,5.8823 -1.5041,8.5009 -1.073,4.1024 -2.4494,8.1707 -3.9844,12.1221 -2.1743,5.599 -4.6927,11.0305 -7.2271,16.4719 -2.2402,4.8099 -4.532,9.6733 -6.3403,14.6642 -1.7215,4.7535 -2.9538,9.3709 -2.7894,14.4875 0.003,0.0828 0.002,0.1656 -0.002,0.2481 -0.021,0.4262 -0.1375,1.0936 -0.6362,1.2047 -0.7007,0.1561 -1.0713,-0.9707 -1.2343,-1.4531 -1.3944,-4.1238 -3.4911,-7.6436 -5.5091,-11.4569 -1.704,-3.2207 -3.5392,-6.3999 -5.1226,-9.6799 -5.3607,-11.1084 -9.0257,-19.7832 -9.5951,-32.2258 -0.4397,-9.6186 3.6251,-19.6866 9.0869,-27.4319 0.1971,-0.2798 0.4738,-0.7946 0.9003,-0.633 0.4741,0.1793 0.2615,0.9074 0.1985,1.2738 l -0.005,0.0289 -0.009,0.0281 c -2.6404,8.3413 -0.2043,18.0244 2.0248,26.1985 1.2875,4.7225 2.6235,9.4599 3.7088,14.2325 0.6559,2.8845 1.0108,5.7655 1.232,8.7112 0.1942,2.5914 0.2881,5.1948 0.558,7.7797 0.1463,1.4018 0.3471,2.7956 0.6401,4.1748 0.0126,0.059 0.0536,0.1996 0.1072,0.2819 z m 9.2485,42.1431 c -2.2675,-6.0319 -3.435,-12.3246 -2.4983,-18.7512 0.6754,-4.6383 1.8418,-8.7827 3.5558,-13.1332 1.1773,-2.9875 2.4955,-5.9195 3.6888,-8.9022 1.5356,-3.838 2.846,-7.7026 3.9405,-11.6904 0.1094,-0.399 0.2343,-1.4837 0.7743,-1.4854 0.4365,-0.001 0.5198,0.5044 0.598,0.8272 l 0.005,0.0206 0.003,0.0209 c 1.0899,7.7943 1.5063,16.3001 0.5316,24.1324 -0.4976,3.9953 -1.2423,7.8762 -2.1506,11.7947 -0.69,2.9764 -1.47,5.9614 -1.9632,8.9773 -1.1395,6.9702 -1.2486,13.6267 0.8478,20.4517 0.1323,0.4311 0.2979,1.1638 -0.1438,1.4711 -0.5995,0.4171 -1.4133,-0.5061 -1.7639,-0.8934 -2.4934,-2.7538 -5.4623,-5.1272 -8.3754,-7.4199 -3.1878,-2.5095 -6.3939,-4.9771 -9.3379,-7.7776 -5.632,-5.3584 -10.4252,-12.2309 -13.6534,-19.2957 -4.7574,-10.4109 -9.561,-27.5734 -4.6045,-38.5511 0.1467,-0.3251 0.3463,-0.8757 0.7957,-0.8218 0.4984,0.0593 0.5225,0.7648 0.5589,1.1432 l 0.0031,0.0323 -0.0017,0.0324 c -0.1819,3.339 0.4804,7.1618 1.5319,10.3413 1.5528,4.6944 4.0096,9.2024 6.6061,13.3953 2.3617,3.8139 4.9336,7.4849 7.4798,11.1756 2.1251,3.0801 4.3728,6.296 6.1186,9.6055 0.5488,1.0406 1.0624,2.0996 1.5556,3.1674 1.0298,2.2299 1.9664,4.4988 2.9409,6.7528 0.7931,1.834 1.6353,3.7744 2.667,5.4859 0.0433,0.0716 0.2025,0.3007 0.3054,0.2907 0.0601,-0.0665 0.009,-0.3034 -0.0152,-0.3964 z m -4.1408,-83.6266 c 0.0725,-0.0507 0.1556,-0.2056 0.1954,-0.2916 2.4101,-11.9264 10.4106,-19.4554 19.6064,-26.5439 3.0314,-2.3365 6.0734,-4.6612 9.0658,-7.0473 2.4823,-1.9793 5.941,-4.7259 7.5869,-7.4531 0.2529,-0.4188 0.8899,-1.3591 1.4963,-0.9773 0.4142,0.2609 0.2661,0.8226 0.102,1.183 -1.4164,3.1113 -2.8761,6.2208 -4.526,9.2164 -1.9381,3.5192 -3.9666,7.022 -6.3108,10.2889 -3.0652,4.2719 -6.4592,8.2133 -10.0113,12.0819 -5.7076,6.216 -11.4524,12.1006 -16.6112,18.8202 -1.3912,1.8111 -2.6401,4.8233 -3.4753,6.994 -0.0327,0.0847 -0.0702,0.1675 -0.112,0.248 -0.2042,0.3924 -0.6093,0.9072 -1.1137,0.8126 -0.7361,-0.1383 -0.6714,-1.3027 -0.6316,-1.8449 0.4666,-6.3438 -0.6637,-12.1785 -1.8653,-18.355 -1.1976,-6.1553 -2.1898,-11.9482 -1.5817,-18.2573 1.1515,-11.941 6.8215,-25.9885 13.5798,-35.8048 1.6304,-2.3677 3.4092,-4.6383 5.3506,-6.7593 0.957,-1.0453 1.8384,-0.3349 0.9851,0.9988 -2.897,4.5257 -3.7294,14.2428 -4.2367,19.5878 -0.7539,7.9441 -1.3128,16.0411 -2.7412,23.8944 -0.4847,2.6624 -1.3514,5.3274 -2.1792,7.9019 -1.0458,3.252 -2.541,7.46 -2.6591,10.8629 -0.003,0.0894 0.0118,0.3518 0.0868,0.4437 z m 10.9102,-28.376 c 2.9131,-12.0891 1.9286,-24.7354 5.1427,-36.7927 3.5928,-13.4809 11.1608,-26.0083 22.5103,-34.3311 1.1126,-0.8149 1.8499,0.0344 0.7958,1.1432 -3.5038,3.6836 -5.7921,12.6322 -7.0874,17.5226 -1.9641,7.4162 -3.1858,15.0426 -5.7093,22.3084 -0.9481,2.73 -2.1159,5.3429 -3.5647,7.8435 -1.6519,2.8524 -3.1889,5.7603 -4.6412,8.7192 -0.299,0.6087 0.2607,0.3821 0.4506,0.0902 1.9787,-3.2445 3.8858,-6.3348 6.5509,-9.0675 3.75,-3.8451 8.5848,-6.8828 13.417,-9.1671 2.7407,-1.2953 5.5543,-2.3448 8.3371,-3.531 2.3064,-0.9827 4.6469,-2.1001 6.5778,-3.7239 0.3205,-0.2696 0.6293,-0.5526 0.9243,-0.8493 1.193,-1.2005 1.9933,-0.4177 1.3199,0.9693 -2.6092,5.377 -6.0628,10.2069 -10.3006,14.4216 -3.738,3.7165 -8.0031,6.6064 -12.3515,9.5415 -2.8151,1.9 -5.6417,3.7827 -8.4405,5.7067 -2.5278,1.7376 -5.0725,3.5072 -7.3769,5.5369 -1.7224,1.5172 -3.3359,3.1181 -4.901,4.7975 -0.0676,0.0728 -0.1378,0.1435 -0.2099,0.212 -0.2934,0.2776 -0.7428,0.6345 -1.1719,0.456 -0.6396,-0.2658 -0.3918,-1.3073 -0.2715,-1.806 z" />
      <defs
         id="defs50">
        <linearGradient
           id="grad2">
          <stop
             id="stop35"
             stop-opacity="1.0000"
             stop-color="#cc8a40"
             offset="0.0000%" />
          <stop
             id="stop37"
             stop-opacity="1.0000"
             stop-color="#ffffff"
             offset="12.0000%" />
          <stop
             id="stop39"
             stop-opacity="1.0000"
             stop-color="#d6d6d6"
             offset="0.0000%" />
          <stop
             id="stop41"
             stop-opacity="1.0000"
             stop-color="#ffffff"
             offset="83887360.0000%" />
          <stop
             id="stop43"
             stop-opacity="1.0000"
             stop-color="#ffffff"
             offset="0.0000%" />
          <stop
             id="stop45"
             stop-opacity="1.0000"
             stop-color="#ffffff"
             offset="5.0000%" />
          <stop
             id="stop47"
             stop-opacity="1.0000"
             stop-color="#000000"
             offset="0.0000%" />
        </linearGradient>
      </defs>
      <path
         id="path52"
         style="fill:url(#grad2)"
         d="m 130.5093,340.3535 c 2.9177,-12.1078 1.9203,-24.7033 5.1402,-36.7827 2.7492,-10.3153 9.0998,-24.3794 22.3493,-34.0951 0.6491,-0.4755 0.9335,-0.2392 0.2303,0.5004 -3.1462,3.3078 -5.259,10.4129 -7.1913,17.7088 -1.8561,7.0086 -3.2159,15.1254 -5.6999,22.2774 -0.9718,2.7983 -2.1167,5.3287 -3.5306,7.7691 -1.59,2.7455 -3.0907,5.5578 -4.6552,8.7453 -0.5162,1.0518 0.6522,1.3502 1.2016,0.5058 2.5951,-4.2556 4.1325,-6.5732 6.4933,-8.9939 3.0165,-3.0929 7.4076,-6.2965 13.293,-9.0786 6.4658,-3.0558 12.1668,-4.3728 15.9604,-8.1899 0.9326,-0.9383 1.0128,-0.3122 0.6287,0.479 -2.5115,5.1756 -5.8708,9.982 -10.2173,14.3044 -3.7549,3.7337 -7.9194,6.5411 -12.2887,9.4903 -2.8143,1.8991 -5.5913,3.748 -8.4437,5.7087 -2.5166,1.7298 -5.1246,3.549 -7.4173,5.5683 -1.3863,1.2211 -2.926,2.6754 -4.9313,4.8271 -0.5116,0.5491 -1.4001,1.2423 -0.9215,-0.7444 z" />
      <defs
         id="defs69">
        <linearGradient
           id="grad3">
          <stop
             id="stop54"
             stop-opacity="1.0000"
             stop-color="#cc8a40"
             offset="0.0000%" />
          <stop
             id="stop56"
             stop-opacity="1.0000"
             stop-color="#ffffff"
             offset="12.0000%" />
          <stop
             id="stop58"
             stop-opacity="1.0000"
             stop-color="#d6d6d6"
             offset="0.0000%" />
          <stop
             id="stop60"
             stop-opacity="1.0000"
             stop-color="#ffffff"
             offset="83887360.0000%" />
          <stop
             id="stop62"
             stop-opacity="1.0000"
             stop-color="#ffffff"
             offset="0.0000%" />
          <stop
             id="stop64"
             stop-opacity="1.0000"
             stop-color="#ffffff"
             offset="5.0000%" />
          <stop
             id="stop66"
             stop-opacity="1.0000"
             stop-color="#000000"
             offset="0.0000%" />
        </linearGradient>
      </defs>
      <path
         id="path71"
         style="fill:url(#grad3)"
         d="m 114.8709,384.1473 c 0.9665,-13.1421 -4.7173,-23.4327 -3.4478,-36.6025 1.0844,-11.2459 7.2695,-29.6948 18.8195,-42.3153 0.5655,-0.6175 0.8843,-0.4259 0.3065,0.4769 -2.5842,4.0371 -3.5481,11.8271 -4.3026,19.7789 -0.8596,9.0569 -1.4153,16.5962 -2.7363,23.858 -1.0948,6.0167 -4.6644,13.6162 -4.8448,18.827 -0.0335,0.9765 0.7144,1.2798 1.1234,0.2976 2.427,-12.0931 10.7535,-19.6256 19.4569,-26.3342 2.8821,-2.2216 6.1407,-4.7148 9.0712,-7.0516 3.3213,-2.6484 6.224,-5.1433 7.6869,-7.5671 0.7218,-1.1953 1.2136,-1.0163 0.8395,-0.1942 -1.5276,3.3553 -2.9744,6.3964 -4.5114,9.1869 -2.0944,3.8034 -4.0863,7.1836 -6.2836,10.2459 -8.185,11.4072 -17.2771,18.7291 -26.6141,30.8907 -1.1736,1.5281 -2.529,4.4856 -3.5355,7.1017 -0.2931,0.7622 -1.1862,1.5565 -1.0278,-0.5987 z" />
      <defs
         id="defs89">
        <linearGradient
           id="grad4">
          <stop
             id="stop73"
             stop-opacity="1.0000"
             stop-color="#cc8a40"
             offset="0.0000%" />
          <stop
             id="stop75"
             stop-opacity="1.0000"
             stop-color="#ffffff"
             offset="12.0000%" />
          <stop
             id="stop77"
             stop-opacity="1.0000"
             stop-color="#d6d6d6"
             offset="0.0000%" />
          <stop
             id="stop79"
             stop-opacity="1.0000"
             stop-color="#ffffff"
             offset="83887360.0000%" />
          <stop
             id="stop81"
             stop-opacity="1.0000"
             stop-color="#ffffff"
             offset="0.0000%" />
          <stop
             id="stop83"
             stop-opacity="1.0000"
             stop-color="#ffffff"
             offset="5.0000%" />
          <stop
             id="stop85"
             stop-opacity="1.0000"
             stop-color="#000000"
             offset="0.0000%" />
        </linearGradient>
        <linearGradient
           gradientUnits="objectBoundingBox"
           gradientTransform="rotate(-80,0.5,0.5)"
           y2="1"
           x2="0"
           y1="0"
           x1="0"
           id="grad5"
           xlink:href="#grad4" />
      </defs>
      <path
         id="path91"
         style="fill:url(#grad5)"
         d="m 129.066,464.8072 c -4.8328,-5.3372 -11.7303,-9.5072 -17.7357,-15.2205 -5.585,-5.3137 -10.3674,-12.1785 -13.5589,-19.1627 -4.2928,-9.3943 -9.6793,-26.9541 -4.6036,-38.196 0.3194,-0.7072 0.4328,-0.8808 0.5353,0.1859 -0.1741,3.1969 0.4331,7.1131 1.5531,10.4997 4.1917,12.6723 15.58,25.4225 20.2323,34.242 2.8509,5.4056 4.972,11.7723 7.1758,15.4275 0.503,0.8336 1.352,0.5658 1.0676,-0.4594 -2.8466,-7.5637 -3.2058,-13.5967 -2.4828,-18.5575 1.9208,-13.1865 6.8295,-17.8417 11.1742,-33.674 0.3383,-1.2322 0.3277,-1.5484 0.5405,-0.6708 1.3494,9.6492 1.2807,17.9958 0.5308,24.0199 -1.1704,9.3989 -3.1732,15.0176 -4.1113,20.7556 -1.0913,6.6748 -1.3457,13.4629 0.8611,20.647 0.2394,0.7806 0.2695,1.7625 -1.1784,0.1633 z" />
      <defs
         id="defs108">
        <linearGradient
           id="grad6">
          <stop
             id="stop93"
             stop-opacity="1.0000"
             stop-color="#cc8a40"
             offset="0.0000%" />
          <stop
             id="stop95"
             stop-opacity="1.0000"
             stop-color="#ffffff"
             offset="12.0000%" />
          <stop
             id="stop97"
             stop-opacity="1.0000"
             stop-color="#d6d6d6"
             offset="0.0000%" />
          <stop
             id="stop99"
             stop-opacity="1.0000"
             stop-color="#ffffff"
             offset="83887360.0000%" />
          <stop
             id="stop101"
             stop-opacity="1.0000"
             stop-color="#ffffff"
             offset="0.0000%" />
          <stop
             id="stop103"
             stop-opacity="1.0000"
             stop-color="#ffffff"
             offset="5.0000%" />
          <stop
             id="stop105"
             stop-opacity="1.0000"
             stop-color="#000000"
             offset="0.0000%" />
        </linearGradient>
      </defs>
      <path
         id="path110"
         style="fill:url(#grad6)"
         d="m 116.2647,428.693 c -1.488,-4.4005 -3.5839,-7.8309 -5.5362,-11.5205 -1.8341,-3.4662 -3.6682,-6.6671 -5.1155,-9.6656 -5.9078,-12.2418 -9.0097,-20.1896 -9.5531,-32.0587 -0.3531,-7.7259 2.3176,-17.6759 9.0091,-27.1647 0.4537,-0.6436 0.5056,-0.7359 0.3243,0.3205 -2.5539,8.0678 -0.5085,17.17 2.0199,26.4414 1.2916,4.7371 2.7097,9.8409 3.7042,14.2148 1.8055,7.9375 1.0415,14.1326 2.429,20.6597 0.1997,0.9383 1.0126,0.9008 1.0074,-0.1633 -0.3695,-6.1493 0.762,-10.7784 2.4316,-14.8298 1.8799,-4.5621 4.1949,-8.0758 6.6328,-11.2828 3.4713,-4.5669 7.1922,-8.3709 10.2599,-12.452 1.8888,-2.5124 3.5304,-5.0625 4.7136,-8.2575 0.4609,-1.2445 0.5795,-1.2652 0.5546,-0.3623 -0.108,3.8927 -2.0463,11.6921 -5.4595,20.4795 -4.5366,11.6806 -10.1829,21.7936 -13.5709,31.1453 -1.6688,4.6076 -2.9876,9.278 -2.8148,14.6479 0.0263,0.8111 -0.3443,1.8953 -1.0364,-0.1519 z" />
      <defs
         id="defs128">
        <linearGradient
           id="grad7">
          <stop
             id="stop112"
             stop-opacity="1.0000"
             stop-color="#cc8a40"
             offset="0.0000%" />
          <stop
             id="stop114"
             stop-opacity="1.0000"
             stop-color="#ffffff"
             offset="12.0000%" />
          <stop
             id="stop116"
             stop-opacity="1.0000"
             stop-color="#d6d6d6"
             offset="0.0000%" />
          <stop
             id="stop118"
             stop-opacity="1.0000"
             stop-color="#ffffff"
             offset="83887360.0000%" />
          <stop
             id="stop120"
             stop-opacity="1.0000"
             stop-color="#ffffff"
             offset="0.0000%" />
          <stop
             id="stop122"
             stop-opacity="1.0000"
             stop-color="#ffffff"
             offset="5.0000%" />
          <stop
             id="stop124"
             stop-opacity="1.0000"
             stop-color="#000000"
             offset="0.0000%" />
        </linearGradient>
        <linearGradient
           gradientUnits="objectBoundingBox"
           gradientTransform="rotate(-102,0.5,0.5)"
           y2="1"
           x2="0"
           y1="0"
           x1="0"
           id="grad8"
           xlink:href="#grad7" />
      </defs>
      <path
         id="path130"
         style="fill:url(#grad8)"
         d="m 173.3877,279.9682 c 1.6745,-2.317 2.606,-3.9717 3.6707,-5.8164 1.2389,-2.1463 2.2371,-4.2307 3.443,-5.9917 2.9655,-4.3312 6.324,-7.4345 10.3613,-9.9869 4.9076,-3.103 10.2305,-4.1067 16.5679,-4.97 2.4992,-0.3406 5.0382,-0.4343 7.9713,-0.5179 1.1919,-0.0338 0.6623,0.5393 0.5145,0.6344 -4.0185,2.5866 -7.8459,5.5335 -11.5043,8.6207 -3.8981,3.29 -7.9188,7.0759 -11.9728,10.0557 -5.9344,4.3622 -12.2461,5.322 -18.7351,8.5273 -0.189,0.0933 -0.751,0.0458 -0.3165,-0.5552 z" />
      <defs
         id="defs147">
        <linearGradient
           id="grad9">
          <stop
             id="stop132"
             stop-opacity="1.0000"
             stop-color="#cc8a40"
             offset="0.0000%" />
          <stop
             id="stop134"
             stop-opacity="1.0000"
             stop-color="#ffffff"
             offset="12.0000%" />
          <stop
             id="stop136"
             stop-opacity="1.0000"
             stop-color="#d6d6d6"
             offset="0.0000%" />
          <stop
             id="stop138"
             stop-opacity="1.0000"
             stop-color="#ffffff"
             offset="83887360.0000%" />
          <stop
             id="stop140"
             stop-opacity="1.0000"
             stop-color="#ffffff"
             offset="0.0000%" />
          <stop
             id="stop142"
             stop-opacity="1.0000"
             stop-color="#ffffff"
             offset="5.0000%" />
          <stop
             id="stop144"
             stop-opacity="1.0000"
             stop-color="#000000"
             offset="0.0000%" />
        </linearGradient>
      </defs>
      <path
         id="path149"
         style="fill:url(#grad9)"
         d="m 150.9318,305.7901 c 2.5063,-6.2676 3.7395,-11.0419 5.2831,-16.5894 2.3032,-8.2786 4.4045,-16.636 8.3451,-22.0033 2.4244,-3.3021 5.7007,-6.0427 8.9623,-7.9378 3.4762,-2.0197 7.1873,-2.8724 11.4335,-2.734 0.7513,0.0243 0.9556,0.1091 0.1578,0.5746 -5.3561,3.1253 -8.1838,6.9538 -10.638,11.1355 -1.79,3.0497 -3.353,6.0516 -4.9256,9.1775 -1.5144,3.0102 -2.8753,6.1516 -4.7446,8.9644 -0.9618,1.4479 -1.997,2.7913 -3.0351,4.1785 -1.0492,1.4016 -2.1033,2.8487 -3.0903,4.4931 -0.5216,0.8685 0.1062,1.1704 0.7212,0.538 3.0998,-3.1887 5.5403,-5.3003 8.0847,-7.0029 4.8615,-3.2536 10.7581,-4.223 16.2594,-5.87 1.8315,-0.5485 3.789,-1.0369 5.8497,-2.1503 1.8183,-0.9822 3.7188,-2.4845 5.6872,-4.4936 0.8407,-0.8579 0.694,-0.2415 0.4403,0.4738 -1.4491,4.0846 -5.9978,9.8282 -9.2225,12.8052 -1.7782,1.6416 -3.6498,2.9947 -5.8247,4.2009 -1.963,1.0887 -4.0385,2.0065 -6.1585,2.7948 -2.4613,0.9146 -5.004,1.5021 -7.4875,2.3316 -3.4776,1.1612 -6.7711,2.7246 -9.9608,4.5177 -1.4755,0.8295 -3.1217,1.8326 -5.288,3.3568 -0.5525,0.3889 -1.4915,0.8469 -0.8487,-0.7611 z" />
    </g>
    <g
       id="Layer1002">
      <path
         id="path152"
         style="fill:#020101;fill-rule:evenodd"
         d="m 438.7402,295.3815 c -0.0226,-0.0461 -0.0453,-0.0871 -0.0599,-0.1111 -0.9318,-1.5523 -1.9821,-3.0091 -3.066,-4.4567 -1.0366,-1.3855 -2.091,-2.7562 -3.0489,-4.1984 -1.8862,-2.8383 -3.2439,-5.9742 -4.7706,-9.009 -1.5932,-3.1669 -3.1167,-6.3802 -4.9124,-9.4396 -2.4141,-4.1135 -5.9745,-8.702 -10.441,-10.6736 -1.2511,-0.5519 -0.9472,-1.356 0.3174,-1.3969 4.1614,-0.1352 8.0209,0.3893 11.6635,2.5055 3.4676,2.0148 6.713,4.8136 9.0927,8.0549 3.8804,5.2854 5.9937,13.6299 7.7221,19.9241 0.2291,0.8352 0.4586,1.6705 0.6906,2.5049 1.5771,5.668 3.0749,11.0602 5.2682,16.5449 0.6539,1.6365 -0.1782,2.199 -1.495,1.2721 -1.7034,-1.1984 -3.4358,-2.313 -5.2512,-3.3336 -3.1617,-1.7773 -6.4423,-3.3347 -9.8865,-4.4847 -4.699,-1.5697 -9.2055,-2.8784 -13.5748,-5.3014 -2.1458,-1.1899 -4.1537,-2.5293 -6.0356,-4.1041 -3.9543,-3.3089 -7.5499,-7.9802 -9.3496,-12.8422 -0.1326,-0.3586 -0.4202,-0.9962 -0.0189,-1.2807 0.4216,-0.2987 0.9011,0.2266 1.1689,0.5002 1.6849,1.7197 3.4748,2.9907 5.5847,4.1298 1.8768,1.0137 3.7492,1.5119 5.7686,2.1168 5.5644,1.6659 11.4555,2.6318 16.3751,5.9244 3.0073,2.0125 5.6383,4.4728 8.1538,7.0604 0.0223,0.023 0.0607,0.0588 0.1048,0.094 z m -14.0509,-15.665 c -1.3638,-1.8868 -2.4872,-3.7701 -3.647,-5.7795 -1.1495,-1.9916 -2.1629,-4.1244 -3.4604,-6.0195 -2.8558,-4.1711 -6.2286,-7.4156 -10.4863,-10.1076 -5.1338,-3.2459 -10.8302,-4.2275 -16.7394,-5.0324 -2.6527,-0.3615 -5.3438,-0.4454 -8.0171,-0.5216 -0.4472,-0.0129 -1.1209,0.049 -1.1962,0.6138 -0.0418,0.3125 0.1813,0.6468 0.4368,0.8112 4.0156,2.5849 7.812,5.5097 11.4598,8.5877 3.9821,3.3611 7.7943,6.9857 11.9955,10.0738 5.8388,4.2917 12.4649,5.4375 18.7992,8.5662 0.7044,0.348 1.4844,-0.3217 0.8551,-1.1921 z m 59.2749,130.8479 c 0.0453,-0.0682 0.0716,-0.2083 0.0771,-0.2618 0.3506,-3.3015 0.47,-6.6317 0.7184,-9.9426 0.2835,-3.7821 0.7333,-7.4921 1.5757,-11.1955 1.0879,-4.7803 2.5619,-9.5008 3.8523,-14.2325 2.2313,-8.1807 4.5257,-17.4163 1.8813,-25.7703 l -0.009,-0.0281 -0.005,-0.0289 c -0.0631,-0.3663 -0.2753,-1.0939 0.1985,-1.2732 0.4265,-0.1616 0.7029,0.3529 0.9002,0.6325 5.4621,7.7444 9.3835,17.3879 8.9438,27.0039 -0.5695,12.442 -4.2339,21.118 -9.5951,32.2258 -1.5691,3.2505 -3.1474,6.4887 -4.836,9.6796 -2.0108,3.7987 -3.9792,7.5863 -5.8035,11.4801 -0.1667,0.4942 -0.5368,1.584 -1.2265,1.4302 -0.5646,-0.1257 -0.654,-0.9773 -0.6385,-1.4525 0.1644,-5.1169 -1.0678,-9.7343 -2.7893,-14.4878 -1.8083,-4.9909 -4.1001,-9.8543 -6.3403,-14.6642 -2.5344,-5.4414 -5.0528,-10.8729 -7.2272,-16.4719 -1.535,-3.9514 -2.9113,-8.0197 -3.9843,-12.1221 -0.6852,-2.6186 -1.4291,-5.7889 -1.5041,-8.5012 -0.01,-0.3549 -0.0564,-0.9604 0.405,-1.0612 0.5674,-0.1243 0.8396,0.8782 0.9819,1.2626 1.1203,3.0254 2.7298,5.589 4.6541,8.1486 3.2264,4.292 6.9982,8.1606 10.2585,12.45 2.726,3.5862 4.9657,7.2008 6.688,11.3791 2.0598,4.9975 3.0758,10.0245 2.7501,15.4359 0,0.0627 0.0155,0.2738 0.0736,0.3655 z m -9.4146,41.4046 c -0.0244,0.0931 -0.0754,0.33 -0.0152,0.3964 0.1028,0.0101 0.2621,-0.2191 0.3051,-0.2907 1.032,-1.7115 1.8741,-3.6518 2.6673,-5.4859 0.9744,-2.2539 1.9111,-4.5228 2.9408,-6.7527 0.4933,-1.0679 1.0069,-2.1268 1.5557,-3.1675 1.7458,-3.3092 3.9932,-6.5248 6.118,-9.6045 2.5459,-3.6905 5.1178,-7.3612 7.4792,-11.1746 2.5969,-4.1934 5.0542,-8.7023 6.6073,-13.3973 1.0621,-3.2112 1.4293,-6.9799 1.2457,-10.341 l -0.002,-0.0323 0.003,-0.0324 c 0.0373,-0.3881 0.0822,-1.1142 0.5993,-1.1589 0.464,-0.0398 0.6496,0.5279 0.7696,0.8733 4.0434,11.65 0.4941,27.6408 -4.4756,38.5151 -3.2287,7.0661 -7.8719,13.9312 -13.5104,19.2956 -2.9437,2.8005 -6.1501,5.2679 -9.3379,7.7774 -2.9128,2.2929 -5.882,4.6664 -8.3755,7.4202 -0.3506,0.3873 -1.1643,1.3104 -1.7639,0.8934 -0.4416,-0.3074 -0.2761,-1.0401 -0.1437,-1.4712 2.0964,-6.8249 1.9873,-13.4815 0.8478,-20.4517 -0.4932,-3.0162 -1.2729,-6.0011 -1.963,-8.9778 -0.9082,-3.9182 -1.653,-7.7991 -2.1505,-11.7941 -0.4555,-3.6555 -0.5345,-7.462 -0.4535,-11.1422 0.1017,-4.6248 0.4878,-9.2688 1.1283,-13.8498 l 0.003,-0.0212 0.005,-0.0206 c 0.0802,-0.33 0.1857,-0.8422 0.6265,-0.8367 0.5709,0.007 0.6682,1.1093 0.753,1.5227 0.8381,4.0963 1.9816,8.0349 3.4525,11.9467 1.185,3.1514 2.5587,6.2126 3.8202,9.3311 1.7794,4.3988 3.0746,8.5653 3.7618,13.2801 0.9366,6.4257 -0.2312,12.7202 -2.4983,18.7511 z m 8.5948,-67.834 c 0.0399,0.5499 0.0946,1.6888 -0.6327,1.8255 -0.5823,0.1094 -1.0458,-0.5924 -1.226,-1.0602 -1.4161,-3.681 -3.0167,-6.6797 -5.5084,-9.7512 -7.8519,-9.6802 -17.1672,-18.0009 -24.4461,-28.1451 -2.3442,-3.2669 -4.3728,-6.7697 -6.3108,-10.2889 -1.6499,-2.9956 -3.1096,-6.1051 -4.5261,-9.2164 -0.1641,-0.3604 -0.3122,-0.9221 0.1023,-1.183 0.6064,-0.3818 1.2431,0.5583 1.4961,0.9773 1.6742,2.7739 5.0651,5.5853 7.5872,7.5964 2.9703,2.3682 6.0567,4.5855 9.0654,6.904 9.8403,7.5831 17.2496,14.4221 20.0353,27.1137 0.0438,0.0956 0.148,0.2936 0.2325,0.3033 0.0854,-0.0521 0.0665,-0.326 0.055,-0.4047 -0.521,-3.5407 -1.5106,-6.862 -2.6332,-10.2477 -0.9945,-2.9993 -2.0727,-6.022 -2.6392,-9.1379 -0.6789,-3.7329 -1.0023,-7.5216 -1.2609,-11.3034 -0.2876,-4.2007 -0.5102,-8.3973 -0.9075,-12.5907 -0.5511,-5.811 -2.1354,-15.456 -5.2384,-20.3033 -0.2159,-0.3372 -0.6124,-0.9874 -0.1681,-1.3168 0.4182,-0.3102 0.9043,0.1753 1.1604,0.4689 5.7969,6.6508 10.4733,14.4305 13.9005,22.5501 2.6845,6.361 4.9305,13.6815 5.5948,20.5786 0.287,2.9784 0.2623,5.9863 0.0564,8.969 -0.3521,5.0951 -1.2349,10.1216 -2.1285,15.1434 -0.7147,4.0162 -1.5944,8.4431 -1.66,12.5191 z m -22.8297,-57.1582 c 0.0126,-0.1321 -0.0848,-0.3744 -0.124,-0.454 -1.4365,-2.9274 -3.0076,-5.7554 -4.6412,-8.576 -1.4488,-2.5006 -2.6166,-5.1135 -3.5647,-7.8435 -2.5235,-7.2658 -3.746,-14.892 -5.7093,-22.3084 -0.7436,-2.8094 -1.3207,-5.7296 -2.2769,-8.4717 -1.1291,-3.2379 -2.8495,-6.9691 -5.2389,-9.4811 -1.0544,-1.1085 -0.3157,-1.9575 0.7954,-1.1432 11.3063,8.2898 19.3521,21.2958 22.9391,34.7613 3.2878,12.3398 2.4477,25.4097 5.4315,37.793 0.1051,0.4353 0.4735,1.6009 -0.1306,1.8292 -0.458,0.173 -0.8496,-0.4097 -1.1037,-0.7033 -1.6943,-1.9572 -3.6652,-4.0754 -5.6087,-5.7857 -2.3872,-2.1008 -5.0422,-4.0233 -7.6625,-5.8239 -2.8215,-1.9383 -5.6031,-3.9348 -8.4405,-5.8496 -4.3003,-2.9025 -8.5029,-5.5704 -12.2089,-9.2551 -4.229,-4.2052 -7.5594,-8.9232 -10.1577,-14.2781 -0.6731,-1.3867 0.1272,-2.1695 1.32,-0.9693 0.295,0.2967 0.6038,0.5797 0.9243,0.8493 1.9309,1.6238 4.2714,2.7412 6.5778,3.7239 2.7827,1.1862 5.5964,2.2357 8.337,3.531 4.773,2.2562 9.4236,5.0788 13.1312,8.8801 2.7057,2.7736 4.9497,6.1819 7.1954,9.3425 0.0338,0.0521 0.1337,0.183 0.2159,0.2326 z" />
      <defs
         id="defs170">
        <linearGradient
           id="grad10">
          <stop
             id="stop154"
             stop-opacity="1.0000"
             stop-color="#cc8a40"
             offset="0.0000%" />
          <stop
             id="stop156"
             stop-opacity="1.0000"
             stop-color="#ffffff"
             offset="12.0000%" />
          <stop
             id="stop158"
             stop-opacity="1.0000"
             stop-color="#d6d6d6"
             offset="0.0000%" />
          <stop
             id="stop160"
             stop-opacity="1.0000"
             stop-color="#ffffff"
             offset="83887360.0000%" />
          <stop
             id="stop162"
             stop-opacity="1.0000"
             stop-color="#ffffff"
             offset="0.0000%" />
          <stop
             id="stop164"
             stop-opacity="1.0000"
             stop-color="#ffffff"
             offset="5.0000%" />
          <stop
             id="stop166"
             stop-opacity="1.0000"
             stop-color="#000000"
             offset="0.0000%" />
        </linearGradient>
        <linearGradient
           gradientUnits="objectBoundingBox"
           gradientTransform="rotate(90,0.5,0.5)"
           y2="1"
           x2="0"
           y1="0"
           x1="0"
           id="grad11"
           xlink:href="#grad10" />
      </defs>
      <path
         id="path172"
         style="fill:url(#grad11)"
         d="m 446.7968,305.7901 c -2.5063,-6.2676 -3.7394,-11.0419 -5.283,-16.5894 -2.3033,-8.2786 -4.4049,-16.9228 -8.3451,-22.2897 -2.4241,-3.3018 -5.701,-6.043 -8.9624,-7.9378 -3.4759,-2.0194 -7.1873,-2.5854 -11.4335,-2.4476 -0.7507,0.0243 -1.0025,0.2019 -0.1578,0.5746 4.5647,2.0148 8.1841,6.6677 10.638,10.8491 1.7897,3.0494 3.3534,6.3383 4.9256,9.4639 1.5142,3.0099 2.8753,6.1516 4.7446,8.9644 0.9619,1.4479 1.9971,2.7913 3.0351,4.1785 1.0492,1.4016 2.1033,2.8487 3.0904,4.4931 0.5216,0.8685 -0.1063,1.1704 -0.7213,0.538 -3.0998,-3.1887 -5.5403,-5.3003 -8.0847,-7.0029 -4.8614,-3.2536 -10.758,-4.223 -16.2594,-5.87 -1.8315,-0.5485 -3.7898,-1.0377 -5.8496,-2.1503 -1.8175,-0.9813 -3.7197,-2.199 -5.6872,-4.2072 -0.8399,-0.857 -0.7033,-0.3801 -0.4403,0.3306 1.9226,5.1943 5.7608,9.7652 9.2225,12.662 1.8552,1.5525 3.7933,2.8518 5.9679,4.0577 4.4564,2.4714 8.7143,3.6701 13.5027,5.2696 3.4776,1.1612 6.7711,2.7246 9.9609,4.5177 1.4754,0.8295 3.1216,1.8326 5.2879,3.3568 0.5526,0.3889 1.4915,0.8469 0.8487,-0.7611 z" />
      <defs
         id="defs190">
        <linearGradient
           id="grad12">
          <stop
             id="stop174"
             stop-opacity="1.0000"
             stop-color="#cc8a40"
             offset="0.0000%" />
          <stop
             id="stop176"
             stop-opacity="1.0000"
             stop-color="#ffffff"
             offset="12.0000%" />
          <stop
             id="stop178"
             stop-opacity="1.0000"
             stop-color="#d6d6d6"
             offset="0.0000%" />
          <stop
             id="stop180"
             stop-opacity="1.0000"
             stop-color="#ffffff"
             offset="83887360.0000%" />
          <stop
             id="stop182"
             stop-opacity="1.0000"
             stop-color="#ffffff"
             offset="0.0000%" />
          <stop
             id="stop184"
             stop-opacity="1.0000"
             stop-color="#ffffff"
             offset="5.0000%" />
          <stop
             id="stop186"
             stop-opacity="1.0000"
             stop-color="#000000"
             offset="0.0000%" />
        </linearGradient>
        <linearGradient
           gradientUnits="objectBoundingBox"
           gradientTransform="rotate(97,0.5,0.5)"
           y2="1"
           x2="0"
           y1="0"
           x1="0"
           id="grad13"
           xlink:href="#grad12" />
      </defs>
      <path
         id="path192"
         style="fill:url(#grad13)"
         d="m 467.5081,341.3537 c -2.9177,-12.1077 -2.2117,-25.7072 -5.4288,-37.783 -2.7471,-10.3113 -9.5291,-24.811 -22.7782,-34.5253 -0.6478,-0.4746 -0.9334,-0.239 -0.2301,0.5006 1.9662,2.0671 3.8412,5.3571 5.3332,9.6357 0.8953,2.5668 1.5628,5.7689 2.2866,8.5033 1.8547,7.0065 3.2159,15.1254 5.7,22.2772 0.9718,2.7984 2.1166,5.3289 3.5304,7.7693 1.5901,2.7454 3.0914,5.4152 4.6554,8.6019 0.5157,1.0508 -0.2864,1.4931 -0.8357,0.6488 -3.0241,-4.2559 -4.7848,-6.8611 -7.1451,-9.2805 -3.0154,-3.0916 -7.1217,-6.0096 -13.0072,-8.7916 -6.4657,-3.0558 -12.1667,-4.373 -15.9602,-8.1899 -0.9327,-0.9386 -1.0126,-0.3119 -0.6289,0.4788 2.5112,5.1754 5.7288,9.8402 10.0744,14.1611 3.7538,3.7325 7.7767,6.2544 12.1461,9.2036 2.814,1.8991 5.5917,3.8924 8.4434,5.8519 2.5159,1.7289 5.4124,3.8395 7.7032,5.8552 1.3838,1.2178 3.7894,3.6783 5.6497,5.827 0.4918,0.5685 0.9703,1.2427 0.4918,-0.7441 z" />
      <defs
         id="defs210">
        <linearGradient
           id="grad14">
          <stop
             id="stop194"
             stop-opacity="1.0000"
             stop-color="#cc8a40"
             offset="0.0000%" />
          <stop
             id="stop196"
             stop-opacity="1.0000"
             stop-color="#ffffff"
             offset="12.0000%" />
          <stop
             id="stop198"
             stop-opacity="1.0000"
             stop-color="#d6d6d6"
             offset="0.0000%" />
          <stop
             id="stop200"
             stop-opacity="1.0000"
             stop-color="#ffffff"
             offset="83887360.0000%" />
          <stop
             id="stop202"
             stop-opacity="1.0000"
             stop-color="#ffffff"
             offset="0.0000%" />
          <stop
             id="stop204"
             stop-opacity="1.0000"
             stop-color="#ffffff"
             offset="5.0000%" />
          <stop
             id="stop206"
             stop-opacity="1.0000"
             stop-color="#000000"
             offset="0.0000%" />
        </linearGradient>
        <linearGradient
           gradientUnits="objectBoundingBox"
           gradientTransform="rotate(106,0.5,0.5)"
           y2="1"
           x2="0"
           y1="0"
           x1="0"
           id="grad15"
           xlink:href="#grad14" />
      </defs>
      <path
         id="path212"
         style="fill:url(#grad15)"
         d="m 482.7144,384.1473 c 0.1414,-9.0975 5.0027,-23.4357 3.7343,-36.6025 -1.0829,-11.2432 -7.2878,-29.0013 -19.3915,-42.8875 -0.5515,-0.6325 -0.8843,-0.5692 -0.3066,0.3335 2.5843,4.0372 4.5508,12.5462 5.3043,20.4944 0.858,9.054 0.8434,16.5988 2.1635,23.8581 1.0935,6.0143 4.1464,11.7312 5.2749,19.3999 0.1413,0.9606 -0.7144,1.2797 -1.1234,0.2975 -2.9018,-13.2826 -11.1841,-20.2005 -19.8868,-26.907 -2.8811,-2.2201 -6.1405,-4.5718 -9.0711,-6.9084 -3.321,-2.6483 -6.2242,-5.2869 -7.6872,-7.7104 -0.7216,-1.1952 -1.2136,-1.0162 -0.8395,-0.1942 1.5276,3.3554 2.9745,6.3966 4.5114,9.1871 2.0944,3.8032 4.0864,7.1836 6.2835,10.2458 7.5458,10.5158 15.8619,17.5607 24.4306,28.1248 2.4731,3.0484 4.0464,5.8918 5.5759,9.8677 0.2932,0.7618 1.1863,1.5563 1.0277,-0.5988 z" />
      <defs
         id="defs230">
        <linearGradient
           id="grad16">
          <stop
             id="stop214"
             stop-opacity="1.0000"
             stop-color="#cc8a40"
             offset="0.0000%" />
          <stop
             id="stop216"
             stop-opacity="1.0000"
             stop-color="#ffffff"
             offset="12.0000%" />
          <stop
             id="stop218"
             stop-opacity="1.0000"
             stop-color="#d6d6d6"
             offset="0.0000%" />
          <stop
             id="stop220"
             stop-opacity="1.0000"
             stop-color="#ffffff"
             offset="83887360.0000%" />
          <stop
             id="stop222"
             stop-opacity="1.0000"
             stop-color="#ffffff"
             offset="0.0000%" />
          <stop
             id="stop224"
             stop-opacity="1.0000"
             stop-color="#ffffff"
             offset="5.0000%" />
          <stop
             id="stop226"
             stop-opacity="1.0000"
             stop-color="#000000"
             offset="0.0000%" />
        </linearGradient>
        <linearGradient
           gradientUnits="objectBoundingBox"
           gradientTransform="rotate(140,0.5,0.5)"
           y2="1"
           x2="0"
           y1="0"
           x1="0"
           id="grad17"
           xlink:href="#grad16" />
      </defs>
      <path
         id="path232"
         style="fill:url(#grad17)"
         d="m 468.8058,464.5208 c 4.833,-5.3374 11.7305,-9.5074 17.7359,-15.2207 5.5851,-5.3132 10.2246,-12.1789 13.4158,-19.1624 4.2929,-9.3937 8.7461,-25.8475 4.4604,-38.1958 -0.2582,-0.7442 -0.4327,-0.8809 -0.5353,0.1859 0.1743,3.197 -0.147,7.1132 -1.2669,10.4993 -4.1915,12.6718 -15.58,25.4225 -20.2322,34.2422 -2.8511,5.4055 -4.9722,11.7721 -7.176,15.4273 -0.5029,0.8336 -1.352,0.5659 -1.0675,-0.4594 2.8466,-7.5635 3.2056,-13.5984 2.4828,-18.5574 -1.922,-13.185 -7.7914,-18.7028 -11.0305,-34.5335 -0.2595,-1.2677 -0.3276,-1.5486 -0.5406,-0.671 -1.3493,9.6492 -1.4247,18.8572 -0.6744,24.8796 1.171,9.3973 3.1732,15.0177 4.1111,20.7556 1.0915,6.6749 1.3457,13.4628 -0.8608,20.647 -0.2394,0.7804 -0.2696,1.7623 1.1782,0.1633 z" />
      <defs
         id="defs250">
        <linearGradient
           id="grad18">
          <stop
             id="stop234"
             stop-opacity="1.0000"
             stop-color="#cc8a40"
             offset="0.0000%" />
          <stop
             id="stop236"
             stop-opacity="1.0000"
             stop-color="#ffffff"
             offset="12.0000%" />
          <stop
             id="stop238"
             stop-opacity="1.0000"
             stop-color="#d6d6d6"
             offset="0.0000%" />
          <stop
             id="stop240"
             stop-opacity="1.0000"
             stop-color="#ffffff"
             offset="83887360.0000%" />
          <stop
             id="stop242"
             stop-opacity="1.0000"
             stop-color="#ffffff"
             offset="0.0000%" />
          <stop
             id="stop244"
             stop-opacity="1.0000"
             stop-color="#ffffff"
             offset="5.0000%" />
          <stop
             id="stop246"
             stop-opacity="1.0000"
             stop-color="#000000"
             offset="0.0000%" />
        </linearGradient>
        <linearGradient
           gradientUnits="objectBoundingBox"
           gradientTransform="rotate(112,0.5,0.5)"
           y2="1"
           x2="0"
           y1="0"
           x1="0"
           id="grad19"
           xlink:href="#grad18" />
      </defs>
      <path
         id="path252"
         style="fill:url(#grad19)"
         d="m 481.4639,428.693 c 2.0613,-4.4013 3.8705,-7.8318 5.823,-11.5209 1.834,-3.4657 3.3817,-6.6673 4.8287,-9.6651 5.9084,-12.2415 9.0096,-20.1908 9.553,-32.059 0.3534,-7.7245 -2.1739,-17.2485 -8.8657,-26.7362 -0.4534,-0.6428 -0.5055,-0.736 -0.3244,0.3203 2.5539,8.068 0.6521,16.7432 -1.8764,26.0131 -1.2915,4.7352 -2.8529,9.8428 -3.8477,14.2147 -1.8054,7.9357 -1.6098,14.7207 -2.2858,21.0879 -0.0998,0.9411 -1.0126,0.9009 -1.0074,-0.1631 0.3698,-6.1494 -1.0485,-11.2077 -2.7179,-15.2579 -1.8801,-4.5607 -4.1949,-8.0759 -6.6328,-11.2829 -3.4715,-4.5669 -7.1921,-8.3708 -10.2601,-12.4519 -1.8886,-2.5123 -3.5303,-5.0626 -4.7135,-8.2575 -0.4608,-1.2444 -0.5795,-1.2651 -0.5545,-0.3623 0.108,3.8927 2.0462,11.6921 5.4594,20.4794 4.5365,11.6806 10.1828,21.7937 13.5708,31.1455 1.669,4.6076 2.9878,9.2778 2.8148,14.6476 -0.0263,0.8113 0.3444,1.8954 1.0365,-0.1517 z" />
      <defs
         id="defs270">
        <linearGradient
           id="grad20">
          <stop
             id="stop254"
             stop-opacity="1.0000"
             stop-color="#cc8a40"
             offset="0.0000%" />
          <stop
             id="stop256"
             stop-opacity="1.0000"
             stop-color="#ffffff"
             offset="12.0000%" />
          <stop
             id="stop258"
             stop-opacity="1.0000"
             stop-color="#d6d6d6"
             offset="0.0000%" />
          <stop
             id="stop260"
             stop-opacity="1.0000"
             stop-color="#ffffff"
             offset="83887360.0000%" />
          <stop
             id="stop262"
             stop-opacity="1.0000"
             stop-color="#ffffff"
             offset="0.0000%" />
          <stop
             id="stop264"
             stop-opacity="1.0000"
             stop-color="#ffffff"
             offset="5.0000%" />
          <stop
             id="stop266"
             stop-opacity="1.0000"
             stop-color="#000000"
             offset="0.0000%" />
        </linearGradient>
        <linearGradient
           gradientUnits="objectBoundingBox"
           gradientTransform="rotate(88,0.5,0.5)"
           y2="1"
           x2="0"
           y1="0"
           x1="0"
           id="grad21"
           xlink:href="#grad20" />
      </defs>
      <path
         id="path272"
         style="fill:url(#grad21)"
         d="m 424.3409,279.9682 c -1.6745,-2.317 -2.606,-3.9717 -3.6707,-5.8164 -1.2388,-2.1463 -2.2371,-4.2307 -3.443,-5.9917 -2.9655,-4.3312 -6.3239,-7.4345 -10.3613,-9.9869 -4.9075,-3.103 -10.2304,-4.1067 -16.5679,-4.97 -2.4991,-0.3406 -5.0381,-0.4343 -7.9713,-0.5179 -1.1918,-0.0338 -0.6622,0.5393 -0.5144,0.6344 4.0184,2.5866 7.8458,5.5335 11.5042,8.6207 3.8982,3.29 7.9189,7.0759 11.9729,10.0557 5.9344,4.3622 12.2461,5.322 18.735,8.5273 0.1891,0.0933 0.7511,0.0458 0.3165,-0.5552 z" />
    </g>
    <path
       id="path275"
       style="fill:#fefefe;fill-rule:evenodd"
       d="m 440.9108,370.5292 -287.9968,4.2269 c -0.1516,0.4755 -0.3057,0.9499 -0.4529,1.4274 l 291.345,3.4624 c -0.8696,-3.0806 -1.84,-6.1186 -2.8953,-9.1167 z m -107.659,-97.241 c 7.0026,1.6846 13.8195,3.8477 20.407,6.4652 l -108.7022,-1.2918 c 4.1528,-1.5359 8.3941,-2.8896 12.709,-4.064 z m 27.4577,9.4791 c 4.6867,2.144 9.244,4.5223 13.6603,7.1143 l -150.3656,-1.7871 c 2.1423,-1.1899 4.3161,-2.329 6.5199,-3.4166 z m 17.781,9.6212 c 3.746,2.362 7.3826,4.8826 10.8984,7.5537 l -180.6364,-2.1469 c 1.4036,-1.0148 2.8217,-2.0108 4.2608,-2.9781 z m 13.6362,9.6819 c 3.1536,2.5109 6.2045,5.1456 9.1465,7.8951 l -204.6367,-2.4319 c 1.0019,-0.8928 2.0159,-1.7722 3.0414,-2.6386 z m 11.0676,9.7197 c 2.7143,2.6261 5.3304,5.353 7.8436,8.1735 l -224.3978,-2.6667 c 0.743,-0.7955 1.4946,-1.5823 2.2545,-2.3614 z m 9.2391,9.7464 c 2.3563,2.7188 4.6174,5.5233 6.778,8.4066 l -240.978,-2.8641 c 0.5643,-0.7166 1.1392,-1.4241 1.7158,-2.1302 z m 7.7762,9.7681 c 2.0481,2.797 4.0056,5.6646 5.8629,8.602 L 171.1386,336.877 c 0.4322,-0.6491 0.8708,-1.2939 1.3127,-1.9361 z m 6.6016,9.7853 c 1.7722,2.8609 3.4521,5.7846 5.0353,8.7676 l -266.7171,-3.1698 c 0.3326,-0.592 0.6645,-1.1847 1.0048,-1.7719 z m 5.5798,9.8002 c 1.5181,2.9145 2.944,5.8851 4.2748,8.9068 l -276.5917,-3.2872 c 0.2557,-0.5451 0.5078,-1.0925 0.7699,-1.6341 z m 4.6715,9.8134 c 1.2804,2.96 2.4711,5.9685 3.5653,9.0225 l -284.7524,-3.384 c 0.1957,-0.5073 0.3896,-1.0157 0.5907,-1.5201 z m 6.9384,19.6625 c 0.8384,3.0265 1.5857,6.0914 2.2368,9.191 l -296.4474,-3.5232 c 0.1066,-0.4529 0.22,-0.9032 0.3306,-1.3546 z m 2.3798,9.8472 c 0.625,3.0497 1.1534,6.1335 1.5931,9.2465 l -300.1544,-3.5673 c 0.0719,-0.4334 0.14,-0.8682 0.2156,-1.3004 z m 1.6788,9.8575 c 0.4213,3.0677 0.7625,6.161 0.9982,9.284 L 146.504,405.7591 c 0.0421,-0.4225 0.0905,-0.843 0.1358,-1.2644 z m 1.0352,9.8669 c 0.2197,3.077 0.344,6.1794 0.3783,9.3041 l -303.6206,-3.6082 c 0.0149,-0.4157 0.0295,-0.831 0.0473,-1.2458 z m 0.3855,9.8764 c 0.003,0.3775 0.0143,0.7528 0.0143,1.1309 0,2.7432 -0.0747,5.4695 -0.2205,8.1767 l -303.45,-3.6063 c -0.0126,-0.4142 -0.0226,-0.829 -0.0321,-1.244 z m -0.2429,9.8856 c -0.179,3.1239 -0.4506,6.2231 -0.8155,9.294 l -301.9825,-3.589 c -0.0392,-0.4191 -0.0756,-0.839 -0.1117,-1.2589 z m -0.8842,9.8953 c -0.3839,3.1176 -0.8602,6.206 -1.4291,9.2628 l -299.2198,-3.5558 c -0.0699,-0.4305 -0.1464,-0.8593 -0.2125,-1.2913 z m -1.552,9.9047 c -0.5917,3.1047 -1.268,6.1794 -2.0446,9.2145 l -295.1237,-3.5072 c -0.1025,-0.4448 -0.1933,-0.8948 -0.2922,-1.3414 z m -2.2293,9.9148 c -0.8072,3.089 -1.7123,6.1381 -2.7051,9.1477 l -289.5798,-3.4416 c -0.142,-0.4689 -0.2815,-0.9392 -0.4196,-1.4098 z m -2.9581,9.9257 c -1.0306,3.0663 -2.1628,6.0854 -3.3802,9.0609 l -282.55,-3.3579 c -0.1905,-0.4993 -0.3841,-0.9963 -0.5694,-1.4978 z" />
    <path
       id="path277"
       style="fill:#020101;fill-rule:evenodd"
       d="m 256.8939,361.1552 c 2.0621,-4.2101 3.8607,-8.5436 5.909,-12.7603 1.0234,-2.1076 1.8939,-4.2848 2.8088,-6.4408 3.8039,-8.9638 7.0089,-18.1642 10.4765,-27.2592 0.3116,-0.8178 0.7258,-1.5912 1.2268,-2.3084 1.769,-2.5333 4.3765,-4.0855 6.998,-5.5962 1.1566,-0.6665 2.3519,-1.3296 3.4063,-2.1523 1.521,-1.1867 2.9452,-2.4719 4.3009,-3.844 1.9947,-2.0191 4.1261,-4.7064 5.1928,-7.3554 1.4345,-3.455 5.0118,-3.5401 6.7912,-0.2535 1.8919,3.8446 3.5807,7.7897 5.3415,11.695 1.144,2.5372 2.2623,5.104 3.7177,7.4829 1.7621,2.8813 4.0843,5.3893 6.1103,8.0821 2.1786,2.8953 4.1373,6.0281 5.7373,9.2801 2.572,5.228 4.6953,10.6649 6.725,16.1221 2.2191,5.9663 4.2975,11.9883 6.7207,17.8769 0.9361,2.2738 1.9174,4.5364 3.0197,6.7362 2.0867,-5.6339 5.1478,-11.0751 8.9764,-15.6736 2.2144,-2.6599 3.4094,-3.9703 6.499,-1.37 3.4656,2.9165 7.1901,5.4354 11.0608,7.7788 1.9337,1.1704 2.1938,1.4949 2.7134,3.7048 0.2189,0.9297 0.4234,1.8627 0.6173,2.7982 0.8123,3.9139 1.4362,7.8641 2.254,11.7772 0.6826,3.2654 1.5035,6.627 2.9205,9.6598 1.0106,2.1629 3.3447,3.7801 5.145,5.2645 1.6877,1.3909 3.2643,2.9961 4.695,4.6494 0.8146,0.9418 1.4984,1.9578 2.0503,3.075 2.2938,4.6411 4.8231,9.1663 6.9304,13.8988 1.7098,3.8397 2.9698,7.8888 4.9422,11.6085 1.5058,2.8394 3.2308,5.5543 4.8658,8.3193 2.2605,3.8214 4.4501,7.6843 6.672,11.528 4.7818,8.2732 9.5057,16.5822 13.9842,25.0244 l 2.7776,5.2355 -279.4399,10.8789 16.2749,-46.2787 c 1.0802,-3.072 3.6787,-4.884 6.3649,-6.4634 1.4082,-0.8276 2.8163,-1.6551 4.2164,-2.4963 2.7561,-1.6554 4.2115,-3.0274 6.2724,-5.4421 3.4654,-6.5494 7.4798,-12.8066 11.6678,-18.9138 1.6574,-2.4167 3.3832,-4.7852 5.1052,-7.1558 2.7962,-3.8497 5.6678,-7.645 8.4147,-11.5306 0.6585,-5.1398 1.2231,-10.3075 2.3279,-15.3783 1.2334,-5.4626 3.341,-10.6486 5.7978,-15.6656 l 0.2704,-0.5519 13.4646,-13.5374 c 1.5628,-1.5714 3.0615,-1.5774 4.8411,-0.228 2.7303,2.0704 5.3329,4.3006 8.0114,6.436 2.3519,1.8753 4.7142,3.7603 7.2139,5.4366 1.3672,0.9169 2.6888,1.9174 4.1073,2.7544 1.0936,0.6453 2.2981,1.1343 3.5028,1.5522 z" />
    <path
       id="path279"
       style="fill:#562600;fill-rule:evenodd"
       d="m 207.9067,390.5515 c 0.6619,-5.1505 1.2305,-10.3891 2.337,-15.4674 1.2257,-5.4286 3.3113,-10.5521 5.7531,-15.5387 l 0.2289,-0.4672 13.3979,-13.4703 c 1.1022,-1.1083 2.2445,-1.5737 4.0889,-0.1753 2.7234,2.0649 5.3269,4.296 8.0002,6.4274 2.3434,1.8684 4.7635,3.7956 7.2521,5.4644 1.3597,0.912 2.7306,1.9431 4.1353,2.7721 1.24,0.7316 2.6601,1.2878 4.0854,1.7627 2.1552,-4.349 4.0122,-8.8489 6.1327,-13.2139 1.0297,-2.1205 1.9008,-4.2992 2.8208,-6.4675 3.8031,-8.9618 7.016,-18.182 10.4845,-27.279 0.2951,-0.7745 0.6866,-1.5049 1.1613,-2.1844 1.7131,-2.4533 4.277,-3.9657 6.8143,-5.4277 1.1704,-0.6745 2.4064,-1.3651 3.4725,-2.197 1.5562,-1.2142 2.9695,-2.4897 4.3562,-3.8929 2.0334,-2.0584 4.2252,-4.834 5.3148,-7.54 1.1913,-2.8689 4.1328,-3.2006 5.75,-0.2139 1.8885,3.8377 3.5733,7.7742 5.3309,11.6726 1.1541,2.5596 2.2829,5.1465 3.7512,7.5465 1.7647,2.8853 4.109,5.4266 6.1412,8.1277 2.138,2.8412 4.1107,5.9969 5.681,9.1884 2.5587,5.2008 4.6827,10.6392 6.7021,16.0689 2.2196,5.9674 4.3051,12.0075 6.7281,17.8952 1.0696,2.5989 2.2649,5.3412 3.6444,7.9564 2.0801,-6.0624 5.3057,-11.9215 9.3215,-16.7452 2.1652,-2.6008 2.9993,-3.563 5.6898,-1.2984 3.5184,2.9609 7.2177,5.4601 11.133,7.8307 1.8006,1.0896 1.9679,1.2841 2.4525,3.3458 0.2177,0.9247 0.4211,1.853 0.6141,2.7834 0.8124,3.9144 1.4365,7.8656 2.254,11.778 0.6866,3.2849 1.5373,6.7353 2.9624,9.785 1.0415,2.2297 3.219,3.7487 5.2997,5.4641 1.6344,1.3472 3.2336,2.973 4.6259,4.5822 0.7568,0.8751 1.4165,1.8332 1.9702,2.954 2.2886,4.6306 4.8193,9.1589 6.9206,13.8783 1.7155,3.8526 2.981,7.9128 4.9594,11.6437 1.5115,2.85 3.2379,5.5678 4.8789,8.3425 2.2594,3.8196 4.4481,7.6811 6.6689,11.5231 4.7757,8.2626 9.5017,16.5751 13.9741,25.0061 l 0.0252,0.0475 c -6.3325,-1.6049 -12.7006,-3.0709 -19.0894,-4.4183 -19.3726,-4.0854 -39.0467,-7.1188 -58.7339,-9.2093 -16.7165,-1.775 -33.7034,-2.9371 -50.5191,-2.9849 -17.4713,-0.0496 -34.9048,0.3279 -52.3243,1.7742 -16.5017,1.3703 -33.0091,3.6363 -49.3083,6.5462 -13.5511,2.4193 -27.1839,5.4114 -40.4056,9.323 l 11.0147,-31.3211 c 1.0289,-2.9263 3.5639,-4.6598 6.1146,-6.1596 1.4096,-0.8284 2.8197,-1.6571 4.2213,-2.4992 2.9463,-1.7696 4.2842,-3.0623 6.4543,-5.6093 3.4504,-6.5291 7.49,-12.8282 11.6632,-18.9135 1.6544,-2.4124 3.3774,-4.7767 5.0963,-7.1432 2.8228,-3.8861 5.731,-7.7293 8.5012,-11.6529 z" />
    <path
       id="path281"
       style="fill:#ffffff;fill-rule:evenodd"
       d="m 159.3514,470.5225 9.4768,-26.9481 c 0.6837,-1.9444 2.6232,-3.2445 4.7391,-4.4885 1.4477,-0.851 2.979,-1.7527 4.2467,-2.5144 3.1211,-1.8747 4.4249,-2.9514 7.458,-6.5354 3.3224,-6.3279 7.4913,-12.863 11.6357,-18.9066 1.6651,-2.4281 3.4585,-4.8864 5.0471,-7.0733 3.4954,-4.8122 6.5534,-8.869 8.9764,-12.3283 0.6473,-4.9445 1.3099,-11.011 2.3872,-15.9558 1.1492,-5.0897 3.0855,-9.8936 5.5082,-14.8409 l 12.9458,-13.0158 c 3.8449,3.0042 10.9643,9.026 15.4373,12.0259 4.4731,2.9995 4.7211,3.6572 11.5704,5.7127 2.6943,-5.0648 4.9125,-10.5682 7.3721,-15.6321 1.1177,-2.301 1.9131,-4.3169 2.8873,-6.6133 3.8414,-9.0526 5.2607,-13.5714 10.528,-27.3875 1.5815,-4.1482 6.9049,-5.6872 10.4422,-8.4471 1.7338,-1.3525 3.1316,-2.6166 4.6594,-4.1628 2.2337,-2.2611 4.7194,-5.4065 5.9963,-8.5774 1.8267,3.7123 3.5212,7.6631 5.2857,11.5767 1.2073,2.6779 2.372,5.3395 3.9357,7.8957 1.8641,3.0474 4.145,5.4987 6.3113,8.378 2.0352,2.7046 3.9727,5.8416 5.3716,8.6848 7.9175,16.093 12.6468,37.2333 21.0406,48.2678 2.4096,-10.3975 6.0611,-18.4547 11.8437,-23.3711 3.3502,2.8197 6.904,5.3564 12.3329,8.5977 2.2339,9.0429 2.9196,18.705 6.2572,25.8485 1.2091,2.5874 3.3207,4.2556 5.1493,6.0541 2.3377,2.2999 5.1493,3.7154 6.7766,7.0083 2.2276,4.5071 4.8883,9.3205 6.8668,13.764 1.7567,3.9448 2.9629,7.8945 5.0542,11.8379 1.5989,3.0153 3.2579,5.6087 4.9505,8.4705 2.1766,3.6796 4.412,7.6187 6.6528,11.496 3.8088,6.5889 7.8318,13.6596 11.5103,20.425 l -3.1746,-0.7759 -18.3659,-29.9237 -2.9085,3.4516 c -3.2161,0.806 -4.3773,-2.8607 -6.3841,-3.7472 0.0793,-1.9102 0.3382,-4.076 0.6997,-6.2094 0.6033,-3.5561 1.2383,-7.024 -0.0647,-9.0749 l -12.6242,-18.2971 c -1.7264,-2.5018 -10.6051,-4.0921 -17.0666,0.971 l -10.3653,-25.6076 -2.692,10.3507 -9.793,-1.2981 5.5254,19.8147 -16.2766,-12.3518 -4.137,-28.2091 -9.1311,-10.0998 -5.3378,10.1262 11.9878,43.4355 -10.9509,-3.7248 0.0126,-17.7598 c -0.8644,-5.8783 -4.6291,-10.3954 -11.2942,-12.4056 l -2.1288,-31.428 c -1.6488,-3.366 -4.3668,-3.1202 -6.0548,-1.9341 l -3.5403,-9.0434 c -3.1142,4.3539 -1.951,8.0291 4.0035,17.2986 l -10.5676,14.6037 c -3.9984,5.5254 -8.5931,11.3731 -17.4217,10.494 l -0.0991,14.1294 c -2.8816,0.9192 -9.6192,5.5217 -13.2638,12.4842 -0.5646,1.079 -1.2014,2.2241 -1.6637,3.4407 -1.3872,3.6489 -2.3622,7.9452 -4.3644,13.0741 l -3.5292,5.2138 -9.1497,9.437 -0.3747,0.967 c -2.0036,2.2365 -3.5779,3.6137 -6.0106,5.4203 l -0.9484,-0.0479 -7.863,6.3842 8.1606,-13.0731 c 1.2168,-1.9495 1.7644,-4.6394 2.5032,-6.816 l 5.1321,-18.3304 c 1.4528,-0.625 2.6183,-1.5387 3.2021,-2.9904 0.584,-1.452 0.5886,-3.4436 1.4379,-6.2246 l 0.4294,0.2031 0.1985,-0.9223 -1.169,-3.0982 0.218,-8.6805 -1.0893,-1.1958 -5.6248,9.7331 -2.9117,-6.438 c -4.2627,3.9747 -6.0988,7.3125 -7.063,10.5722 -1.0927,3.6942 -0.0246,8.1497 -1.5058,11.6022 -2.7864,3.583 -6.2982,6.0782 -6.5457,10.0239 l -2.2654,3.4696 -6.4406,2.3414 c 4.2373,-6.8496 7.1862,-14.8275 8.8461,-23.9337 -1.0572,-0.2778 -1.6201,1.4643 -2.0672,2.1331 -3.6441,5.4495 -6.3042,8.1675 -10.2751,8.8444 -2.5648,6.1779 -3.4854,14.6536 -3.3078,19.5821 l -8.5912,10.6818 -3.1107,-5.5065 -8.1274,3.3791 c -2.5968,1.0796 -4.4481,4.3828 -5.2212,6.4644 -1.9303,4.8336 -4.3911,12.0705 -7.5519,17.7652 -0.8416,1.5169 -1.4288,1.7999 -2.596,2.0102 z" />
    <path
       id="path283"
       style="fill:#c2c2c2;fill-rule:evenodd"
       d="m 159.3514,470.5225 9.4768,-26.9481 c 0.6837,-1.9444 2.6232,-3.2445 4.7391,-4.4885 1.4477,-0.851 2.979,-1.7527 4.2467,-2.5144 3.1211,-1.8747 4.4249,-2.9514 7.458,-6.5354 3.3224,-6.3279 7.4913,-12.863 11.6357,-18.9066 1.6651,-2.4281 3.4585,-4.8864 5.0471,-7.0733 3.4954,-4.8122 6.5534,-8.869 8.9764,-12.3283 0.6473,-4.9445 1.3099,-11.011 2.3872,-15.9558 1.1492,-5.0897 3.0855,-9.8936 5.5082,-14.8409 l 12.336,-12.4025 c 1.5854,5.5148 4.687,10.1479 5.9107,16.3359 1.0028,5.0713 0.197,11.906 1.8237,16.5083 0.7731,2.1878 3.6819,3.2161 5.3859,4.746 1.0163,0.9125 1.169,0.8329 0.2847,1.7283 -2.3058,2.3351 -6.0825,5.2358 -9.9468,8.2881 l 0.1793,-7.1415 -1.0893,-1.1958 -5.6248,9.7331 -2.9117,-6.438 c -4.2627,3.9747 -6.0988,7.3125 -7.063,10.5722 -1.0927,3.6942 -0.0246,8.1497 -1.5058,11.6022 -2.7864,3.583 -6.2982,6.0782 -6.5457,10.0239 l -2.2654,3.4696 -6.4406,2.3414 c 4.2373,-6.8496 7.1862,-14.8275 8.8461,-23.9337 -1.0572,-0.2778 -1.6201,1.4643 -2.0672,2.1331 -3.6441,5.4495 -6.3042,8.1675 -10.2751,8.8444 -2.5648,6.1779 -3.4854,14.6536 -3.3078,19.5821 l -8.5912,10.6818 -3.1107,-5.5065 -8.1274,3.3791 c -2.5968,1.0796 -4.4481,4.3828 -5.2212,6.4644 -1.9303,4.8336 -4.3911,12.0705 -7.5519,17.7652 -0.8416,1.5169 -1.4288,1.7999 -2.596,2.0102 z m 99.6055,-105.2039 c 2.6149,-4.9718 4.7898,-10.3445 7.1953,-15.2967 1.1177,-2.301 1.9131,-4.3169 2.8873,-6.6133 3.8414,-9.0526 5.2607,-13.5714 10.528,-27.3875 1.5815,-4.1482 6.9049,-5.6872 10.4422,-8.4471 1.7338,-1.3525 3.1316,-2.6166 4.6594,-4.1628 2.2337,-2.2611 4.7194,-5.4065 5.9963,-8.5774 0.1355,0.2753 0.2693,0.5526 0.4034,0.8301 -0.2172,5.9542 -0.027,12.3552 0.6364,19.444 -0.6737,0.6863 -5.5907,4.4702 -6.8625,6.2707 2.5333,3.6034 5.3286,8.022 7.743,10.5693 0.2951,0.3114 0.7978,0.5832 1.4213,0.5912 l 3.7512,0.0504 c 1.2071,0.0161 0.5153,1.3368 0.3819,1.5749 l -6.3312,11.2911 c 0.6024,2.7564 0.5752,6.3689 0.8828,10.2711 0.6666,8.4496 1.2709,15.0881 2.3351,18.8012 0.643,2.2443 2.4247,5.1929 4.1424,7.2905 1.2188,1.4886 2.5508,3.4051 3.775,5.3157 l 6.9519,25.1888 -10.9509,-3.7248 0.0126,-17.7598 c -0.8644,-5.8783 -4.6291,-10.3954 -11.2942,-12.4056 l -2.1288,-31.428 c -1.6488,-3.366 -4.3668,-3.1202 -6.0548,-1.9341 l -3.5403,-9.0434 c -3.1142,4.3539 -1.951,8.0291 4.0035,17.2986 l -10.5676,14.6037 c -3.9984,5.5254 -8.5931,11.3731 -17.4217,10.494 l -0.0991,14.1294 c -2.8816,0.9192 -9.6192,5.5217 -13.2638,12.4842 -0.5646,1.079 -1.2014,2.2241 -1.6637,3.4407 -1.3872,3.6489 -2.3622,7.9452 -4.3644,13.0741 l -3.5292,5.2138 -9.1497,9.437 -0.3747,0.967 c -1.7247,1.9249 -3.1322,3.2144 -5.0416,4.6879 3.0617,-7.3168 6.0702,-14.627 9.7363,-21.3918 1.0232,-1.8882 3.8088,-4.3453 4.0949,-4.7936 2.3331,-3.6546 -0.8289,-4.4684 1.191,-9.7913 0.9103,-2.3989 8.0255,-7.7436 10.1016,-12.4747 1.5218,-3.4679 2.1107,-7.1879 3.1614,-10.9834 1.2807,-4.626 4.255,-10.8337 5.8356,-15.3242 0.2217,-0.6299 0.3111,-1.2263 0.3684,-1.7799 z m 158.7444,100.2545 c 0.7788,1.4067 1.5488,2.8068 2.3033,4.1946 l -3.1746,-0.7759 -2.9928,-4.8761 z" />
    <path
       id="path285"
       style="fill:#ffffff;fill-rule:evenodd"
       d="m 271.8031,402.4401 c -1.7055,-2.9918 -3.3244,-5.3475 -4.1382,-7.4013 -0.6328,-1.5977 -0.6113,-2.9285 -0.7923,-4.0144 -1.0638,1.2463 -2.1534,2.2059 -2.7618,4.3917 -0.0344,1.934 0.3053,4.6867 -0.2759,6.2661 -1.0933,2.9709 -2.3236,4.0651 -3.5146,5.4744 -0.6639,0.7854 -1.8518,2.1486 -2.2391,3.0093 -0.786,1.7476 -0.9446,6.2785 0.2126,9.7593 0.3173,-7.4151 6.0982,-12.9917 13.5093,-17.4851 z" />
    <g
       id="Layer1003">
      <path
         id="path287"
         style="fill:#020101;fill-rule:evenodd"
         d="m 109.6426,511.5851 -0.6683,-1.7272 c -2.148,-5.5503 -2.7658,-10.0792 0.9813,-15.3219 2.6049,-3.6446 6.5724,-6.6634 10.1801,-8.9171 9.3169,-5.8207 21.107,-10.0187 31.5786,-13.2208 0.4987,-0.1524 0.9986,-0.3034 1.4984,-0.4534 0.4314,1.1285 0.8493,2.1371 1.142,2.05 13.3736,-3.9824 27.1747,-7.0183 40.892,-9.4674 16.2992,-2.9099 32.8066,-5.1759 49.3083,-6.5462 17.4195,-1.4463 34.853,-1.8238 52.3243,-1.7742 16.8157,0.0478 33.8026,1.2099 50.5191,2.9849 19.6872,2.0905 39.3613,5.1239 58.7339,9.2093 11.5229,2.4302 22.9804,5.2473 34.2798,8.5674 0.1355,0.0398 0.4469,-1.2082 0.7201,-2.1766 7.1493,2.1004 14.3601,4.1957 21.3847,6.6831 5.4102,1.9157 11.3438,4.2513 16.1193,7.4669 6.3985,4.3083 10.8918,11.1393 7.8404,18.919 l -1.4004,3.571 c 3.3238,0.9166 6.6591,1.7968 9.9715,2.7501 7.1243,2.05 15.3393,4.6452 21.5232,8.7934 5.3436,3.5847 7.09,10.0751 4.8386,15.9961 l -2.885,7.5878 c 1.5459,0.0126 3.0843,0.1105 4.5898,0.2706 5.9643,0.6348 11.9359,2.2767 17.5475,4.3616 7.6462,2.8409 15.338,6.9934 22.287,11.2479 4.3885,2.6868 8.6896,5.5672 12.8066,8.655 l 5.347,4.011 -6.5921,1.1054 c -8.136,1.3643 -16.5353,2.5393 -24.5584,4.622 0.8991,4.5984 1.6338,9.2084 2.0455,13.8879 0.5786,6.5775 0.509,13.1538 0.2807,19.7456 l -0.1868,5.3905 -4.3613,-3.1734 c -7.3119,-5.3206 -14.9656,-10.775 -23.1502,-14.68 -4.6051,-2.1973 -9.4668,-3.9835 -14.3973,-5.3017 -3.9617,-1.0592 -8.0446,-2.3098 -12.1152,-2.8406 -4.9577,-0.6462 -9.2995,-0.9704 -14.0538,-2.8853 -5.8476,-2.3551 -11.0247,-7.6307 -12.0098,-13.9149 -0.5273,-3.3636 0.5282,-8.9053 1.7613,-13.9303 -3.9047,-0.3495 -7.8733,-0.5153 -11.7394,-0.9307 -4.2705,-0.4585 -8.5742,-0.9807 -12.7917,-1.7997 -3.5198,-0.6831 -7.4085,-1.6378 -10.6103,-3.2817 -4.8265,-2.478 -7.6883,-7.4525 -5.1791,-12.5669 1.8441,-3.7586 5.7477,-9.325 8.7748,-13.4236 -5.996,-2.3706 -11.9909,-4.131 -16.2494,-5.3261 -19.9779,-5.607 -41.6375,-8.5295 -62.2788,-10.4034 -21.1965,-1.9243 -42.6453,-2.7567 -63.9288,-2.6868 -22.8426,0.0748 -45.7895,0.8928 -68.5126,3.3029 -23.2284,2.464 -47.7963,6.6743 -69.7034,14.961 -2.2347,0.8453 -4.4438,1.7507 -6.6233,2.718 2.6172,3.6541 5.4269,7.839 6.9081,10.858 2.5092,5.1144 -0.3526,10.0889 -5.1791,12.5669 -3.2018,1.6439 -7.0905,2.5986 -10.6103,3.2817 -4.2175,0.819 -8.5212,1.3412 -12.7917,1.7997 -3.8661,0.4154 -7.8347,0.5812 -11.7394,0.9307 1.2331,5.025 2.2886,10.5667 1.7613,13.9303 -0.9851,6.2842 -6.1622,11.5598 -12.0098,13.9149 -4.7543,1.9149 -9.0961,2.2391 -14.0538,2.8853 -4.0706,0.5308 -8.1535,1.7814 -12.1152,2.8406 -4.9305,1.3182 -9.7922,3.1044 -14.3973,5.3017 -8.1847,3.905 -15.8383,9.3594 -23.1502,14.68 l -4.3613,3.1734 -0.1868,-5.3905 c -0.2283,-6.5918 -0.2979,-13.1681 0.2807,-19.7456 0.4116,-4.6795 1.1464,-9.2895 2.0455,-13.8879 -8.0231,-2.0827 -16.4224,-3.2577 -24.5584,-4.622 l -6.5921,-1.1054 5.347,-4.011 c 4.117,-3.0878 8.4181,-5.9682 12.8066,-8.655 6.949,-4.2545 14.6408,-8.407 22.2869,-11.2479 5.6117,-2.0849 11.5833,-3.7268 17.5475,-4.3616 1.5056,-0.1601 3.044,-0.258 4.5899,-0.2706 l -2.885,-7.5878 c -2.2514,-5.921 -0.505,-12.4114 4.8385,-15.9961 6.184,-4.1482 14.399,-6.7434 21.5233,-8.7934 3.1276,-0.9 6.275,-1.735 9.4147,-2.5969 z" />
      <defs
         id="defs309">
        <linearGradient
           id="grad22">
          <stop
             id="stop289"
             stop-opacity="1.0000"
             stop-color="#c88c02"
             offset="0.0000%" />
          <stop
             id="stop291"
             stop-opacity="1.0000"
             stop-color="#ffffff"
             offset="12.0000%" />
          <stop
             id="stop293"
             stop-opacity="1.0000"
             stop-color="#d6d6d6"
             offset="0.0000%" />
          <stop
             id="stop295"
             stop-opacity="1.0000"
             stop-color="#ffffff"
             offset="83887360.0000%" />
          <stop
             id="stop297"
             stop-opacity="1.0000"
             stop-color="#ffffff"
             offset="0.0000%" />
          <stop
             id="stop299"
             stop-opacity="1.0000"
             stop-color="#ffffff"
             offset="5.0000%" />
          <stop
             id="stop301"
             stop-opacity="1.0000"
             stop-color="#000000"
             offset="0.0000%" />
          <stop
             id="stop303"
             stop-opacity="1.0000"
             stop-color="#ffffff"
             offset="956301312.0000%" />
          <stop
             id="stop305"
             stop-opacity="1.0000"
             stop-color="#000000"
             offset="0.0000%" />
        </linearGradient>
        <linearGradient
           gradientUnits="objectBoundingBox"
           gradientTransform="rotate(-77,0.5,0.5)"
           y2="1"
           x2="0"
           y1="0"
           x1="0"
           id="grad23"
           xlink:href="#grad22" />
      </defs>
      <path
         id="path311"
         style="fill:url(#grad23)"
         d="m 127.4619,544.9346 c 9.1339,-7.3157 19.9195,-13.501 32.4629,-18.2456 40.9782,-15.5009 96.5859,-18.4188 139.8226,-18.5603 37.9414,-0.1243 90.3369,2.8415 127.4608,13.2607 18.7792,5.2704 34.9787,12.0358 40.1987,22.5426 l 14.8032,-37.7445 c 1.8604,-4.7434 -0.3346,-9.5393 -6.1335,-13.444 -7.4566,-5.0207 -20.6783,-8.983 -36.3104,-13.5763 -48.989,-14.3944 -105.9037,-20.5634 -142.8935,-20.6688 -14.427,-0.041 -32.7061,0.1538 -52.128,1.7664 -16.0921,1.3363 -32.9717,3.6395 -49.0953,6.5182 -30.748,5.4899 -58.4761,13.5961 -73.0856,22.7229 -3.7131,2.3199 -6.6202,4.7073 -8.4915,7.1343 -3.0777,3.9924 -2.5458,7.114 -0.9063,11.3504 z" />
      <defs
         id="defs331">
        <linearGradient
           id="grad24">
          <stop
             id="stop313"
             stop-opacity="1.0000"
             stop-color="#3a1e01"
             offset="0.0000%" />
          <stop
             id="stop315"
             stop-opacity="1.0000"
             stop-color="#ffffff"
             offset="12.0000%" />
          <stop
             id="stop317"
             stop-opacity="1.0000"
             stop-color="#d6d6d6"
             offset="0.0000%" />
          <stop
             id="stop319"
             stop-opacity="1.0000"
             stop-color="#ffffff"
             offset="83887360.0000%" />
          <stop
             id="stop321"
             stop-opacity="1.0000"
             stop-color="#ffffff"
             offset="0.0000%" />
          <stop
             id="stop323"
             stop-opacity="1.0000"
             stop-color="#ffffff"
             offset="5.0000%" />
          <stop
             id="stop325"
             stop-opacity="1.0000"
             stop-color="#000000"
             offset="0.0000%" />
          <stop
             id="stop327"
             stop-opacity="1.0000"
             stop-color="#ffffff"
             offset="1056964608.0000%" />
        </linearGradient>
        <linearGradient
           gradientUnits="objectBoundingBox"
           gradientTransform="rotate(91,0.5,0.5)"
           y2="1"
           x2="0"
           y1="0"
           x1="0"
           id="grad25"
           xlink:href="#grad24" />
      </defs>
      <path
         id="path333"
         style="fill:url(#grad25)"
         d="m 112.8988,513.6501 c -11.0316,3.0935 -24.3742,6.1873 -32.5984,11.7041 -4.6177,3.0976 -5.3515,8.4056 -3.7569,12.5993 l 13.4546,35.3877 c 3.1685,-9.1024 14.8744,-11.0765 27.9583,-12.7147 11.9119,-1.4915 29.1371,-2.1806 37.2442,-6.3426 5.9602,-3.0597 4.2504,-8.9377 1.9661,-10.9637 -6.2441,2.0561 -14.934,5.3802 -19.2991,6.6142 -2.8314,0.8006 -5.4517,1.1469 -7.566,0.8472 -3.6956,-0.523 -3.8944,-2.2227 -5.0221,-5.1367 z" />
      <defs
         id="defs353">
        <linearGradient
           id="grad26">
          <stop
             id="stop335"
             stop-opacity="1.0000"
             stop-color="#3a1e01"
             offset="0.0000%" />
          <stop
             id="stop337"
             stop-opacity="1.0000"
             stop-color="#ffffff"
             offset="12.0000%" />
          <stop
             id="stop339"
             stop-opacity="1.0000"
             stop-color="#d6d6d6"
             offset="0.0000%" />
          <stop
             id="stop341"
             stop-opacity="1.0000"
             stop-color="#ffffff"
             offset="83887360.0000%" />
          <stop
             id="stop343"
             stop-opacity="1.0000"
             stop-color="#ffffff"
             offset="0.0000%" />
          <stop
             id="stop345"
             stop-opacity="1.0000"
             stop-color="#ffffff"
             offset="5.0000%" />
          <stop
             id="stop347"
             stop-opacity="1.0000"
             stop-color="#000000"
             offset="0.0000%" />
          <stop
             id="stop349"
             stop-opacity="1.0000"
             stop-color="#ffffff"
             offset="1056964608.0000%" />
        </linearGradient>
        <linearGradient
           gradientUnits="objectBoundingBox"
           gradientTransform="rotate(92,0.5,0.5)"
           y2="1"
           x2="0"
           y1="0"
           x1="0"
           id="grad27"
           xlink:href="#grad26" />
      </defs>
      <path
         id="path355"
         style="fill:url(#grad27)"
         d="m 79.7152,549.5193 c -6.8545,-0.5144 -15.2119,1.0535 -24.1038,4.3573 -10.3845,3.8583 -24.0365,11.7563 -34.3723,19.5093 7.5368,1.2638 18.6208,2.853 27.4225,5.3908 -2.767,13.2947 -3.3021,21.1363 -2.8014,35.5905 6.2369,-4.5383 14.9249,-10.809 23.6022,-14.9489 4.667,-2.2268 9.7544,-4.1104 14.8908,-5.4839 4.0207,-1.075 8.3609,-2.376 12.4847,-2.9136 4.4736,-0.5832 8.6805,-0.8198 13.3541,-2.702 6.0498,-2.4367 10.3765,-8.1386 10.2831,-13.9544 -6.3773,-1.087 -15.6822,4.4538 -22.7827,4.6824 -4.6507,0.1492 -7.4509,-1.8418 -8.564,-4.7686 z" />
      <defs
         id="defs375">
        <linearGradient
           id="grad28">
          <stop
             id="stop357"
             stop-opacity="1.0000"
             stop-color="#3a1e01"
             offset="0.0000%" />
          <stop
             id="stop359"
             stop-opacity="1.0000"
             stop-color="#ffffff"
             offset="12.0000%" />
          <stop
             id="stop361"
             stop-opacity="1.0000"
             stop-color="#d6d6d6"
             offset="0.0000%" />
          <stop
             id="stop363"
             stop-opacity="1.0000"
             stop-color="#ffffff"
             offset="83887360.0000%" />
          <stop
             id="stop365"
             stop-opacity="1.0000"
             stop-color="#ffffff"
             offset="0.0000%" />
          <stop
             id="stop367"
             stop-opacity="1.0000"
             stop-color="#ffffff"
             offset="5.0000%" />
          <stop
             id="stop369"
             stop-opacity="1.0000"
             stop-color="#000000"
             offset="0.0000%" />
          <stop
             id="stop371"
             stop-opacity="1.0000"
             stop-color="#ffffff"
             offset="1056964608.0000%" />
        </linearGradient>
        <linearGradient
           gradientUnits="objectBoundingBox"
           gradientTransform="rotate(-87,0.5,0.5)"
           y2="1"
           x2="0"
           y1="0"
           x1="0"
           id="grad29"
           xlink:href="#grad28" />
      </defs>
      <path
         id="path377"
         style="fill:url(#grad29)"
         d="m 482.5237,513.49 c 11.1385,3.1476 24.0861,6.2529 32.4515,11.8642 4.6168,3.097 5.3515,8.4056 3.7569,12.5993 l -13.4546,35.3877 c -3.1685,-9.1024 -14.8744,-11.0765 -27.9584,-12.7147 -11.9118,-1.4915 -29.137,-2.1806 -37.2441,-6.3426 -5.9602,-3.0597 -4.2505,-8.9377 -1.9661,-10.9637 6.2441,2.0561 14.934,5.3802 19.2991,6.6142 6.7224,1.9008 10.2636,1.425 12.8705,-5.2221 z" />
      <defs
         id="defs396">
        <linearGradient
           id="grad30">
          <stop
             id="stop379"
             stop-opacity="1.0000"
             stop-color="#3a1e01"
             offset="0.0000%" />
          <stop
             id="stop381"
             stop-opacity="1.0000"
             stop-color="#ffffff"
             offset="12.0000%" />
          <stop
             id="stop383"
             stop-opacity="1.0000"
             stop-color="#d6d6d6"
             offset="0.0000%" />
          <stop
             id="stop385"
             stop-opacity="1.0000"
             stop-color="#ffffff"
             offset="83887360.0000%" />
          <stop
             id="stop387"
             stop-opacity="1.0000"
             stop-color="#ffffff"
             offset="0.0000%" />
          <stop
             id="stop389"
             stop-opacity="1.0000"
             stop-color="#ffffff"
             offset="5.0000%" />
          <stop
             id="stop391"
             stop-opacity="1.0000"
             stop-color="#000000"
             offset="0.0000%" />
          <stop
             id="stop393"
             stop-opacity="1.0000"
             stop-color="#ffffff"
             offset="1056964608.0000%" />
        </linearGradient>
      </defs>
      <path
         id="path398"
         style="fill:url(#grad30)"
         d="m 515.5604,549.5193 c 6.8545,-0.5144 15.2119,1.0535 24.1038,4.3573 10.3845,3.8583 24.0365,11.7563 34.3723,19.5093 -7.5368,1.2638 -18.6208,2.853 -27.4225,5.3908 2.767,13.2947 3.3021,21.1363 2.8014,35.5905 -6.2369,-4.5383 -14.9249,-10.809 -23.6022,-14.9489 -4.667,-2.2268 -9.7544,-4.1104 -14.8908,-5.4839 -4.0208,-1.075 -8.3609,-2.376 -12.4847,-2.9136 -4.4736,-0.5832 -8.6805,-0.8198 -13.3541,-2.702 -6.0498,-2.4367 -10.3765,-8.1386 -10.2831,-13.9544 6.3773,-1.087 15.6822,4.4538 22.7827,4.6824 1.6399,0.0527 3.2219,-0.2211 4.5991,-0.8791 3.2322,-1.5439 3.4762,-2.6043 4.7935,-6.069 z" />
    </g>
    <path
       id="path401"
       style="fill:#ffffff;fill-rule:evenodd"
       d="m 208.9685,518.8346 c 4.2155,4.7738 10.7349,11.4143 15.761,15.2781 1.7115,1.3159 2.2926,2.9781 1.7186,4.9052 l -2.6673,8.9524 c -0.2692,0.904 -1.0696,1.4786 -2.4061,2.003 12.0299,7.1255 25.1379,12.6211 39.0238,16.1743 -0.5511,-1.4436 -0.5711,-2.6782 0.8338,-3.7134 l 8.5038,-6.2658 c 1.8667,-1.3755 3.6315,-1.3076 5.9078,-0.8951 9.3602,1.6963 16.5249,1.6593 20.7926,1.7473 7.7553,0.1601 15.4802,-0.3214 23.6054,-1.7115 1.6169,-0.2767 3.801,-0.2962 5.12,0.6803 l 9.3809,6.9461 c 1.0045,0.7436 1.1475,1.8215 0.8945,3.0577 13.7179,-3.5678 26.6675,-9.0359 38.5621,-16.0972 -1.1111,-0.45 -1.9816,-0.9922 -2.3986,-2.2491 l -3.0076,-9.0586 c -0.5996,-1.8069 0.2618,-3.1678 1.468,-4.046 4.9791,-3.6249 10.8875,-9.0537 16.9717,-16.6289 -2.3296,-0.3268 -4.6592,-0.6321 -6.9848,-0.9192 -3.1233,3.5112 -7.7083,8.5694 -14.0687,13.717 -1.0518,0.851 -2.6123,1.8398 -5.4956,1.7897 l -18.5297,-0.322 c -1.5364,-0.0266 -3.4238,-1.1678 -4.5111,-2.2554 l -11.6008,-11.6008 c -1.413,-1.413 0.1814,-3.5355 1.466,-5.5855 -9.1909,-0.4102 -18.3836,-0.6282 -27.5459,-0.5984 -10.4493,0.0338 -20.9217,0.314 -31.3839,0.8381 1.4451,1.8788 2.4207,4.0156 1.0713,5.4175 l -11.9588,12.4242 c -1.0919,1.1343 -3.4705,1.2188 -5.0485,1.2532 l -17.9382,0.3938 c -2.5444,0.0556 -5.2086,-1.9005 -7.0893,-3.6162 -4.0053,-3.6544 -6.8588,-5.6048 -11.0402,-11.1434 -2.4651,0.3501 -4.9351,0.7256 -7.4062,1.1286 z m 65.9656,3.2147 -12.1441,12.8153 c -1.0535,1.1116 -0.6379,2.6635 0.5371,3.652 l 12.7639,10.7406 c 0.4916,0.4134 1.4085,1.116 3.7756,1.4841 8.4597,1.3156 27.3402,1.7607 36.3954,-0.2229 2.144,-0.4697 3.5118,-1.6479 4.4243,-2.4061 l 11.8514,-9.8463 c 1.7665,-1.4677 0.2624,-3.0755 -1.2889,-4.762 l -10.7057,-11.6366 c -1.9054,-2.0712 -5.1009,-2.0051 -7.9128,-2.0051 h -30.6131 c -2.9592,0 -4.9749,-0.0372 -7.0831,2.187 z" />
    <path
       id="path403"
       style="fill:#1b1918;fill-opacity:0;fill-rule:evenodd"
       d="m 139.2373,466.7446 1.8276,57.8407 h 327.1196 l -1.8277,-57.8407 z" />
    <path
       id="path405"
       style="fill:#020101;fill-rule:evenodd"
       d="m 305.6311,477.6038 c -6.0206,6.9487 -11.9399,13.9513 -17.5094,21.2735 l -0.1684,0.2214 -4.7265,0.0779 0.7253,-0.9418 c 3.8795,-5.0376 7.9008,-9.9844 11.9725,-14.867 5.2063,-6.2435 10.5567,-12.5171 16.1259,-18.4395 l 0.1833,-0.195 4.0354,0.2349 0.1249,0.3632 c 3.8311,11.1281 7.2552,22.398 10.4498,33.7241 l 0.2148,0.7616 -14.2113,-0.607 -0.1149,-0.3947 c -2.0861,-7.1638 -4.6036,-14.1844 -7.1014,-21.2116 z" />
    <path
       id="path407"
       style="fill:#ffffff;fill-rule:evenodd"
       d="m 312.4679,465.3208 c -7.6247,8.1085 -20.0069,22.8039 -28.0618,33.2635 l 3.2596,-0.0539 c 6.0115,-7.9031 12.0224,-14.9535 18.1763,-22.0443 2.6235,7.3896 5.2469,14.6362 7.4405,22.1692 l 13.01,0.5557 c -3.2892,-11.6609 -6.7215,-22.8919 -10.4401,-33.6932 z" />
    <path
       id="path409"
       style="fill:#000200;fill-rule:evenodd"
       d="m 344.4364,487.5547 c 4.8869,-6.6081 9.9709,-13.09 15.2637,-19.371 l 0.1994,-0.2366 11.4873,1.3881 -12.7425,33.0229 -11.4856,-1.1561 8.27,-22.455 c -5.3509,6.9046 -10.4833,14.036 -15.2247,21.3574 l -0.1791,0.2764 -11.4174,-0.5436 10.8159,-33.6803 12.2086,0.9232 z" />
    <path
       id="path411"
       style="fill:#ffffff;fill-rule:evenodd"
       d="m 339.8307,466.7621 -10.4492,32.5383 10.3415,0.4926 c 4.498,-6.9452 10.4281,-15.323 17.5049,-24.2739 l -9.2761,25.1871 10.3153,1.0381 12.3202,-31.9287 -10.4492,-1.2627 c -5.1193,6.0751 -11.1514,13.6812 -17.5232,22.4568 l 8.2288,-23.4146 z" />
    <path
       id="path413"
       style="fill:#000200;fill-rule:evenodd"
       d="m 392.0696,494.3172 c 7.8553,-5.9462 15.8218,-11.748 23.8695,-17.4306 l 0.2183,-0.1538 4.6042,1.2127 -15.5834,31.935 -11.3994,-2.5885 5.8038,-11.9081 c -4.4492,3.4837 -8.8584,7.0186 -13.222,10.6088 l -0.2113,0.1742 -2.488,-0.5122 -3.6441,-13.9679 -5.2542,12.6979 -5.627,-0.7359 13.6161,-32.8402 5.4423,0.9762 z" />
    <path
       id="path415"
       style="fill:#ffffff;fill-rule:evenodd"
       d="m 369.9515,503.1776 13.1532,-31.7236 4.5933,0.8238 3.9666,23.0651 c 8.1538,-6.187 16.451,-12.2309 24.6051,-17.9883 l 3.671,0.967 -15.0781,30.8999 -10.2522,-2.3282 6.572,-13.4844 c -5.2052,4.0474 -10.2671,8.0945 -15.1858,12.1416 l -1.871,-0.385 -3.985,-15.2752 -5.739,13.8693 z" />
    <path
       id="path417"
       style="fill:#000200;fill-rule:evenodd"
       d="m 448.2941,491.6215 -7.674,-1.975 -13.8785,25.0975 -11.3135,-2.9042 16.2895,-31.2633 0.4408,0.1137 c 10.1124,2.6092 20.2071,5.3896 30.217,8.3686 l 0.7038,0.2094 -18.0497,30.4598 -11.2673,-3.1766 z" />
    <path
       id="path419"
       style="fill:#ffffff;fill-rule:evenodd"
       d="m 416.2697,511.4643 10.1852,2.6146 13.8785,-25.0978 8.8372,2.2744 -14.5408,24.9453 10.1313,2.8564 17.451,-29.4493 c -9.2064,-2.7398 -20.1315,-5.766 -30.1969,-8.3629 z" />
    <path
       id="path421"
       style="fill:#020101;fill-rule:evenodd"
       d="m 249.2492,478.0544 c 2.0961,-6.371 5.5219,-12.4793 13.1481,-12.2074 1.7092,0.061 3.4192,0.0635 5.1269,-0.0407 0.2819,-0.0172 0.5635,-0.0375 0.845,-0.0602 2.0203,-0.1627 4.1196,-0.539 6.1158,-0.635 2.4347,-0.1172 4.5125,1.2477 5.5122,3.4579 2.0529,4.5377 1.3703,10.5865 0.1555,15.2631 -1.4001,5.3891 -5.5193,15.4239 -11.9447,16.0698 -4.6667,0.4692 -9.3792,0.6697 -14.0596,1.0885 -0.7966,0.0713 -1.5765,-0.0393 -2.3081,-0.3684 -2.5433,-1.1437 -3.5962,-4.4647 -4.0244,-6.9897 -0.6113,-3.6036 -0.3707,-7.6499 0.3142,-11.2269 0.2815,-1.4706 0.651,-2.9286 1.1191,-4.351 z m 13.4821,-4.6068 c -1.2403,2.368 -1.975,5.8789 -2.4497,8.5072 -0.3855,2.1348 -0.6843,4.298 -0.9011,6.4569 -0.1346,1.3431 -0.2922,2.8833 -0.2512,4.2321 0.0318,1.0513 1.1246,1.3598 2.0051,1.4007 0.7722,0.0358 1.6599,-0.0982 2.3972,-0.3371 0.4726,-0.153 1.1973,-0.5543 1.419,-1.0258 1.2165,-2.5851 2.0724,-6.2635 2.6642,-9.0626 0.4571,-2.1623 1.6633,-8.4579 1.0732,-10.5117 -0.2827,-0.9833 -2.6025,-0.8685 -3.3645,-0.8158 -0.8401,0.0582 -2.1568,0.3243 -2.5922,1.1561 z" />
    <path
       id="path423"
       style="fill:#ffffff;fill-rule:evenodd"
       d="m 249.7934,478.2334 c -3.2147,9.7713 -2.1294,22.7615 4.304,22.1864 6.4108,-0.5735 9.8873,-0.6691 14.0533,-1.0879 5.088,-0.5116 9.4633,-8.0065 11.4475,-15.6438 1.4477,-5.573 1.6232,-11.0231 -0.1229,-14.8831 -0.9544,-2.1099 -2.8684,-3.2224 -4.9628,-3.1216 -1.3173,0.0633 -4.217,0.5273 -6.9533,0.6946 -1.7436,0.1066 -3.4622,0.1028 -5.1823,0.0415 -7.3634,-0.2626 -10.581,5.7271 -12.5835,11.8139 z m 12.4303,-5.0516 c -2.5232,4.8184 -3.7523,16.6615 -3.667,19.4795 0.0341,1.1234 0.953,1.8813 2.551,1.9555 0.7986,0.037 1.7699,-0.0954 2.6003,-0.3643 0.8304,-0.2687 1.5219,-0.8184 1.761,-1.3271 2.0627,-4.3837 4.6192,-17.0196 3.7696,-19.9762 -0.3618,-1.2586 -2.3606,-1.3397 -3.9546,-1.2291 -1.594,0.1103 -2.6487,0.6757 -3.0603,1.4617 z" />
    <path
       id="path425"
       style="fill:#020101;fill-rule:evenodd"
       d="m 195.8493,474.412 12.0385,-2.26 -2.4814,35.661 -11.6498,2.1967 z m 21.0412,9.2222 11.9067,20.4861 -12.6405,1.6075 -9.0724,-15.5674 0.3509,-5.0508 14.2792,-14.8847 9.3967,-0.8682 z" />
    <path
       id="path427"
       style="fill:#ffffff;fill-rule:evenodd"
       d="m 196.395,474.8924 -2.0234,34.4184 10.494,-1.9787 2.3992,-34.4803 z m 25.5812,-4.1098 -13.9836,14.5708 -0.3245,4.671 8.7925,15.0872 11.4071,-1.4505 -11.6935,-20.1194 13.466,-13.5199 z" />
    <path
       id="path429"
       style="fill:#020101;fill-rule:evenodd"
       d="m 169.719,487.042 -0.407,28.5991 -11.4894,3.4038 -0.0223,-16.0721 -10.9491,3.1726 c -0.521,0.1509 -1.0578,0.1856 -1.5926,0.0911 -1.7006,-0.3014 -2.9274,-1.7954 -3.6592,-3.2603 -0.9195,-1.8406 -1.3085,-4.0459 -1.2312,-6.0931 0.1458,-3.8594 1.7318,-8.9082 5.8379,-10.1645 l 10.2227,-3.1274 v 7.0307 l -2.4149,0.7447 c -2.7326,0.843 -2.4634,6.377 0.454,5.5987 l 3.2336,-0.863 0.0223,-12.7674 22.6404,-5.6008 c 1.0191,-0.2523 2.0526,-0.2076 3.0076,0.2504 2.8544,1.3686 3.5702,5.495 3.4358,8.3222 -0.2157,4.5306 -1.806,9.4184 -6.6153,10.8262 l -10.4736,3.0669 0.1455,-7.1544 2.6106,-0.6728 c 1.8295,-0.4712 2.4462,-2.2176 2.3755,-3.9408 -0.0479,-1.1613 -0.3695,-2.6018 -1.845,-2.2262 z" />
    <path
       id="path431"
       style="fill:#ffffff;fill-rule:evenodd"
       d="m 158.2958,483.7834 -0.0223,12.7591 -3.6578,0.9762 c -3.6278,0.9679 -4.2571,-5.6242 -0.7705,-6.6995 l 2.0108,-0.6201 v -5.8336 l -9.4823,2.901 c -3.5114,1.0742 -5.2736,5.422 -5.4329,9.6384 -0.1884,4.9846 2.521,9.6263 5.7509,8.6902 l 11.6803,-3.3845 0.0224,16.0675 10.3507,-3.0667 0.4073,-28.6163 3.7117,-0.9447 c 1.7728,-0.4511 2.4863,1.0063 2.5585,2.7579 0.0767,1.8647 -0.6013,3.9514 -2.8048,4.5191 l -2.1896,0.5643 -0.1209,5.9387 9.7241,-2.8472 c 4.4504,-1.303 5.992,-5.8513 6.2039,-10.3037 0.2255,-4.74 -1.877,-8.9435 -5.7336,-7.9894 z" />
    <g
       id="Layer1004">
      <path
         id="path433"
         style="fill:#000200;fill-rule:evenodd"
         d="m 1294.7238,350.513 -7.5943,-1.9545 -13.7344,24.8369 -11.196,-2.874 16.1204,-30.9388 0.4362,0.1125 c 10.0074,2.5821 19.9973,5.3337 29.9033,8.2818 l 0.6964,0.2072 -17.8622,30.1436 -11.1504,-3.1436 z" />
    </g>
    <path
       id="path436"
       style="fill:#ffffff;fill-rule:evenodd"
       d="m 416.2698,511.4641 10.1852,2.6146 13.8785,-25.0977 8.8372,2.2743 -14.5408,24.9454 10.1313,2.8563 17.451,-29.4492 c -9.2064,-2.7398 -20.1314,-5.7661 -30.1969,-8.3629 z" />
    <path
       id="path438"
       style="fill:#1b1918;fill-opacity:0;fill-rule:evenodd"
       d="m 227.5736,580.1021 -0.327,53.2871 h 145.9023 l 0.3271,-53.2871 z" />
    <g
       id="Layer1005">
      <path
         id="path440"
         style="fill:#020101;fill-rule:evenodd"
         d="m 312.0923,592.1537 -8.7383,0.4542 4.8803,-8.5768 11.8313,-0.6659 4.0629,43.7271 -10.1465,0.708 z" />
      <path
         id="path442"
         style="fill:#ffffff;fill-rule:evenodd"
         d="m 319.5463,583.9681 -10.9683,0.6176 -4.2083,7.3958 8.2643,-0.4297 1.8893,35.6364 8.9805,-0.6267 z" />
      <path
         id="path444"
         style="fill:#020101;fill-rule:evenodd"
         d="m 282.7322,582.76 c 4.5175,0.1165 8.5358,1.766 11.0414,5.6454 3.3571,5.1969 4.1353,13.3021 3.9991,19.3553 -0.1019,4.5226 -0.6532,9.5846 -2.8798,13.6066 -3.0554,5.5195 -8.163,7.7104 -14.3714,7.3709 -6.6195,-0.362 -11.8075,-3.4288 -13.9454,-9.8533 -1.2713,-3.8203 -1.158,-8.4528 -0.9403,-12.4329 0.3381,-6.1836 2.0079,-13.7008 5.9298,-18.6497 2.8828,-3.6378 6.5465,-5.1616 11.1666,-5.0423 z m -0.1183,8.3384 c -6.0497,-0.3308 -7.5782,10.0669 -7.8091,14.2907 -0.2071,3.7862 -0.4311,10.9525 2.8593,13.6164 0.9293,0.7525 2.0358,1.0824 3.2176,1.147 6.8494,0.3745 7.6697,-9.1186 7.9365,-13.9971 0.2356,-4.3085 -0.0125,-14.7184 -6.2043,-15.057 z" />
      <path
         id="path446"
         style="fill:#ffffff;fill-rule:evenodd"
         d="m 282.7175,583.3326 c 4.6129,0.1192 8.2862,1.8398 10.575,5.3836 2.9439,4.5575 4.0672,11.93 3.9075,19.0315 -0.1246,5.5243 -0.928,9.9454 -2.8083,13.3421 -2.661,4.8072 -7.1883,7.4401 -13.8389,7.0764 -7.094,-0.3879 -11.5673,-3.8558 -13.4332,-9.4622 -1.1193,-3.3636 -1.1704,-7.4918 -0.9118,-12.2207 0.3879,-7.0931 2.3761,-13.996 5.8068,-18.3251 2.6674,-3.3662 6.0857,-4.9447 10.7029,-4.8256 z m -0.0724,7.1938 c 5.1071,0.2793 7.2203,6.9704 6.7451,15.6603 -0.4752,8.6898 -2.5748,14.864 -8.5398,14.5378 -6.1081,-0.334 -7.0694,-7.1058 -6.6177,-15.3667 0.4518,-8.2608 3.3054,-15.1106 8.4124,-14.8314 z" />
      <path
         id="path448"
         style="fill:#020101;fill-rule:evenodd"
         d="m 244.7656,614.6278 c 5.076,1.1363 10.1688,1.9078 15.356,2.3994 l 0.5821,0.0553 -0.9756,8.4486 -0.5628,-0.0577 c -3.7077,-0.3811 -7.4229,-0.9964 -11.0875,-1.6726 -4.2195,-0.779 -8.4227,-1.665 -12.6111,-2.5966 -2.8746,-0.6394 -5.7443,-1.3024 -8.6107,-1.9787 l -0.533,-0.126 0.8313,-4.3896 0.2302,-0.131 c 6.4586,-3.6781 26.2805,-13.6087 27.4202,-21.3425 0.5425,-3.6794 -1.2326,-6.1249 -4.9971,-6.4537 -3.7082,-0.324 -5.4289,2.246 -6.2442,5.5346 l -0.128,0.5167 -8.8998,-1.5257 0.1523,-0.6007 c 1.4875,-5.8658 5.2403,-10.7242 11.3266,-12.0739 4.8324,-1.0715 10.0533,0.1883 13.5923,3.7245 2.4518,2.4499 3.8031,5.6684 3.9823,9.1192 0.0913,1.7603 -0.1546,3.4974 -0.6962,5.1731 -1.0767,3.33 -3.2463,6.2416 -5.6885,8.7017 -2.2945,2.3109 -4.9135,4.3207 -7.6013,6.1513 -1.587,1.0811 -3.2354,2.0755 -4.8375,3.1243 z" />
      <path
         id="path450"
         style="fill:#ffffff;fill-rule:evenodd"
         d="m 235.2431,590.8485 7.7643,1.3309 c 1.1761,-4.7443 3.7826,-6.2354 6.8501,-5.9674 4.2827,0.374 6.08,3.2679 5.514,7.108 -1.1939,8.1016 -21.3628,18.1459 -27.7035,21.7568 l -0.6803,3.5911 c 11.0759,2.6138 23.5505,5.3428 32.2361,6.2355 l 0.8438,-7.3058 c -4.9199,-0.4663 -10.4215,-1.22 -16.722,-2.7086 4.6429,-3.1879 20.294,-11.3788 19.6713,-23.3821 -0.1861,-3.5867 -1.6558,-6.5861 -3.815,-8.7435 -3.414,-3.4111 -8.4432,-4.5948 -13.0635,-3.5705 -5.2112,1.1557 -9.2598,5.207 -10.8953,11.6556 z" />
      <path
         id="path452"
         style="fill:#020101;fill-rule:evenodd"
         d="m 345.9566,578.5566 c 7.3736,-1.3638 13.7909,2.6605 15.16,10.062 0.5959,3.2216 -0.2196,6.2997 -1.9395,8.7938 0.5857,0.2025 1.1631,0.4391 1.727,0.7097 3.011,1.4451 5.5364,3.8383 6.8353,6.9468 0.3231,0.7736 0.5642,1.5796 0.7167,2.404 0.3035,1.641 0.3183,3.3222 0.005,4.963 -1.2962,6.7942 -7.3727,10.3977 -13.7328,11.5741 -6.3602,1.1765 -13.3236,-0.0151 -16.9643,-5.8961 -0.8791,-1.4203 -1.4667,-2.9956 -1.7702,-4.6366 -0.1525,-0.8244 -0.2156,-1.6633 -0.1906,-2.5014 0.101,-3.3674 1.6033,-6.5055 3.8982,-8.9321 0.3104,-0.328 0.6339,-0.6421 0.9681,-0.9411 -2.6558,-1.7092 -4.6506,-4.3718 -5.2712,-7.7272 -1.369,-7.4015 3.1843,-13.455 10.5579,-14.8189 z m 4.9187,25.3673 c 4.0565,-0.7503 7.4561,1.4805 8.0233,4.5472 0.5673,3.0668 -1.2594,6.1993 -5.8775,7.0535 -4.6184,0.8543 -7.4445,-1.4177 -8.0117,-4.4844 -0.5673,-3.0667 1.8094,-6.366 5.8659,-7.1163 z m -3.418,-16.7987 c 2.4234,-0.4483 4.7704,1.2449 5.1924,3.5264 0.422,2.2814 -0.9587,4.6158 -3.5961,5.1037 -2.6378,0.4879 -4.7618,-1.1983 -5.1838,-3.4797 -0.422,-2.2815 1.1641,-4.7022 3.5875,-5.1504 z" />
      <path
         id="path454"
         style="fill:#ffffff;fill-rule:evenodd"
         d="m 346.0608,579.12 c 7.9938,-1.4786 13.3513,3.4333 14.4925,9.6027 0.5931,3.207 -0.3255,6.4458 -2.3083,8.9955 5.0919,1.4885 8.796,5.2535 9.6478,9.8589 1.2754,6.8953 -2.8491,13.9424 -13.2683,15.8696 -10.4192,1.9272 -16.7916,-3.1783 -18.067,-10.0736 -0.8248,-4.459 1.1291,-9.1388 5.087,-12.3466 -2.9219,-1.6545 -5.0674,-4.4299 -5.6825,-7.7552 -1.1411,-6.1695 2.105,-12.6727 10.0988,-14.1513 z m 4.7103,24.2406 c 3.6627,-0.6775 7.9583,1.0462 8.6908,5.0063 0.7809,4.2218 -2.4272,6.9979 -6.3366,7.7211 -3.9098,0.7231 -7.8983,-0.7215 -8.6792,-4.9436 -0.7325,-3.9602 2.6623,-7.1064 6.325,-7.7838 z m -3.418,-16.7987 c 2.6614,-0.4923 5.3672,1.3218 5.8599,3.9855 0.5128,2.7724 -1.2905,5.2598 -4.0552,5.7712 -2.7648,0.5114 -5.3385,-1.1664 -5.8513,-3.9388 -0.4927,-2.6637 1.3852,-5.3257 4.0466,-5.8179 z" />
    </g>
    <g
       id="Layer1006">
      <path
         id="path457"
         style="fill:#000200;fill-rule:evenodd"
         d="m 1239.0831,353.1807 c 7.7738,-5.8844 15.6575,-11.626 23.6217,-17.2497 l 0.216,-0.1522 4.5564,1.2002 -15.4216,31.6035 -11.281,-2.5617 5.7435,-11.7845 c -4.403,3.4475 -8.7664,6.9457 -13.0847,10.4987 l -0.2092,0.1723 -2.4622,-0.5068 -3.6062,-13.8229 -5.1996,12.566 -5.5686,-0.7282 13.4747,-32.4992 5.3859,0.966 z" />
    </g>
    <path
       id="path460"
       style="fill:#ffffff;fill-rule:evenodd"
       d="m 369.9516,503.1775 13.1532,-31.7236 4.5933,0.8238 3.9666,23.0651 c 8.1538,-6.187 16.451,-12.2309 24.6051,-17.9883 l 3.671,0.967 -15.0781,30.8998 -10.2522,-2.3281 6.572,-13.4844 c -5.2051,4.0474 -10.2671,8.0944 -15.1858,12.1415 l -1.871,-0.3849 -3.985,-15.2752 -5.739,13.8693 z" />
  </g>
</svg>
